<?xml version="1.0" encoding="utf-8" standalone="no"?>
<!DOCTYPE svg PUBLIC "-//W3C//DTD SVG 1.1//EN"
  "http://www.w3.org/Graphics/SVG/1.1/DTD/svg11.dtd">
<!-- Created with matplotlib (http://matplotlib.org/) -->
<svg height="713.52pt" version="1.1" viewBox="0 0 921.6 713.52" width="921.6pt" xmlns="http://www.w3.org/2000/svg" xmlns:xlink="http://www.w3.org/1999/xlink">
 <defs>
  <style type="text/css">
*{stroke-linecap:butt;stroke-linejoin:round;}
  </style>
 </defs>
 <g id="figure_1">
  <g id="patch_1">
   <path d="M 0 713.52 
L 921.6 713.52 
L 921.6 0 
L 0 0 
z
" style="fill:#ffffff;"/>
  </g>
  <g id="axes_1">
   <g id="patch_2">
    <path d="M 64.512 326.978296 
L 458.87107 326.978296 
L 458.87107 57.0816 
L 64.512 57.0816 
z
" style="fill:#ffffff;"/>
   </g>
   <g id="patch_3">
    <path clip-path="url(#p93aba1b5e9)" d="M 82.437412 326.978296 
L 96.777742 326.978296 
L 96.777742 69.933824 
L 82.437412 69.933824 
z
" style="fill:#1f77b4;"/>
   </g>
   <g id="patch_4">
    <path clip-path="url(#p93aba1b5e9)" d="M 96.777742 326.978296 
L 111.118072 326.978296 
L 111.118072 323.19082 
L 96.777742 323.19082 
z
" style="fill:#1f77b4;"/>
   </g>
   <g id="patch_5">
    <path clip-path="url(#p93aba1b5e9)" d="M 111.118072 326.978296 
L 125.458402 326.978296 
L 125.458402 324.962942 
L 111.118072 324.962942 
z
" style="fill:#1f77b4;"/>
   </g>
   <g id="patch_6">
    <path clip-path="url(#p93aba1b5e9)" d="M 125.458402 326.978296 
L 139.798732 326.978296 
L 139.798732 325.831629 
L 125.458402 325.831629 
z
" style="fill:#1f77b4;"/>
   </g>
   <g id="patch_7">
    <path clip-path="url(#p93aba1b5e9)" d="M 139.798732 326.978296 
L 154.139061 326.978296 
L 154.139061 326.509205 
L 139.798732 326.509205 
z
" style="fill:#1f77b4;"/>
   </g>
   <g id="patch_8">
    <path clip-path="url(#p93aba1b5e9)" d="M 154.139061 326.978296 
L 168.479391 326.978296 
L 168.479391 326.752437 
L 154.139061 326.752437 
z
" style="fill:#1f77b4;"/>
   </g>
   <g id="patch_9">
    <path clip-path="url(#p93aba1b5e9)" d="M 168.479391 326.978296 
L 182.819721 326.978296 
L 182.819721 326.787185 
L 168.479391 326.787185 
z
" style="fill:#1f77b4;"/>
   </g>
   <g id="patch_10">
    <path clip-path="url(#p93aba1b5e9)" d="M 182.819721 326.978296 
L 197.160051 326.978296 
L 197.160051 326.908801 
L 182.819721 326.908801 
z
" style="fill:#1f77b4;"/>
   </g>
   <g id="patch_11">
    <path clip-path="url(#p93aba1b5e9)" d="M 197.160051 326.978296 
L 211.500381 326.978296 
L 211.500381 326.874053 
L 197.160051 326.874053 
z
" style="fill:#1f77b4;"/>
   </g>
   <g id="patch_12">
    <path clip-path="url(#p93aba1b5e9)" d="M 211.500381 326.978296 
L 225.84071 326.978296 
L 225.84071 326.648195 
L 211.500381 326.648195 
z
" style="fill:#1f77b4;"/>
   </g>
   <g id="patch_13">
    <path clip-path="url(#p93aba1b5e9)" d="M 225.84071 326.978296 
L 240.18104 326.978296 
L 240.18104 326.630821 
L 225.84071 326.630821 
z
" style="fill:#1f77b4;"/>
   </g>
   <g id="patch_14">
    <path clip-path="url(#p93aba1b5e9)" d="M 240.18104 326.978296 
L 254.52137 326.978296 
L 254.52137 326.074861 
L 240.18104 326.074861 
z
" style="fill:#1f77b4;"/>
   </g>
   <g id="patch_15">
    <path clip-path="url(#p93aba1b5e9)" d="M 254.52137 326.978296 
L 268.8617 326.978296 
L 268.8617 325.675265 
L 254.52137 325.675265 
z
" style="fill:#1f77b4;"/>
   </g>
   <g id="patch_16">
    <path clip-path="url(#p93aba1b5e9)" d="M 268.8617 326.978296 
L 283.20203 326.978296 
L 283.20203 325.067184 
L 268.8617 325.067184 
z
" style="fill:#1f77b4;"/>
   </g>
   <g id="patch_17">
    <path clip-path="url(#p93aba1b5e9)" d="M 283.20203 326.978296 
L 297.542359 326.978296 
L 297.542359 325.484154 
L 283.20203 325.484154 
z
" style="fill:#1f77b4;"/>
   </g>
   <g id="patch_18">
    <path clip-path="url(#p93aba1b5e9)" d="M 297.542359 326.978296 
L 311.882689 326.978296 
L 311.882689 326.370215 
L 297.542359 326.370215 
z
" style="fill:#1f77b4;"/>
   </g>
   <g id="patch_19">
    <path clip-path="url(#p93aba1b5e9)" d="M 311.882689 326.978296 
L 326.223019 326.978296 
L 326.223019 326.596073 
L 311.882689 326.596073 
z
" style="fill:#1f77b4;"/>
   </g>
   <g id="patch_20">
    <path clip-path="url(#p93aba1b5e9)" d="M 326.223019 326.978296 
L 340.563349 326.978296 
L 340.563349 326.804558 
L 326.223019 326.804558 
z
" style="fill:#1f77b4;"/>
   </g>
   <g id="patch_21">
    <path clip-path="url(#p93aba1b5e9)" d="M 340.563349 326.978296 
L 354.903679 326.978296 
L 354.903679 326.613447 
L 340.563349 326.613447 
z
" style="fill:#1f77b4;"/>
   </g>
   <g id="patch_22">
    <path clip-path="url(#p93aba1b5e9)" d="M 354.903679 326.978296 
L 369.244008 326.978296 
L 369.244008 326.335467 
L 354.903679 326.335467 
z
" style="fill:#1f77b4;"/>
   </g>
   <g id="patch_23">
    <path clip-path="url(#p93aba1b5e9)" d="M 369.244008 326.978296 
L 383.584338 326.978296 
L 383.584338 325.657891 
L 369.244008 325.657891 
z
" style="fill:#1f77b4;"/>
   </g>
   <g id="patch_24">
    <path clip-path="url(#p93aba1b5e9)" d="M 383.584338 326.978296 
L 397.924668 326.978296 
L 397.924668 325.136679 
L 383.584338 325.136679 
z
" style="fill:#1f77b4;"/>
   </g>
   <g id="patch_25">
    <path clip-path="url(#p93aba1b5e9)" d="M 397.924668 326.978296 
L 412.264998 326.978296 
L 412.264998 326.005366 
L 397.924668 326.005366 
z
" style="fill:#1f77b4;"/>
   </g>
   <g id="patch_26">
    <path clip-path="url(#p93aba1b5e9)" d="M 412.264998 326.978296 
L 426.605328 326.978296 
L 426.605328 326.752437 
L 412.264998 326.752437 
z
" style="fill:#1f77b4;"/>
   </g>
   <g id="patch_27">
    <path clip-path="url(#p93aba1b5e9)" d="M 426.605328 326.978296 
L 440.945658 326.978296 
L 440.945658 326.874053 
L 426.605328 326.874053 
z
" style="fill:#1f77b4;"/>
   </g>
   <g id="matplotlib.axis_1">
    <g id="xtick_1">
     <g id="line2d_1">
      <defs>
       <path d="M 0 0 
L 0 3.5 
" id="m91b4fceedd" style="stroke:#000000;stroke-width:0.8;"/>
      </defs>
      <g>
       <use style="stroke:#000000;stroke-width:0.8;" x="76.286536" xlink:href="#m91b4fceedd" y="326.978296"/>
      </g>
     </g>
     <g id="text_1">
      <!-- 0.00 -->
      <defs>
       <path d="M 31.78125 66.40625 
Q 24.171875 66.40625 20.328125 58.90625 
Q 16.5 51.421875 16.5 36.375 
Q 16.5 21.390625 20.328125 13.890625 
Q 24.171875 6.390625 31.78125 6.390625 
Q 39.453125 6.390625 43.28125 13.890625 
Q 47.125 21.390625 47.125 36.375 
Q 47.125 51.421875 43.28125 58.90625 
Q 39.453125 66.40625 31.78125 66.40625 
z
M 31.78125 74.21875 
Q 44.046875 74.21875 50.515625 64.515625 
Q 56.984375 54.828125 56.984375 36.375 
Q 56.984375 17.96875 50.515625 8.265625 
Q 44.046875 -1.421875 31.78125 -1.421875 
Q 19.53125 -1.421875 13.0625 8.265625 
Q 6.59375 17.96875 6.59375 36.375 
Q 6.59375 54.828125 13.0625 64.515625 
Q 19.53125 74.21875 31.78125 74.21875 
z
" id="DejaVuSans-30"/>
       <path d="M 10.6875 12.40625 
L 21 12.40625 
L 21 0 
L 10.6875 0 
z
" id="DejaVuSans-2e"/>
      </defs>
      <g transform="translate(65.153723 341.576733)scale(0.1 -0.1)">
       <use xlink:href="#DejaVuSans-30"/>
       <use x="63.623047" xlink:href="#DejaVuSans-2e"/>
       <use x="95.410156" xlink:href="#DejaVuSans-30"/>
       <use x="159.033203" xlink:href="#DejaVuSans-30"/>
      </g>
     </g>
    </g>
    <g id="xtick_2">
     <g id="line2d_2">
      <g>
       <use style="stroke:#000000;stroke-width:0.8;" x="120.221369" xlink:href="#m91b4fceedd" y="326.978296"/>
      </g>
     </g>
     <g id="text_2">
      <!-- 0.05 -->
      <defs>
       <path d="M 10.796875 72.90625 
L 49.515625 72.90625 
L 49.515625 64.59375 
L 19.828125 64.59375 
L 19.828125 46.734375 
Q 21.96875 47.46875 24.109375 47.828125 
Q 26.265625 48.1875 28.421875 48.1875 
Q 40.625 48.1875 47.75 41.5 
Q 54.890625 34.8125 54.890625 23.390625 
Q 54.890625 11.625 47.5625 5.09375 
Q 40.234375 -1.421875 26.90625 -1.421875 
Q 22.3125 -1.421875 17.546875 -0.640625 
Q 12.796875 0.140625 7.71875 1.703125 
L 7.71875 11.625 
Q 12.109375 9.234375 16.796875 8.0625 
Q 21.484375 6.890625 26.703125 6.890625 
Q 35.15625 6.890625 40.078125 11.328125 
Q 45.015625 15.765625 45.015625 23.390625 
Q 45.015625 31 40.078125 35.4375 
Q 35.15625 39.890625 26.703125 39.890625 
Q 22.75 39.890625 18.8125 39.015625 
Q 14.890625 38.140625 10.796875 36.28125 
z
" id="DejaVuSans-35"/>
      </defs>
      <g transform="translate(109.088557 341.576733)scale(0.1 -0.1)">
       <use xlink:href="#DejaVuSans-30"/>
       <use x="63.623047" xlink:href="#DejaVuSans-2e"/>
       <use x="95.410156" xlink:href="#DejaVuSans-30"/>
       <use x="159.033203" xlink:href="#DejaVuSans-35"/>
      </g>
     </g>
    </g>
    <g id="xtick_3">
     <g id="line2d_3">
      <g>
       <use style="stroke:#000000;stroke-width:0.8;" x="164.156203" xlink:href="#m91b4fceedd" y="326.978296"/>
      </g>
     </g>
     <g id="text_3">
      <!-- 0.10 -->
      <defs>
       <path d="M 12.40625 8.296875 
L 28.515625 8.296875 
L 28.515625 63.921875 
L 10.984375 60.40625 
L 10.984375 69.390625 
L 28.421875 72.90625 
L 38.28125 72.90625 
L 38.28125 8.296875 
L 54.390625 8.296875 
L 54.390625 0 
L 12.40625 0 
z
" id="DejaVuSans-31"/>
      </defs>
      <g transform="translate(153.023391 341.576733)scale(0.1 -0.1)">
       <use xlink:href="#DejaVuSans-30"/>
       <use x="63.623047" xlink:href="#DejaVuSans-2e"/>
       <use x="95.410156" xlink:href="#DejaVuSans-31"/>
       <use x="159.033203" xlink:href="#DejaVuSans-30"/>
      </g>
     </g>
    </g>
    <g id="xtick_4">
     <g id="line2d_4">
      <g>
       <use style="stroke:#000000;stroke-width:0.8;" x="208.091037" xlink:href="#m91b4fceedd" y="326.978296"/>
      </g>
     </g>
     <g id="text_4">
      <!-- 0.15 -->
      <g transform="translate(196.958225 341.576733)scale(0.1 -0.1)">
       <use xlink:href="#DejaVuSans-30"/>
       <use x="63.623047" xlink:href="#DejaVuSans-2e"/>
       <use x="95.410156" xlink:href="#DejaVuSans-31"/>
       <use x="159.033203" xlink:href="#DejaVuSans-35"/>
      </g>
     </g>
    </g>
    <g id="xtick_5">
     <g id="line2d_5">
      <g>
       <use style="stroke:#000000;stroke-width:0.8;" x="252.025871" xlink:href="#m91b4fceedd" y="326.978296"/>
      </g>
     </g>
     <g id="text_5">
      <!-- 0.20 -->
      <defs>
       <path d="M 19.1875 8.296875 
L 53.609375 8.296875 
L 53.609375 0 
L 7.328125 0 
L 7.328125 8.296875 
Q 12.9375 14.109375 22.625 23.890625 
Q 32.328125 33.6875 34.8125 36.53125 
Q 39.546875 41.84375 41.421875 45.53125 
Q 43.3125 49.21875 43.3125 52.78125 
Q 43.3125 58.59375 39.234375 62.25 
Q 35.15625 65.921875 28.609375 65.921875 
Q 23.96875 65.921875 18.8125 64.3125 
Q 13.671875 62.703125 7.8125 59.421875 
L 7.8125 69.390625 
Q 13.765625 71.78125 18.9375 73 
Q 24.125 74.21875 28.421875 74.21875 
Q 39.75 74.21875 46.484375 68.546875 
Q 53.21875 62.890625 53.21875 53.421875 
Q 53.21875 48.921875 51.53125 44.890625 
Q 49.859375 40.875 45.40625 35.40625 
Q 44.1875 33.984375 37.640625 27.21875 
Q 31.109375 20.453125 19.1875 8.296875 
z
" id="DejaVuSans-32"/>
      </defs>
      <g transform="translate(240.893059 341.576733)scale(0.1 -0.1)">
       <use xlink:href="#DejaVuSans-30"/>
       <use x="63.623047" xlink:href="#DejaVuSans-2e"/>
       <use x="95.410156" xlink:href="#DejaVuSans-32"/>
       <use x="159.033203" xlink:href="#DejaVuSans-30"/>
      </g>
     </g>
    </g>
    <g id="xtick_6">
     <g id="line2d_6">
      <g>
       <use style="stroke:#000000;stroke-width:0.8;" x="295.960705" xlink:href="#m91b4fceedd" y="326.978296"/>
      </g>
     </g>
     <g id="text_6">
      <!-- 0.25 -->
      <g transform="translate(284.827893 341.576733)scale(0.1 -0.1)">
       <use xlink:href="#DejaVuSans-30"/>
       <use x="63.623047" xlink:href="#DejaVuSans-2e"/>
       <use x="95.410156" xlink:href="#DejaVuSans-32"/>
       <use x="159.033203" xlink:href="#DejaVuSans-35"/>
      </g>
     </g>
    </g>
    <g id="xtick_7">
     <g id="line2d_7">
      <g>
       <use style="stroke:#000000;stroke-width:0.8;" x="339.895539" xlink:href="#m91b4fceedd" y="326.978296"/>
      </g>
     </g>
     <g id="text_7">
      <!-- 0.30 -->
      <defs>
       <path d="M 40.578125 39.3125 
Q 47.65625 37.796875 51.625 33 
Q 55.609375 28.21875 55.609375 21.1875 
Q 55.609375 10.40625 48.1875 4.484375 
Q 40.765625 -1.421875 27.09375 -1.421875 
Q 22.515625 -1.421875 17.65625 -0.515625 
Q 12.796875 0.390625 7.625 2.203125 
L 7.625 11.71875 
Q 11.71875 9.328125 16.59375 8.109375 
Q 21.484375 6.890625 26.8125 6.890625 
Q 36.078125 6.890625 40.9375 10.546875 
Q 45.796875 14.203125 45.796875 21.1875 
Q 45.796875 27.640625 41.28125 31.265625 
Q 36.765625 34.90625 28.71875 34.90625 
L 20.21875 34.90625 
L 20.21875 43.015625 
L 29.109375 43.015625 
Q 36.375 43.015625 40.234375 45.921875 
Q 44.09375 48.828125 44.09375 54.296875 
Q 44.09375 59.90625 40.109375 62.90625 
Q 36.140625 65.921875 28.71875 65.921875 
Q 24.65625 65.921875 20.015625 65.03125 
Q 15.375 64.15625 9.8125 62.3125 
L 9.8125 71.09375 
Q 15.4375 72.65625 20.34375 73.4375 
Q 25.25 74.21875 29.59375 74.21875 
Q 40.828125 74.21875 47.359375 69.109375 
Q 53.90625 64.015625 53.90625 55.328125 
Q 53.90625 49.265625 50.4375 45.09375 
Q 46.96875 40.921875 40.578125 39.3125 
z
" id="DejaVuSans-33"/>
      </defs>
      <g transform="translate(328.762727 341.576733)scale(0.1 -0.1)">
       <use xlink:href="#DejaVuSans-30"/>
       <use x="63.623047" xlink:href="#DejaVuSans-2e"/>
       <use x="95.410156" xlink:href="#DejaVuSans-33"/>
       <use x="159.033203" xlink:href="#DejaVuSans-30"/>
      </g>
     </g>
    </g>
    <g id="xtick_8">
     <g id="line2d_8">
      <g>
       <use style="stroke:#000000;stroke-width:0.8;" x="383.830373" xlink:href="#m91b4fceedd" y="326.978296"/>
      </g>
     </g>
     <g id="text_8">
      <!-- 0.35 -->
      <g transform="translate(372.697561 341.576733)scale(0.1 -0.1)">
       <use xlink:href="#DejaVuSans-30"/>
       <use x="63.623047" xlink:href="#DejaVuSans-2e"/>
       <use x="95.410156" xlink:href="#DejaVuSans-33"/>
       <use x="159.033203" xlink:href="#DejaVuSans-35"/>
      </g>
     </g>
    </g>
    <g id="xtick_9">
     <g id="line2d_9">
      <g>
       <use style="stroke:#000000;stroke-width:0.8;" x="427.765207" xlink:href="#m91b4fceedd" y="326.978296"/>
      </g>
     </g>
     <g id="text_9">
      <!-- 0.40 -->
      <defs>
       <path d="M 37.796875 64.3125 
L 12.890625 25.390625 
L 37.796875 25.390625 
z
M 35.203125 72.90625 
L 47.609375 72.90625 
L 47.609375 25.390625 
L 58.015625 25.390625 
L 58.015625 17.1875 
L 47.609375 17.1875 
L 47.609375 0 
L 37.796875 0 
L 37.796875 17.1875 
L 4.890625 17.1875 
L 4.890625 26.703125 
z
" id="DejaVuSans-34"/>
      </defs>
      <g transform="translate(416.632395 341.576733)scale(0.1 -0.1)">
       <use xlink:href="#DejaVuSans-30"/>
       <use x="63.623047" xlink:href="#DejaVuSans-2e"/>
       <use x="95.410156" xlink:href="#DejaVuSans-34"/>
       <use x="159.033203" xlink:href="#DejaVuSans-30"/>
      </g>
     </g>
    </g>
    <g id="text_10">
     <!-- Time (seconds) -->
     <defs>
      <path d="M -0.296875 72.90625 
L 61.375 72.90625 
L 61.375 64.59375 
L 35.5 64.59375 
L 35.5 0 
L 25.59375 0 
L 25.59375 64.59375 
L -0.296875 64.59375 
z
" id="DejaVuSans-54"/>
      <path d="M 9.421875 54.6875 
L 18.40625 54.6875 
L 18.40625 0 
L 9.421875 0 
z
M 9.421875 75.984375 
L 18.40625 75.984375 
L 18.40625 64.59375 
L 9.421875 64.59375 
z
" id="DejaVuSans-69"/>
      <path d="M 52 44.1875 
Q 55.375 50.25 60.0625 53.125 
Q 64.75 56 71.09375 56 
Q 79.640625 56 84.28125 50.015625 
Q 88.921875 44.046875 88.921875 33.015625 
L 88.921875 0 
L 79.890625 0 
L 79.890625 32.71875 
Q 79.890625 40.578125 77.09375 44.375 
Q 74.3125 48.1875 68.609375 48.1875 
Q 61.625 48.1875 57.5625 43.546875 
Q 53.515625 38.921875 53.515625 30.90625 
L 53.515625 0 
L 44.484375 0 
L 44.484375 32.71875 
Q 44.484375 40.625 41.703125 44.40625 
Q 38.921875 48.1875 33.109375 48.1875 
Q 26.21875 48.1875 22.15625 43.53125 
Q 18.109375 38.875 18.109375 30.90625 
L 18.109375 0 
L 9.078125 0 
L 9.078125 54.6875 
L 18.109375 54.6875 
L 18.109375 46.1875 
Q 21.1875 51.21875 25.484375 53.609375 
Q 29.78125 56 35.6875 56 
Q 41.65625 56 45.828125 52.96875 
Q 50 49.953125 52 44.1875 
z
" id="DejaVuSans-6d"/>
      <path d="M 56.203125 29.59375 
L 56.203125 25.203125 
L 14.890625 25.203125 
Q 15.484375 15.921875 20.484375 11.0625 
Q 25.484375 6.203125 34.421875 6.203125 
Q 39.59375 6.203125 44.453125 7.46875 
Q 49.3125 8.734375 54.109375 11.28125 
L 54.109375 2.78125 
Q 49.265625 0.734375 44.1875 -0.34375 
Q 39.109375 -1.421875 33.890625 -1.421875 
Q 20.796875 -1.421875 13.15625 6.1875 
Q 5.515625 13.8125 5.515625 26.8125 
Q 5.515625 40.234375 12.765625 48.109375 
Q 20.015625 56 32.328125 56 
Q 43.359375 56 49.78125 48.890625 
Q 56.203125 41.796875 56.203125 29.59375 
z
M 47.21875 32.234375 
Q 47.125 39.59375 43.09375 43.984375 
Q 39.0625 48.390625 32.421875 48.390625 
Q 24.90625 48.390625 20.390625 44.140625 
Q 15.875 39.890625 15.1875 32.171875 
z
" id="DejaVuSans-65"/>
      <path id="DejaVuSans-20"/>
      <path d="M 31 75.875 
Q 24.46875 64.65625 21.28125 53.65625 
Q 18.109375 42.671875 18.109375 31.390625 
Q 18.109375 20.125 21.3125 9.0625 
Q 24.515625 -2 31 -13.1875 
L 23.1875 -13.1875 
Q 15.875 -1.703125 12.234375 9.375 
Q 8.59375 20.453125 8.59375 31.390625 
Q 8.59375 42.28125 12.203125 53.3125 
Q 15.828125 64.359375 23.1875 75.875 
z
" id="DejaVuSans-28"/>
      <path d="M 44.28125 53.078125 
L 44.28125 44.578125 
Q 40.484375 46.53125 36.375 47.5 
Q 32.28125 48.484375 27.875 48.484375 
Q 21.1875 48.484375 17.84375 46.4375 
Q 14.5 44.390625 14.5 40.28125 
Q 14.5 37.15625 16.890625 35.375 
Q 19.28125 33.59375 26.515625 31.984375 
L 29.59375 31.296875 
Q 39.15625 29.25 43.1875 25.515625 
Q 47.21875 21.78125 47.21875 15.09375 
Q 47.21875 7.46875 41.1875 3.015625 
Q 35.15625 -1.421875 24.609375 -1.421875 
Q 20.21875 -1.421875 15.453125 -0.5625 
Q 10.6875 0.296875 5.421875 2 
L 5.421875 11.28125 
Q 10.40625 8.6875 15.234375 7.390625 
Q 20.0625 6.109375 24.8125 6.109375 
Q 31.15625 6.109375 34.5625 8.28125 
Q 37.984375 10.453125 37.984375 14.40625 
Q 37.984375 18.0625 35.515625 20.015625 
Q 33.0625 21.96875 24.703125 23.78125 
L 21.578125 24.515625 
Q 13.234375 26.265625 9.515625 29.90625 
Q 5.8125 33.546875 5.8125 39.890625 
Q 5.8125 47.609375 11.28125 51.796875 
Q 16.75 56 26.8125 56 
Q 31.78125 56 36.171875 55.265625 
Q 40.578125 54.546875 44.28125 53.078125 
z
" id="DejaVuSans-73"/>
      <path d="M 48.78125 52.59375 
L 48.78125 44.1875 
Q 44.96875 46.296875 41.140625 47.34375 
Q 37.3125 48.390625 33.40625 48.390625 
Q 24.65625 48.390625 19.8125 42.84375 
Q 14.984375 37.3125 14.984375 27.296875 
Q 14.984375 17.28125 19.8125 11.734375 
Q 24.65625 6.203125 33.40625 6.203125 
Q 37.3125 6.203125 41.140625 7.25 
Q 44.96875 8.296875 48.78125 10.40625 
L 48.78125 2.09375 
Q 45.015625 0.34375 40.984375 -0.53125 
Q 36.96875 -1.421875 32.421875 -1.421875 
Q 20.0625 -1.421875 12.78125 6.34375 
Q 5.515625 14.109375 5.515625 27.296875 
Q 5.515625 40.671875 12.859375 48.328125 
Q 20.21875 56 33.015625 56 
Q 37.15625 56 41.109375 55.140625 
Q 45.0625 54.296875 48.78125 52.59375 
z
" id="DejaVuSans-63"/>
      <path d="M 30.609375 48.390625 
Q 23.390625 48.390625 19.1875 42.75 
Q 14.984375 37.109375 14.984375 27.296875 
Q 14.984375 17.484375 19.15625 11.84375 
Q 23.34375 6.203125 30.609375 6.203125 
Q 37.796875 6.203125 41.984375 11.859375 
Q 46.1875 17.53125 46.1875 27.296875 
Q 46.1875 37.015625 41.984375 42.703125 
Q 37.796875 48.390625 30.609375 48.390625 
z
M 30.609375 56 
Q 42.328125 56 49.015625 48.375 
Q 55.71875 40.765625 55.71875 27.296875 
Q 55.71875 13.875 49.015625 6.21875 
Q 42.328125 -1.421875 30.609375 -1.421875 
Q 18.84375 -1.421875 12.171875 6.21875 
Q 5.515625 13.875 5.515625 27.296875 
Q 5.515625 40.765625 12.171875 48.375 
Q 18.84375 56 30.609375 56 
z
" id="DejaVuSans-6f"/>
      <path d="M 54.890625 33.015625 
L 54.890625 0 
L 45.90625 0 
L 45.90625 32.71875 
Q 45.90625 40.484375 42.875 44.328125 
Q 39.84375 48.1875 33.796875 48.1875 
Q 26.515625 48.1875 22.3125 43.546875 
Q 18.109375 38.921875 18.109375 30.90625 
L 18.109375 0 
L 9.078125 0 
L 9.078125 54.6875 
L 18.109375 54.6875 
L 18.109375 46.1875 
Q 21.34375 51.125 25.703125 53.5625 
Q 30.078125 56 35.796875 56 
Q 45.21875 56 50.046875 50.171875 
Q 54.890625 44.34375 54.890625 33.015625 
z
" id="DejaVuSans-6e"/>
      <path d="M 45.40625 46.390625 
L 45.40625 75.984375 
L 54.390625 75.984375 
L 54.390625 0 
L 45.40625 0 
L 45.40625 8.203125 
Q 42.578125 3.328125 38.25 0.953125 
Q 33.9375 -1.421875 27.875 -1.421875 
Q 17.96875 -1.421875 11.734375 6.484375 
Q 5.515625 14.40625 5.515625 27.296875 
Q 5.515625 40.1875 11.734375 48.09375 
Q 17.96875 56 27.875 56 
Q 33.9375 56 38.25 53.625 
Q 42.578125 51.265625 45.40625 46.390625 
z
M 14.796875 27.296875 
Q 14.796875 17.390625 18.875 11.75 
Q 22.953125 6.109375 30.078125 6.109375 
Q 37.203125 6.109375 41.296875 11.75 
Q 45.40625 17.390625 45.40625 27.296875 
Q 45.40625 37.203125 41.296875 42.84375 
Q 37.203125 48.484375 30.078125 48.484375 
Q 22.953125 48.484375 18.875 42.84375 
Q 14.796875 37.203125 14.796875 27.296875 
z
" id="DejaVuSans-64"/>
      <path d="M 8.015625 75.875 
L 15.828125 75.875 
Q 23.140625 64.359375 26.78125 53.3125 
Q 30.421875 42.28125 30.421875 31.390625 
Q 30.421875 20.453125 26.78125 9.375 
Q 23.140625 -1.703125 15.828125 -13.1875 
L 8.015625 -13.1875 
Q 14.5 -2 17.703125 9.0625 
Q 20.90625 20.125 20.90625 31.390625 
Q 20.90625 42.671875 17.703125 53.65625 
Q 14.5 64.65625 8.015625 75.875 
z
" id="DejaVuSans-29"/>
     </defs>
     <g transform="translate(223.37591 355.254858)scale(0.1 -0.1)">
      <use xlink:href="#DejaVuSans-54"/>
      <use x="61.037109" xlink:href="#DejaVuSans-69"/>
      <use x="88.820312" xlink:href="#DejaVuSans-6d"/>
      <use x="186.232422" xlink:href="#DejaVuSans-65"/>
      <use x="247.755859" xlink:href="#DejaVuSans-20"/>
      <use x="279.542969" xlink:href="#DejaVuSans-28"/>
      <use x="318.556641" xlink:href="#DejaVuSans-73"/>
      <use x="370.65625" xlink:href="#DejaVuSans-65"/>
      <use x="432.179688" xlink:href="#DejaVuSans-63"/>
      <use x="487.160156" xlink:href="#DejaVuSans-6f"/>
      <use x="548.341797" xlink:href="#DejaVuSans-6e"/>
      <use x="611.720703" xlink:href="#DejaVuSans-64"/>
      <use x="675.197266" xlink:href="#DejaVuSans-73"/>
      <use x="727.296875" xlink:href="#DejaVuSans-29"/>
     </g>
    </g>
   </g>
   <g id="matplotlib.axis_2">
    <g id="ytick_1">
     <g id="line2d_10">
      <defs>
       <path d="M 0 0 
L -3.5 0 
" id="m1ca1101d6d" style="stroke:#000000;stroke-width:0.8;"/>
      </defs>
      <g>
       <use style="stroke:#000000;stroke-width:0.8;" x="64.512" xlink:href="#m1ca1101d6d" y="326.978296"/>
      </g>
     </g>
     <g id="text_11">
      <!-- 0 -->
      <g transform="translate(51.1495 330.777514)scale(0.1 -0.1)">
       <use xlink:href="#DejaVuSans-30"/>
      </g>
     </g>
    </g>
    <g id="ytick_2">
     <g id="line2d_11">
      <g>
       <use style="stroke:#000000;stroke-width:0.8;" x="64.512" xlink:href="#m1ca1101d6d" y="292.230817"/>
      </g>
     </g>
     <g id="text_12">
      <!-- 2000 -->
      <g transform="translate(32.062 296.030036)scale(0.1 -0.1)">
       <use xlink:href="#DejaVuSans-32"/>
       <use x="63.623047" xlink:href="#DejaVuSans-30"/>
       <use x="127.246094" xlink:href="#DejaVuSans-30"/>
       <use x="190.869141" xlink:href="#DejaVuSans-30"/>
      </g>
     </g>
    </g>
    <g id="ytick_3">
     <g id="line2d_12">
      <g>
       <use style="stroke:#000000;stroke-width:0.8;" x="64.512" xlink:href="#m1ca1101d6d" y="257.483339"/>
      </g>
     </g>
     <g id="text_13">
      <!-- 4000 -->
      <g transform="translate(32.062 261.282557)scale(0.1 -0.1)">
       <use xlink:href="#DejaVuSans-34"/>
       <use x="63.623047" xlink:href="#DejaVuSans-30"/>
       <use x="127.246094" xlink:href="#DejaVuSans-30"/>
       <use x="190.869141" xlink:href="#DejaVuSans-30"/>
      </g>
     </g>
    </g>
    <g id="ytick_4">
     <g id="line2d_13">
      <g>
       <use style="stroke:#000000;stroke-width:0.8;" x="64.512" xlink:href="#m1ca1101d6d" y="222.73586"/>
      </g>
     </g>
     <g id="text_14">
      <!-- 6000 -->
      <defs>
       <path d="M 33.015625 40.375 
Q 26.375 40.375 22.484375 35.828125 
Q 18.609375 31.296875 18.609375 23.390625 
Q 18.609375 15.53125 22.484375 10.953125 
Q 26.375 6.390625 33.015625 6.390625 
Q 39.65625 6.390625 43.53125 10.953125 
Q 47.40625 15.53125 47.40625 23.390625 
Q 47.40625 31.296875 43.53125 35.828125 
Q 39.65625 40.375 33.015625 40.375 
z
M 52.59375 71.296875 
L 52.59375 62.3125 
Q 48.875 64.0625 45.09375 64.984375 
Q 41.3125 65.921875 37.59375 65.921875 
Q 27.828125 65.921875 22.671875 59.328125 
Q 17.53125 52.734375 16.796875 39.40625 
Q 19.671875 43.65625 24.015625 45.921875 
Q 28.375 48.1875 33.59375 48.1875 
Q 44.578125 48.1875 50.953125 41.515625 
Q 57.328125 34.859375 57.328125 23.390625 
Q 57.328125 12.15625 50.6875 5.359375 
Q 44.046875 -1.421875 33.015625 -1.421875 
Q 20.359375 -1.421875 13.671875 8.265625 
Q 6.984375 17.96875 6.984375 36.375 
Q 6.984375 53.65625 15.1875 63.9375 
Q 23.390625 74.21875 37.203125 74.21875 
Q 40.921875 74.21875 44.703125 73.484375 
Q 48.484375 72.75 52.59375 71.296875 
z
" id="DejaVuSans-36"/>
      </defs>
      <g transform="translate(32.062 226.535079)scale(0.1 -0.1)">
       <use xlink:href="#DejaVuSans-36"/>
       <use x="63.623047" xlink:href="#DejaVuSans-30"/>
       <use x="127.246094" xlink:href="#DejaVuSans-30"/>
       <use x="190.869141" xlink:href="#DejaVuSans-30"/>
      </g>
     </g>
    </g>
    <g id="ytick_5">
     <g id="line2d_14">
      <g>
       <use style="stroke:#000000;stroke-width:0.8;" x="64.512" xlink:href="#m1ca1101d6d" y="187.988382"/>
      </g>
     </g>
     <g id="text_15">
      <!-- 8000 -->
      <defs>
       <path d="M 31.78125 34.625 
Q 24.75 34.625 20.71875 30.859375 
Q 16.703125 27.09375 16.703125 20.515625 
Q 16.703125 13.921875 20.71875 10.15625 
Q 24.75 6.390625 31.78125 6.390625 
Q 38.8125 6.390625 42.859375 10.171875 
Q 46.921875 13.96875 46.921875 20.515625 
Q 46.921875 27.09375 42.890625 30.859375 
Q 38.875 34.625 31.78125 34.625 
z
M 21.921875 38.8125 
Q 15.578125 40.375 12.03125 44.71875 
Q 8.5 49.078125 8.5 55.328125 
Q 8.5 64.0625 14.71875 69.140625 
Q 20.953125 74.21875 31.78125 74.21875 
Q 42.671875 74.21875 48.875 69.140625 
Q 55.078125 64.0625 55.078125 55.328125 
Q 55.078125 49.078125 51.53125 44.71875 
Q 48 40.375 41.703125 38.8125 
Q 48.828125 37.15625 52.796875 32.3125 
Q 56.78125 27.484375 56.78125 20.515625 
Q 56.78125 9.90625 50.3125 4.234375 
Q 43.84375 -1.421875 31.78125 -1.421875 
Q 19.734375 -1.421875 13.25 4.234375 
Q 6.78125 9.90625 6.78125 20.515625 
Q 6.78125 27.484375 10.78125 32.3125 
Q 14.796875 37.15625 21.921875 38.8125 
z
M 18.3125 54.390625 
Q 18.3125 48.734375 21.84375 45.5625 
Q 25.390625 42.390625 31.78125 42.390625 
Q 38.140625 42.390625 41.71875 45.5625 
Q 45.3125 48.734375 45.3125 54.390625 
Q 45.3125 60.0625 41.71875 63.234375 
Q 38.140625 66.40625 31.78125 66.40625 
Q 25.390625 66.40625 21.84375 63.234375 
Q 18.3125 60.0625 18.3125 54.390625 
z
" id="DejaVuSans-38"/>
      </defs>
      <g transform="translate(32.062 191.7876)scale(0.1 -0.1)">
       <use xlink:href="#DejaVuSans-38"/>
       <use x="63.623047" xlink:href="#DejaVuSans-30"/>
       <use x="127.246094" xlink:href="#DejaVuSans-30"/>
       <use x="190.869141" xlink:href="#DejaVuSans-30"/>
      </g>
     </g>
    </g>
    <g id="ytick_6">
     <g id="line2d_15">
      <g>
       <use style="stroke:#000000;stroke-width:0.8;" x="64.512" xlink:href="#m1ca1101d6d" y="153.240903"/>
      </g>
     </g>
     <g id="text_16">
      <!-- 10000 -->
      <g transform="translate(25.6995 157.040122)scale(0.1 -0.1)">
       <use xlink:href="#DejaVuSans-31"/>
       <use x="63.623047" xlink:href="#DejaVuSans-30"/>
       <use x="127.246094" xlink:href="#DejaVuSans-30"/>
       <use x="190.869141" xlink:href="#DejaVuSans-30"/>
       <use x="254.492188" xlink:href="#DejaVuSans-30"/>
      </g>
     </g>
    </g>
    <g id="ytick_7">
     <g id="line2d_16">
      <g>
       <use style="stroke:#000000;stroke-width:0.8;" x="64.512" xlink:href="#m1ca1101d6d" y="118.493425"/>
      </g>
     </g>
     <g id="text_17">
      <!-- 12000 -->
      <g transform="translate(25.6995 122.292644)scale(0.1 -0.1)">
       <use xlink:href="#DejaVuSans-31"/>
       <use x="63.623047" xlink:href="#DejaVuSans-32"/>
       <use x="127.246094" xlink:href="#DejaVuSans-30"/>
       <use x="190.869141" xlink:href="#DejaVuSans-30"/>
       <use x="254.492188" xlink:href="#DejaVuSans-30"/>
      </g>
     </g>
    </g>
    <g id="ytick_8">
     <g id="line2d_17">
      <g>
       <use style="stroke:#000000;stroke-width:0.8;" x="64.512" xlink:href="#m1ca1101d6d" y="83.745946"/>
      </g>
     </g>
     <g id="text_18">
      <!-- 14000 -->
      <g transform="translate(25.6995 87.545165)scale(0.1 -0.1)">
       <use xlink:href="#DejaVuSans-31"/>
       <use x="63.623047" xlink:href="#DejaVuSans-34"/>
       <use x="127.246094" xlink:href="#DejaVuSans-30"/>
       <use x="190.869141" xlink:href="#DejaVuSans-30"/>
       <use x="254.492188" xlink:href="#DejaVuSans-30"/>
      </g>
     </g>
    </g>
    <g id="text_19">
     <!-- Number of transactions -->
     <defs>
      <path d="M 9.8125 72.90625 
L 23.09375 72.90625 
L 55.421875 11.921875 
L 55.421875 72.90625 
L 64.984375 72.90625 
L 64.984375 0 
L 51.703125 0 
L 19.390625 60.984375 
L 19.390625 0 
L 9.8125 0 
z
" id="DejaVuSans-4e"/>
      <path d="M 8.5 21.578125 
L 8.5 54.6875 
L 17.484375 54.6875 
L 17.484375 21.921875 
Q 17.484375 14.15625 20.5 10.265625 
Q 23.53125 6.390625 29.59375 6.390625 
Q 36.859375 6.390625 41.078125 11.03125 
Q 45.3125 15.671875 45.3125 23.6875 
L 45.3125 54.6875 
L 54.296875 54.6875 
L 54.296875 0 
L 45.3125 0 
L 45.3125 8.40625 
Q 42.046875 3.421875 37.71875 1 
Q 33.40625 -1.421875 27.6875 -1.421875 
Q 18.265625 -1.421875 13.375 4.4375 
Q 8.5 10.296875 8.5 21.578125 
z
M 31.109375 56 
z
" id="DejaVuSans-75"/>
      <path d="M 48.6875 27.296875 
Q 48.6875 37.203125 44.609375 42.84375 
Q 40.53125 48.484375 33.40625 48.484375 
Q 26.265625 48.484375 22.1875 42.84375 
Q 18.109375 37.203125 18.109375 27.296875 
Q 18.109375 17.390625 22.1875 11.75 
Q 26.265625 6.109375 33.40625 6.109375 
Q 40.53125 6.109375 44.609375 11.75 
Q 48.6875 17.390625 48.6875 27.296875 
z
M 18.109375 46.390625 
Q 20.953125 51.265625 25.265625 53.625 
Q 29.59375 56 35.59375 56 
Q 45.5625 56 51.78125 48.09375 
Q 58.015625 40.1875 58.015625 27.296875 
Q 58.015625 14.40625 51.78125 6.484375 
Q 45.5625 -1.421875 35.59375 -1.421875 
Q 29.59375 -1.421875 25.265625 0.953125 
Q 20.953125 3.328125 18.109375 8.203125 
L 18.109375 0 
L 9.078125 0 
L 9.078125 75.984375 
L 18.109375 75.984375 
z
" id="DejaVuSans-62"/>
      <path d="M 41.109375 46.296875 
Q 39.59375 47.171875 37.8125 47.578125 
Q 36.03125 48 33.890625 48 
Q 26.265625 48 22.1875 43.046875 
Q 18.109375 38.09375 18.109375 28.8125 
L 18.109375 0 
L 9.078125 0 
L 9.078125 54.6875 
L 18.109375 54.6875 
L 18.109375 46.1875 
Q 20.953125 51.171875 25.484375 53.578125 
Q 30.03125 56 36.53125 56 
Q 37.453125 56 38.578125 55.875 
Q 39.703125 55.765625 41.0625 55.515625 
z
" id="DejaVuSans-72"/>
      <path d="M 37.109375 75.984375 
L 37.109375 68.5 
L 28.515625 68.5 
Q 23.6875 68.5 21.796875 66.546875 
Q 19.921875 64.59375 19.921875 59.515625 
L 19.921875 54.6875 
L 34.71875 54.6875 
L 34.71875 47.703125 
L 19.921875 47.703125 
L 19.921875 0 
L 10.890625 0 
L 10.890625 47.703125 
L 2.296875 47.703125 
L 2.296875 54.6875 
L 10.890625 54.6875 
L 10.890625 58.5 
Q 10.890625 67.625 15.140625 71.796875 
Q 19.390625 75.984375 28.609375 75.984375 
z
" id="DejaVuSans-66"/>
      <path d="M 18.3125 70.21875 
L 18.3125 54.6875 
L 36.8125 54.6875 
L 36.8125 47.703125 
L 18.3125 47.703125 
L 18.3125 18.015625 
Q 18.3125 11.328125 20.140625 9.421875 
Q 21.96875 7.515625 27.59375 7.515625 
L 36.8125 7.515625 
L 36.8125 0 
L 27.59375 0 
Q 17.1875 0 13.234375 3.875 
Q 9.28125 7.765625 9.28125 18.015625 
L 9.28125 47.703125 
L 2.6875 47.703125 
L 2.6875 54.6875 
L 9.28125 54.6875 
L 9.28125 70.21875 
z
" id="DejaVuSans-74"/>
      <path d="M 34.28125 27.484375 
Q 23.390625 27.484375 19.1875 25 
Q 14.984375 22.515625 14.984375 16.5 
Q 14.984375 11.71875 18.140625 8.90625 
Q 21.296875 6.109375 26.703125 6.109375 
Q 34.1875 6.109375 38.703125 11.40625 
Q 43.21875 16.703125 43.21875 25.484375 
L 43.21875 27.484375 
z
M 52.203125 31.203125 
L 52.203125 0 
L 43.21875 0 
L 43.21875 8.296875 
Q 40.140625 3.328125 35.546875 0.953125 
Q 30.953125 -1.421875 24.3125 -1.421875 
Q 15.921875 -1.421875 10.953125 3.296875 
Q 6 8.015625 6 15.921875 
Q 6 25.140625 12.171875 29.828125 
Q 18.359375 34.515625 30.609375 34.515625 
L 43.21875 34.515625 
L 43.21875 35.40625 
Q 43.21875 41.609375 39.140625 45 
Q 35.0625 48.390625 27.6875 48.390625 
Q 23 48.390625 18.546875 47.265625 
Q 14.109375 46.140625 10.015625 43.890625 
L 10.015625 52.203125 
Q 14.9375 54.109375 19.578125 55.046875 
Q 24.21875 56 28.609375 56 
Q 40.484375 56 46.34375 49.84375 
Q 52.203125 43.703125 52.203125 31.203125 
z
" id="DejaVuSans-61"/>
     </defs>
     <g transform="translate(19.619813 250.961979)rotate(-90)scale(0.1 -0.1)">
      <use xlink:href="#DejaVuSans-4e"/>
      <use x="74.804688" xlink:href="#DejaVuSans-75"/>
      <use x="138.183594" xlink:href="#DejaVuSans-6d"/>
      <use x="235.595703" xlink:href="#DejaVuSans-62"/>
      <use x="299.072266" xlink:href="#DejaVuSans-65"/>
      <use x="360.595703" xlink:href="#DejaVuSans-72"/>
      <use x="401.708984" xlink:href="#DejaVuSans-20"/>
      <use x="433.496094" xlink:href="#DejaVuSans-6f"/>
      <use x="494.677734" xlink:href="#DejaVuSans-66"/>
      <use x="529.882812" xlink:href="#DejaVuSans-20"/>
      <use x="561.669922" xlink:href="#DejaVuSans-74"/>
      <use x="600.878906" xlink:href="#DejaVuSans-72"/>
      <use x="641.992188" xlink:href="#DejaVuSans-61"/>
      <use x="703.271484" xlink:href="#DejaVuSans-6e"/>
      <use x="766.650391" xlink:href="#DejaVuSans-73"/>
      <use x="818.75" xlink:href="#DejaVuSans-61"/>
      <use x="880.029297" xlink:href="#DejaVuSans-63"/>
      <use x="935.009766" xlink:href="#DejaVuSans-74"/>
      <use x="974.21875" xlink:href="#DejaVuSans-69"/>
      <use x="1002.001953" xlink:href="#DejaVuSans-6f"/>
      <use x="1063.183594" xlink:href="#DejaVuSans-6e"/>
      <use x="1126.5625" xlink:href="#DejaVuSans-73"/>
     </g>
    </g>
   </g>
   <g id="patch_28">
    <path d="M 64.512 326.978296 
L 64.512 57.0816 
" style="fill:none;stroke:#000000;stroke-linecap:square;stroke-linejoin:miter;stroke-width:0.8;"/>
   </g>
   <g id="patch_29">
    <path d="M 458.87107 326.978296 
L 458.87107 57.0816 
" style="fill:none;stroke:#000000;stroke-linecap:square;stroke-linejoin:miter;stroke-width:0.8;"/>
   </g>
   <g id="patch_30">
    <path d="M 64.512 326.978296 
L 458.87107 326.978296 
" style="fill:none;stroke:#000000;stroke-linecap:square;stroke-linejoin:miter;stroke-width:0.8;"/>
   </g>
   <g id="patch_31">
    <path d="M 64.512 57.0816 
L 458.87107 57.0816 
" style="fill:none;stroke:#000000;stroke-linecap:square;stroke-linejoin:miter;stroke-width:0.8;"/>
   </g>
   <g id="text_20">
    <!-- Time to accept transactions -->
    <defs>
     <path d="M 18.109375 8.203125 
L 18.109375 -20.796875 
L 9.078125 -20.796875 
L 9.078125 54.6875 
L 18.109375 54.6875 
L 18.109375 46.390625 
Q 20.953125 51.265625 25.265625 53.625 
Q 29.59375 56 35.59375 56 
Q 45.5625 56 51.78125 48.09375 
Q 58.015625 40.1875 58.015625 27.296875 
Q 58.015625 14.40625 51.78125 6.484375 
Q 45.5625 -1.421875 35.59375 -1.421875 
Q 29.59375 -1.421875 25.265625 0.953125 
Q 20.953125 3.328125 18.109375 8.203125 
z
M 48.6875 27.296875 
Q 48.6875 37.203125 44.609375 42.84375 
Q 40.53125 48.484375 33.40625 48.484375 
Q 26.265625 48.484375 22.1875 42.84375 
Q 18.109375 37.203125 18.109375 27.296875 
Q 18.109375 17.390625 22.1875 11.75 
Q 26.265625 6.109375 33.40625 6.109375 
Q 40.53125 6.109375 44.609375 11.75 
Q 48.6875 17.390625 48.6875 27.296875 
z
" id="DejaVuSans-70"/>
    </defs>
    <g transform="translate(177.936222 51.0816)scale(0.12 -0.12)">
     <use xlink:href="#DejaVuSans-54"/>
     <use x="61.037109" xlink:href="#DejaVuSans-69"/>
     <use x="88.820312" xlink:href="#DejaVuSans-6d"/>
     <use x="186.232422" xlink:href="#DejaVuSans-65"/>
     <use x="247.755859" xlink:href="#DejaVuSans-20"/>
     <use x="279.542969" xlink:href="#DejaVuSans-74"/>
     <use x="318.751953" xlink:href="#DejaVuSans-6f"/>
     <use x="379.933594" xlink:href="#DejaVuSans-20"/>
     <use x="411.720703" xlink:href="#DejaVuSans-61"/>
     <use x="473" xlink:href="#DejaVuSans-63"/>
     <use x="527.980469" xlink:href="#DejaVuSans-63"/>
     <use x="582.960938" xlink:href="#DejaVuSans-65"/>
     <use x="644.484375" xlink:href="#DejaVuSans-70"/>
     <use x="707.960938" xlink:href="#DejaVuSans-74"/>
     <use x="747.169922" xlink:href="#DejaVuSans-20"/>
     <use x="778.957031" xlink:href="#DejaVuSans-74"/>
     <use x="818.166016" xlink:href="#DejaVuSans-72"/>
     <use x="859.279297" xlink:href="#DejaVuSans-61"/>
     <use x="920.558594" xlink:href="#DejaVuSans-6e"/>
     <use x="983.9375" xlink:href="#DejaVuSans-73"/>
     <use x="1036.037109" xlink:href="#DejaVuSans-61"/>
     <use x="1097.316406" xlink:href="#DejaVuSans-63"/>
     <use x="1152.296875" xlink:href="#DejaVuSans-74"/>
     <use x="1191.505859" xlink:href="#DejaVuSans-69"/>
     <use x="1219.289062" xlink:href="#DejaVuSans-6f"/>
     <use x="1280.470703" xlink:href="#DejaVuSans-6e"/>
     <use x="1343.849609" xlink:href="#DejaVuSans-73"/>
    </g>
   </g>
  </g>
  <g id="axes_2">
   <g id="patch_32">
    <path d="M 518.02493 326.978296 
L 912.384 326.978296 
L 912.384 57.0816 
L 518.02493 57.0816 
z
" style="fill:#ffffff;"/>
   </g>
   <g id="PathCollection_1">
    <defs>
     <path d="M 0 0.5 
C 0.132602 0.5 0.25979 0.447317 0.353553 0.353553 
C 0.447317 0.25979 0.5 0.132602 0.5 0 
C 0.5 -0.132602 0.447317 -0.25979 0.353553 -0.353553 
C 0.25979 -0.447317 0.132602 -0.5 0 -0.5 
C -0.132602 -0.5 -0.25979 -0.447317 -0.353553 -0.353553 
C -0.447317 -0.25979 -0.5 -0.132602 -0.5 0 
C -0.5 0.132602 -0.447317 0.25979 -0.353553 0.353553 
C -0.25979 0.447317 -0.132602 0.5 0 0.5 
z
" id="m582a6f80f5" style="stroke:#1f77b4;"/>
    </defs>
    <g clip-path="url(#pa0e18f2b58)">
     <use style="fill:#1f77b4;stroke:#1f77b4;" x="535.9971" xlink:href="#m582a6f80f5" y="159.995559"/>
     <use style="fill:#1f77b4;stroke:#1f77b4;" x="557.080319" xlink:href="#m582a6f80f5" y="69.350102"/>
     <use style="fill:#1f77b4;stroke:#1f77b4;" x="578.163539" xlink:href="#m582a6f80f5" y="72.197604"/>
     <use style="fill:#1f77b4;stroke:#1f77b4;" x="599.246758" xlink:href="#m582a6f80f5" y="163.159449"/>
     <use style="fill:#1f77b4;stroke:#1f77b4;" x="620.329978" xlink:href="#m582a6f80f5" y="174.074871"/>
     <use style="fill:#1f77b4;stroke:#1f77b4;" x="641.413197" xlink:href="#m582a6f80f5" y="168.063479"/>
     <use style="fill:#1f77b4;stroke:#1f77b4;" x="662.496416" xlink:href="#m582a6f80f5" y="130.096796"/>
     <use style="fill:#1f77b4;stroke:#1f77b4;" x="683.579636" xlink:href="#m582a6f80f5" y="206.188357"/>
     <use style="fill:#1f77b4;stroke:#1f77b4;" x="704.662855" xlink:href="#m582a6f80f5" y="240.99115"/>
     <use style="fill:#1f77b4;stroke:#1f77b4;" x="725.746075" xlink:href="#m582a6f80f5" y="71.090242"/>
     <use style="fill:#1f77b4;stroke:#1f77b4;" x="746.829294" xlink:href="#m582a6f80f5" y="95.610392"/>
     <use style="fill:#1f77b4;stroke:#1f77b4;" x="767.912514" xlink:href="#m582a6f80f5" y="124.401793"/>
     <use style="fill:#1f77b4;stroke:#1f77b4;" x="788.995733" xlink:href="#m582a6f80f5" y="232.606841"/>
     <use style="fill:#1f77b4;stroke:#1f77b4;" x="810.078953" xlink:href="#m582a6f80f5" y="79.474551"/>
     <use style="fill:#1f77b4;stroke:#1f77b4;" x="831.162172" xlink:href="#m582a6f80f5" y="314.709793"/>
     <use style="fill:#1f77b4;stroke:#1f77b4;" x="852.245392" xlink:href="#m582a6f80f5" y="314.709793"/>
     <use style="fill:#1f77b4;stroke:#1f77b4;" x="873.328611" xlink:href="#m582a6f80f5" y="314.709793"/>
     <use style="fill:#1f77b4;stroke:#1f77b4;" x="894.411831" xlink:href="#m582a6f80f5" y="314.709793"/>
    </g>
   </g>
   <g id="matplotlib.axis_3">
    <g id="xtick_10">
     <g id="line2d_18">
      <g>
       <use style="stroke:#000000;stroke-width:0.8;" x="535.9971" xlink:href="#m91b4fceedd" y="326.978296"/>
      </g>
     </g>
     <g id="text_21">
      <!-- 0.0 -->
      <g transform="translate(528.045537 341.576733)scale(0.1 -0.1)">
       <use xlink:href="#DejaVuSans-30"/>
       <use x="63.623047" xlink:href="#DejaVuSans-2e"/>
       <use x="95.410156" xlink:href="#DejaVuSans-30"/>
      </g>
     </g>
    </g>
    <g id="xtick_11">
     <g id="line2d_19">
      <g>
       <use style="stroke:#000000;stroke-width:0.8;" x="588.705148" xlink:href="#m91b4fceedd" y="326.978296"/>
      </g>
     </g>
     <g id="text_22">
      <!-- 2.5 -->
      <g transform="translate(580.753586 341.576733)scale(0.1 -0.1)">
       <use xlink:href="#DejaVuSans-32"/>
       <use x="63.623047" xlink:href="#DejaVuSans-2e"/>
       <use x="95.410156" xlink:href="#DejaVuSans-35"/>
      </g>
     </g>
    </g>
    <g id="xtick_12">
     <g id="line2d_20">
      <g>
       <use style="stroke:#000000;stroke-width:0.8;" x="641.413197" xlink:href="#m91b4fceedd" y="326.978296"/>
      </g>
     </g>
     <g id="text_23">
      <!-- 5.0 -->
      <g transform="translate(633.461634 341.576733)scale(0.1 -0.1)">
       <use xlink:href="#DejaVuSans-35"/>
       <use x="63.623047" xlink:href="#DejaVuSans-2e"/>
       <use x="95.410156" xlink:href="#DejaVuSans-30"/>
      </g>
     </g>
    </g>
    <g id="xtick_13">
     <g id="line2d_21">
      <g>
       <use style="stroke:#000000;stroke-width:0.8;" x="694.121246" xlink:href="#m91b4fceedd" y="326.978296"/>
      </g>
     </g>
     <g id="text_24">
      <!-- 7.5 -->
      <defs>
       <path d="M 8.203125 72.90625 
L 55.078125 72.90625 
L 55.078125 68.703125 
L 28.609375 0 
L 18.3125 0 
L 43.21875 64.59375 
L 8.203125 64.59375 
z
" id="DejaVuSans-37"/>
      </defs>
      <g transform="translate(686.169683 341.576733)scale(0.1 -0.1)">
       <use xlink:href="#DejaVuSans-37"/>
       <use x="63.623047" xlink:href="#DejaVuSans-2e"/>
       <use x="95.410156" xlink:href="#DejaVuSans-35"/>
      </g>
     </g>
    </g>
    <g id="xtick_14">
     <g id="line2d_22">
      <g>
       <use style="stroke:#000000;stroke-width:0.8;" x="746.829294" xlink:href="#m91b4fceedd" y="326.978296"/>
      </g>
     </g>
     <g id="text_25">
      <!-- 10.0 -->
      <g transform="translate(735.696482 341.576733)scale(0.1 -0.1)">
       <use xlink:href="#DejaVuSans-31"/>
       <use x="63.623047" xlink:href="#DejaVuSans-30"/>
       <use x="127.246094" xlink:href="#DejaVuSans-2e"/>
       <use x="159.033203" xlink:href="#DejaVuSans-30"/>
      </g>
     </g>
    </g>
    <g id="xtick_15">
     <g id="line2d_23">
      <g>
       <use style="stroke:#000000;stroke-width:0.8;" x="799.537343" xlink:href="#m91b4fceedd" y="326.978296"/>
      </g>
     </g>
     <g id="text_26">
      <!-- 12.5 -->
      <g transform="translate(788.40453 341.576733)scale(0.1 -0.1)">
       <use xlink:href="#DejaVuSans-31"/>
       <use x="63.623047" xlink:href="#DejaVuSans-32"/>
       <use x="127.246094" xlink:href="#DejaVuSans-2e"/>
       <use x="159.033203" xlink:href="#DejaVuSans-35"/>
      </g>
     </g>
    </g>
    <g id="xtick_16">
     <g id="line2d_24">
      <g>
       <use style="stroke:#000000;stroke-width:0.8;" x="852.245392" xlink:href="#m91b4fceedd" y="326.978296"/>
      </g>
     </g>
     <g id="text_27">
      <!-- 15.0 -->
      <g transform="translate(841.112579 341.576733)scale(0.1 -0.1)">
       <use xlink:href="#DejaVuSans-31"/>
       <use x="63.623047" xlink:href="#DejaVuSans-35"/>
       <use x="127.246094" xlink:href="#DejaVuSans-2e"/>
       <use x="159.033203" xlink:href="#DejaVuSans-30"/>
      </g>
     </g>
    </g>
    <g id="xtick_17">
     <g id="line2d_25">
      <g>
       <use style="stroke:#000000;stroke-width:0.8;" x="904.95344" xlink:href="#m91b4fceedd" y="326.978296"/>
      </g>
     </g>
     <g id="text_28">
      <!-- 17.5 -->
      <g transform="translate(893.820628 341.576733)scale(0.1 -0.1)">
       <use xlink:href="#DejaVuSans-31"/>
       <use x="63.623047" xlink:href="#DejaVuSans-37"/>
       <use x="127.246094" xlink:href="#DejaVuSans-2e"/>
       <use x="159.033203" xlink:href="#DejaVuSans-35"/>
      </g>
     </g>
    </g>
    <g id="text_29">
     <!-- Time (seconds) -->
     <g transform="translate(676.88884 355.254858)scale(0.1 -0.1)">
      <use xlink:href="#DejaVuSans-54"/>
      <use x="61.037109" xlink:href="#DejaVuSans-69"/>
      <use x="88.820312" xlink:href="#DejaVuSans-6d"/>
      <use x="186.232422" xlink:href="#DejaVuSans-65"/>
      <use x="247.755859" xlink:href="#DejaVuSans-20"/>
      <use x="279.542969" xlink:href="#DejaVuSans-28"/>
      <use x="318.556641" xlink:href="#DejaVuSans-73"/>
      <use x="370.65625" xlink:href="#DejaVuSans-65"/>
      <use x="432.179688" xlink:href="#DejaVuSans-63"/>
      <use x="487.160156" xlink:href="#DejaVuSans-6f"/>
      <use x="548.341797" xlink:href="#DejaVuSans-6e"/>
      <use x="611.720703" xlink:href="#DejaVuSans-64"/>
      <use x="675.197266" xlink:href="#DejaVuSans-73"/>
      <use x="727.296875" xlink:href="#DejaVuSans-29"/>
     </g>
    </g>
   </g>
   <g id="matplotlib.axis_4">
    <g id="ytick_9">
     <g id="line2d_26">
      <g>
       <use style="stroke:#000000;stroke-width:0.8;" x="518.02493" xlink:href="#m1ca1101d6d" y="314.709793"/>
      </g>
     </g>
     <g id="text_30">
      <!-- 0 -->
      <g transform="translate(504.66243 318.509012)scale(0.1 -0.1)">
       <use xlink:href="#DejaVuSans-30"/>
      </g>
     </g>
    </g>
    <g id="ytick_10">
     <g id="line2d_27">
      <g>
       <use style="stroke:#000000;stroke-width:0.8;" x="518.02493" xlink:href="#m1ca1101d6d" y="283.07089"/>
      </g>
     </g>
     <g id="text_31">
      <!-- 200 -->
      <g transform="translate(491.93743 286.870109)scale(0.1 -0.1)">
       <use xlink:href="#DejaVuSans-32"/>
       <use x="63.623047" xlink:href="#DejaVuSans-30"/>
       <use x="127.246094" xlink:href="#DejaVuSans-30"/>
      </g>
     </g>
    </g>
    <g id="ytick_11">
     <g id="line2d_28">
      <g>
       <use style="stroke:#000000;stroke-width:0.8;" x="518.02493" xlink:href="#m1ca1101d6d" y="251.431988"/>
      </g>
     </g>
     <g id="text_32">
      <!-- 400 -->
      <g transform="translate(491.93743 255.231206)scale(0.1 -0.1)">
       <use xlink:href="#DejaVuSans-34"/>
       <use x="63.623047" xlink:href="#DejaVuSans-30"/>
       <use x="127.246094" xlink:href="#DejaVuSans-30"/>
      </g>
     </g>
    </g>
    <g id="ytick_12">
     <g id="line2d_29">
      <g>
       <use style="stroke:#000000;stroke-width:0.8;" x="518.02493" xlink:href="#m1ca1101d6d" y="219.793085"/>
      </g>
     </g>
     <g id="text_33">
      <!-- 600 -->
      <g transform="translate(491.93743 223.592304)scale(0.1 -0.1)">
       <use xlink:href="#DejaVuSans-36"/>
       <use x="63.623047" xlink:href="#DejaVuSans-30"/>
       <use x="127.246094" xlink:href="#DejaVuSans-30"/>
      </g>
     </g>
    </g>
    <g id="ytick_13">
     <g id="line2d_30">
      <g>
       <use style="stroke:#000000;stroke-width:0.8;" x="518.02493" xlink:href="#m1ca1101d6d" y="188.154182"/>
      </g>
     </g>
     <g id="text_34">
      <!-- 800 -->
      <g transform="translate(491.93743 191.953401)scale(0.1 -0.1)">
       <use xlink:href="#DejaVuSans-38"/>
       <use x="63.623047" xlink:href="#DejaVuSans-30"/>
       <use x="127.246094" xlink:href="#DejaVuSans-30"/>
      </g>
     </g>
    </g>
    <g id="ytick_14">
     <g id="line2d_31">
      <g>
       <use style="stroke:#000000;stroke-width:0.8;" x="518.02493" xlink:href="#m1ca1101d6d" y="156.515279"/>
      </g>
     </g>
     <g id="text_35">
      <!-- 1000 -->
      <g transform="translate(485.57493 160.314498)scale(0.1 -0.1)">
       <use xlink:href="#DejaVuSans-31"/>
       <use x="63.623047" xlink:href="#DejaVuSans-30"/>
       <use x="127.246094" xlink:href="#DejaVuSans-30"/>
       <use x="190.869141" xlink:href="#DejaVuSans-30"/>
      </g>
     </g>
    </g>
    <g id="ytick_15">
     <g id="line2d_32">
      <g>
       <use style="stroke:#000000;stroke-width:0.8;" x="518.02493" xlink:href="#m1ca1101d6d" y="124.876377"/>
      </g>
     </g>
     <g id="text_36">
      <!-- 1200 -->
      <g transform="translate(485.57493 128.675596)scale(0.1 -0.1)">
       <use xlink:href="#DejaVuSans-31"/>
       <use x="63.623047" xlink:href="#DejaVuSans-32"/>
       <use x="127.246094" xlink:href="#DejaVuSans-30"/>
       <use x="190.869141" xlink:href="#DejaVuSans-30"/>
      </g>
     </g>
    </g>
    <g id="ytick_16">
     <g id="line2d_33">
      <g>
       <use style="stroke:#000000;stroke-width:0.8;" x="518.02493" xlink:href="#m1ca1101d6d" y="93.237474"/>
      </g>
     </g>
     <g id="text_37">
      <!-- 1400 -->
      <g transform="translate(485.57493 97.036693)scale(0.1 -0.1)">
       <use xlink:href="#DejaVuSans-31"/>
       <use x="63.623047" xlink:href="#DejaVuSans-34"/>
       <use x="127.246094" xlink:href="#DejaVuSans-30"/>
       <use x="190.869141" xlink:href="#DejaVuSans-30"/>
      </g>
     </g>
    </g>
    <g id="ytick_17">
     <g id="line2d_34">
      <g>
       <use style="stroke:#000000;stroke-width:0.8;" x="518.02493" xlink:href="#m1ca1101d6d" y="61.598571"/>
      </g>
     </g>
     <g id="text_38">
      <!-- 1600 -->
      <g transform="translate(485.57493 65.39779)scale(0.1 -0.1)">
       <use xlink:href="#DejaVuSans-31"/>
       <use x="63.623047" xlink:href="#DejaVuSans-36"/>
       <use x="127.246094" xlink:href="#DejaVuSans-30"/>
       <use x="190.869141" xlink:href="#DejaVuSans-30"/>
      </g>
     </g>
    </g>
    <g id="text_39">
     <!-- Amount -->
     <defs>
      <path d="M 34.1875 63.1875 
L 20.796875 26.90625 
L 47.609375 26.90625 
z
M 28.609375 72.90625 
L 39.796875 72.90625 
L 67.578125 0 
L 57.328125 0 
L 50.6875 18.703125 
L 17.828125 18.703125 
L 11.1875 0 
L 0.78125 0 
z
" id="DejaVuSans-41"/>
     </defs>
     <g transform="translate(479.495243 211.677604)rotate(-90)scale(0.1 -0.1)">
      <use xlink:href="#DejaVuSans-41"/>
      <use x="68.408203" xlink:href="#DejaVuSans-6d"/>
      <use x="165.820312" xlink:href="#DejaVuSans-6f"/>
      <use x="227.001953" xlink:href="#DejaVuSans-75"/>
      <use x="290.380859" xlink:href="#DejaVuSans-6e"/>
      <use x="353.759766" xlink:href="#DejaVuSans-74"/>
     </g>
    </g>
   </g>
   <g id="patch_33">
    <path d="M 518.02493 326.978296 
L 518.02493 57.0816 
" style="fill:none;stroke:#000000;stroke-linecap:square;stroke-linejoin:miter;stroke-width:0.8;"/>
   </g>
   <g id="patch_34">
    <path d="M 912.384 326.978296 
L 912.384 57.0816 
" style="fill:none;stroke:#000000;stroke-linecap:square;stroke-linejoin:miter;stroke-width:0.8;"/>
   </g>
   <g id="patch_35">
    <path d="M 518.02493 326.978296 
L 912.384 326.978296 
" style="fill:none;stroke:#000000;stroke-linecap:square;stroke-linejoin:miter;stroke-width:0.8;"/>
   </g>
   <g id="patch_36">
    <path d="M 518.02493 57.0816 
L 912.384 57.0816 
" style="fill:none;stroke:#000000;stroke-linecap:square;stroke-linejoin:miter;stroke-width:0.8;"/>
   </g>
   <g id="text_40">
    <g id="patch_37">
     <path d="M 535.9971 302.490342 
L 656.7396 302.490342 
Q 660.3396 302.490342 660.3396 298.890342 
L 660.3396 273.839217 
Q 660.3396 270.239217 656.7396 270.239217 
L 535.9971 270.239217 
Q 532.3971 270.239217 532.3971 273.839217 
L 532.3971 298.890342 
Q 532.3971 302.490342 535.9971 302.490342 
z
" style="fill:#ffffff;opacity:0.9;stroke:#808080;stroke-linejoin:miter;"/>
    </g>
    <!-- median: 1072.0 tx/s -->
    <defs>
     <path d="M 11.71875 12.40625 
L 22.015625 12.40625 
L 22.015625 0 
L 11.71875 0 
z
M 11.71875 51.703125 
L 22.015625 51.703125 
L 22.015625 39.3125 
L 11.71875 39.3125 
z
" id="DejaVuSans-3a"/>
     <path d="M 54.890625 54.6875 
L 35.109375 28.078125 
L 55.90625 0 
L 45.3125 0 
L 29.390625 21.484375 
L 13.484375 0 
L 2.875 0 
L 24.125 28.609375 
L 4.6875 54.6875 
L 15.28125 54.6875 
L 29.78125 35.203125 
L 44.28125 54.6875 
z
" id="DejaVuSans-78"/>
     <path d="M 25.390625 72.90625 
L 33.6875 72.90625 
L 8.296875 -9.28125 
L 0 -9.28125 
z
" id="DejaVuSans-2f"/>
    </defs>
    <g transform="translate(535.9971 282.957342)scale(0.12 -0.12)">
     <use xlink:href="#DejaVuSans-6d"/>
     <use x="97.412109" xlink:href="#DejaVuSans-65"/>
     <use x="158.935547" xlink:href="#DejaVuSans-64"/>
     <use x="222.412109" xlink:href="#DejaVuSans-69"/>
     <use x="250.195312" xlink:href="#DejaVuSans-61"/>
     <use x="311.474609" xlink:href="#DejaVuSans-6e"/>
     <use x="374.853516" xlink:href="#DejaVuSans-3a"/>
     <use x="408.544922" xlink:href="#DejaVuSans-20"/>
     <use x="440.332031" xlink:href="#DejaVuSans-31"/>
     <use x="503.955078" xlink:href="#DejaVuSans-30"/>
     <use x="567.578125" xlink:href="#DejaVuSans-37"/>
     <use x="631.201172" xlink:href="#DejaVuSans-32"/>
     <use x="694.824219" xlink:href="#DejaVuSans-2e"/>
     <use x="726.611328" xlink:href="#DejaVuSans-30"/>
     <use x="790.234375" xlink:href="#DejaVuSans-20"/>
     <use x="822.021484" xlink:href="#DejaVuSans-74"/>
     <use x="861.230469" xlink:href="#DejaVuSans-78"/>
     <use x="920.410156" xlink:href="#DejaVuSans-2f"/>
     <use x="954.101562" xlink:href="#DejaVuSans-73"/>
    </g>
    <!-- mean: 1092.0 tx/s -->
    <defs>
     <path d="M 10.984375 1.515625 
L 10.984375 10.5 
Q 14.703125 8.734375 18.5 7.8125 
Q 22.3125 6.890625 25.984375 6.890625 
Q 35.75 6.890625 40.890625 13.453125 
Q 46.046875 20.015625 46.78125 33.40625 
Q 43.953125 29.203125 39.59375 26.953125 
Q 35.25 24.703125 29.984375 24.703125 
Q 19.046875 24.703125 12.671875 31.3125 
Q 6.296875 37.9375 6.296875 49.421875 
Q 6.296875 60.640625 12.9375 67.421875 
Q 19.578125 74.21875 30.609375 74.21875 
Q 43.265625 74.21875 49.921875 64.515625 
Q 56.59375 54.828125 56.59375 36.375 
Q 56.59375 19.140625 48.40625 8.859375 
Q 40.234375 -1.421875 26.421875 -1.421875 
Q 22.703125 -1.421875 18.890625 -0.6875 
Q 15.09375 0.046875 10.984375 1.515625 
z
M 30.609375 32.421875 
Q 37.25 32.421875 41.125 36.953125 
Q 45.015625 41.5 45.015625 49.421875 
Q 45.015625 57.28125 41.125 61.84375 
Q 37.25 66.40625 30.609375 66.40625 
Q 23.96875 66.40625 20.09375 61.84375 
Q 16.21875 57.28125 16.21875 49.421875 
Q 16.21875 41.5 20.09375 36.953125 
Q 23.96875 32.421875 30.609375 32.421875 
z
" id="DejaVuSans-39"/>
    </defs>
    <g transform="translate(535.9971 296.394717)scale(0.12 -0.12)">
     <use xlink:href="#DejaVuSans-6d"/>
     <use x="97.412109" xlink:href="#DejaVuSans-65"/>
     <use x="158.935547" xlink:href="#DejaVuSans-61"/>
     <use x="220.214844" xlink:href="#DejaVuSans-6e"/>
     <use x="283.59375" xlink:href="#DejaVuSans-3a"/>
     <use x="317.285156" xlink:href="#DejaVuSans-20"/>
     <use x="349.072266" xlink:href="#DejaVuSans-31"/>
     <use x="412.695312" xlink:href="#DejaVuSans-30"/>
     <use x="476.318359" xlink:href="#DejaVuSans-39"/>
     <use x="539.941406" xlink:href="#DejaVuSans-32"/>
     <use x="603.564453" xlink:href="#DejaVuSans-2e"/>
     <use x="635.351562" xlink:href="#DejaVuSans-30"/>
     <use x="698.974609" xlink:href="#DejaVuSans-20"/>
     <use x="730.761719" xlink:href="#DejaVuSans-74"/>
     <use x="769.970703" xlink:href="#DejaVuSans-78"/>
     <use x="829.150391" xlink:href="#DejaVuSans-2f"/>
     <use x="862.841797" xlink:href="#DejaVuSans-73"/>
    </g>
   </g>
   <g id="text_41">
    <!-- Accepted transactions per second -->
    <g transform="translate(613.043215 51.0816)scale(0.12 -0.12)">
     <use xlink:href="#DejaVuSans-41"/>
     <use x="68.392578" xlink:href="#DejaVuSans-63"/>
     <use x="123.373047" xlink:href="#DejaVuSans-63"/>
     <use x="178.353516" xlink:href="#DejaVuSans-65"/>
     <use x="239.876953" xlink:href="#DejaVuSans-70"/>
     <use x="303.353516" xlink:href="#DejaVuSans-74"/>
     <use x="342.5625" xlink:href="#DejaVuSans-65"/>
     <use x="404.085938" xlink:href="#DejaVuSans-64"/>
     <use x="467.5625" xlink:href="#DejaVuSans-20"/>
     <use x="499.349609" xlink:href="#DejaVuSans-74"/>
     <use x="538.558594" xlink:href="#DejaVuSans-72"/>
     <use x="579.671875" xlink:href="#DejaVuSans-61"/>
     <use x="640.951172" xlink:href="#DejaVuSans-6e"/>
     <use x="704.330078" xlink:href="#DejaVuSans-73"/>
     <use x="756.429688" xlink:href="#DejaVuSans-61"/>
     <use x="817.708984" xlink:href="#DejaVuSans-63"/>
     <use x="872.689453" xlink:href="#DejaVuSans-74"/>
     <use x="911.898438" xlink:href="#DejaVuSans-69"/>
     <use x="939.681641" xlink:href="#DejaVuSans-6f"/>
     <use x="1000.863281" xlink:href="#DejaVuSans-6e"/>
     <use x="1064.242188" xlink:href="#DejaVuSans-73"/>
     <use x="1116.341797" xlink:href="#DejaVuSans-20"/>
     <use x="1148.128906" xlink:href="#DejaVuSans-70"/>
     <use x="1211.605469" xlink:href="#DejaVuSans-65"/>
     <use x="1273.128906" xlink:href="#DejaVuSans-72"/>
     <use x="1314.242188" xlink:href="#DejaVuSans-20"/>
     <use x="1346.029297" xlink:href="#DejaVuSans-73"/>
     <use x="1398.128906" xlink:href="#DejaVuSans-65"/>
     <use x="1459.652344" xlink:href="#DejaVuSans-63"/>
     <use x="1514.632812" xlink:href="#DejaVuSans-6f"/>
     <use x="1575.814453" xlink:href="#DejaVuSans-6e"/>
     <use x="1639.193359" xlink:href="#DejaVuSans-64"/>
    </g>
   </g>
  </g>
  <g id="axes_3">
   <g id="patch_38">
    <path d="M 64.512 677.844 
L 458.87107 677.844 
L 458.87107 407.947304 
L 64.512 407.947304 
z
" style="fill:#ffffff;"/>
   </g>
   <g id="patch_39">
    <path clip-path="url(#p7aae9e5329)" d="M 82.437412 677.844 
L 96.777742 677.844 
L 96.777742 677.792103 
L 82.437412 677.792103 
z
" style="fill:#1f77b4;"/>
   </g>
   <g id="patch_40">
    <path clip-path="url(#p7aae9e5329)" d="M 96.777742 677.844 
L 111.118072 677.844 
L 111.118072 677.844 
L 96.777742 677.844 
z
" style="fill:#1f77b4;"/>
   </g>
   <g id="patch_41">
    <path clip-path="url(#p7aae9e5329)" d="M 111.118072 677.844 
L 125.458402 677.844 
L 125.458402 677.844 
L 111.118072 677.844 
z
" style="fill:#1f77b4;"/>
   </g>
   <g id="patch_42">
    <path clip-path="url(#p7aae9e5329)" d="M 125.458402 677.844 
L 139.798732 677.844 
L 139.798732 677.844 
L 125.458402 677.844 
z
" style="fill:#1f77b4;"/>
   </g>
   <g id="patch_43">
    <path clip-path="url(#p7aae9e5329)" d="M 139.798732 677.844 
L 154.139061 677.844 
L 154.139061 677.844 
L 139.798732 677.844 
z
" style="fill:#1f77b4;"/>
   </g>
   <g id="patch_44">
    <path clip-path="url(#p7aae9e5329)" d="M 154.139061 677.844 
L 168.479391 677.844 
L 168.479391 677.740207 
L 154.139061 677.740207 
z
" style="fill:#1f77b4;"/>
   </g>
   <g id="patch_45">
    <path clip-path="url(#p7aae9e5329)" d="M 168.479391 677.844 
L 182.819721 677.844 
L 182.819721 673.277088 
L 168.479391 673.277088 
z
" style="fill:#1f77b4;"/>
   </g>
   <g id="patch_46">
    <path clip-path="url(#p7aae9e5329)" d="M 182.819721 677.844 
L 197.160051 677.844 
L 197.160051 616.917246 
L 182.819721 616.917246 
z
" style="fill:#1f77b4;"/>
   </g>
   <g id="patch_47">
    <path clip-path="url(#p7aae9e5329)" d="M 197.160051 677.844 
L 211.500381 677.844 
L 211.500381 663.520504 
L 197.160051 663.520504 
z
" style="fill:#1f77b4;"/>
   </g>
   <g id="patch_48">
    <path clip-path="url(#p7aae9e5329)" d="M 211.500381 677.844 
L 225.84071 677.844 
L 225.84071 643.592162 
L 211.500381 643.592162 
z
" style="fill:#1f77b4;"/>
   </g>
   <g id="patch_49">
    <path clip-path="url(#p7aae9e5329)" d="M 225.84071 677.844 
L 240.18104 677.844 
L 240.18104 615.256551 
L 225.84071 615.256551 
z
" style="fill:#1f77b4;"/>
   </g>
   <g id="patch_50">
    <path clip-path="url(#p7aae9e5329)" d="M 240.18104 677.844 
L 254.52137 677.844 
L 254.52137 578.461774 
L 240.18104 578.461774 
z
" style="fill:#1f77b4;"/>
   </g>
   <g id="patch_51">
    <path clip-path="url(#p7aae9e5329)" d="M 254.52137 677.844 
L 268.8617 677.844 
L 268.8617 420.799528 
L 254.52137 420.799528 
z
" style="fill:#1f77b4;"/>
   </g>
   <g id="patch_52">
    <path clip-path="url(#p7aae9e5329)" d="M 268.8617 677.844 
L 283.20203 677.844 
L 283.20203 666.219134 
L 268.8617 666.219134 
z
" style="fill:#1f77b4;"/>
   </g>
   <g id="patch_53">
    <path clip-path="url(#p7aae9e5329)" d="M 283.20203 677.844 
L 297.542359 677.844 
L 297.542359 664.506542 
L 283.20203 664.506542 
z
" style="fill:#1f77b4;"/>
   </g>
   <g id="patch_54">
    <path clip-path="url(#p7aae9e5329)" d="M 297.542359 677.844 
L 311.882689 677.844 
L 311.882689 661.704119 
L 297.542359 661.704119 
z
" style="fill:#1f77b4;"/>
   </g>
   <g id="patch_55">
    <path clip-path="url(#p7aae9e5329)" d="M 311.882689 677.844 
L 326.223019 677.844 
L 326.223019 624.234685 
L 311.882689 624.234685 
z
" style="fill:#1f77b4;"/>
   </g>
   <g id="patch_56">
    <path clip-path="url(#p7aae9e5329)" d="M 326.223019 677.844 
L 340.563349 677.844 
L 340.563349 644.370613 
L 326.223019 644.370613 
z
" style="fill:#1f77b4;"/>
   </g>
   <g id="patch_57">
    <path clip-path="url(#p7aae9e5329)" d="M 340.563349 677.844 
L 354.903679 677.844 
L 354.903679 646.757863 
L 340.563349 646.757863 
z
" style="fill:#1f77b4;"/>
   </g>
   <g id="patch_58">
    <path clip-path="url(#p7aae9e5329)" d="M 354.903679 677.844 
L 369.244008 677.844 
L 369.244008 653.400643 
L 354.903679 653.400643 
z
" style="fill:#1f77b4;"/>
   </g>
   <g id="patch_59">
    <path clip-path="url(#p7aae9e5329)" d="M 369.244008 677.844 
L 383.584338 677.844 
L 383.584338 649.248905 
L 369.244008 649.248905 
z
" style="fill:#1f77b4;"/>
   </g>
   <g id="patch_60">
    <path clip-path="url(#p7aae9e5329)" d="M 383.584338 677.844 
L 397.924668 677.844 
L 397.924668 629.787634 
L 383.584338 629.787634 
z
" style="fill:#1f77b4;"/>
   </g>
   <g id="patch_61">
    <path clip-path="url(#p7aae9e5329)" d="M 397.924668 677.844 
L 412.264998 677.844 
L 412.264998 652.362709 
L 397.924668 652.362709 
z
" style="fill:#1f77b4;"/>
   </g>
   <g id="patch_62">
    <path clip-path="url(#p7aae9e5329)" d="M 412.264998 677.844 
L 426.605328 677.844 
L 426.605328 667.464655 
L 412.264998 667.464655 
z
" style="fill:#1f77b4;"/>
   </g>
   <g id="patch_63">
    <path clip-path="url(#p7aae9e5329)" d="M 426.605328 677.844 
L 440.945658 677.844 
L 440.945658 676.961756 
L 426.605328 676.961756 
z
" style="fill:#1f77b4;"/>
   </g>
   <g id="matplotlib.axis_5">
    <g id="xtick_18">
     <g id="line2d_35">
      <g>
       <use style="stroke:#000000;stroke-width:0.8;" x="128.835641" xlink:href="#m91b4fceedd" y="677.844"/>
      </g>
     </g>
     <g id="text_42">
      <!-- 1 -->
      <g transform="translate(125.654391 692.442437)scale(0.1 -0.1)">
       <use xlink:href="#DejaVuSans-31"/>
      </g>
     </g>
    </g>
    <g id="xtick_19">
     <g id="line2d_36">
      <g>
       <use style="stroke:#000000;stroke-width:0.8;" x="215.077701" xlink:href="#m91b4fceedd" y="677.844"/>
      </g>
     </g>
     <g id="text_43">
      <!-- 2 -->
      <g transform="translate(211.896451 692.442437)scale(0.1 -0.1)">
       <use xlink:href="#DejaVuSans-32"/>
      </g>
     </g>
    </g>
    <g id="xtick_20">
     <g id="line2d_37">
      <g>
       <use style="stroke:#000000;stroke-width:0.8;" x="301.319762" xlink:href="#m91b4fceedd" y="677.844"/>
      </g>
     </g>
     <g id="text_44">
      <!-- 3 -->
      <g transform="translate(298.138512 692.442437)scale(0.1 -0.1)">
       <use xlink:href="#DejaVuSans-33"/>
      </g>
     </g>
    </g>
    <g id="xtick_21">
     <g id="line2d_38">
      <g>
       <use style="stroke:#000000;stroke-width:0.8;" x="387.561822" xlink:href="#m91b4fceedd" y="677.844"/>
      </g>
     </g>
     <g id="text_45">
      <!-- 4 -->
      <g transform="translate(384.380572 692.442437)scale(0.1 -0.1)">
       <use xlink:href="#DejaVuSans-34"/>
      </g>
     </g>
    </g>
    <g id="text_46">
     <!-- Time (seconds) -->
     <g transform="translate(223.37591 706.120563)scale(0.1 -0.1)">
      <use xlink:href="#DejaVuSans-54"/>
      <use x="61.037109" xlink:href="#DejaVuSans-69"/>
      <use x="88.820312" xlink:href="#DejaVuSans-6d"/>
      <use x="186.232422" xlink:href="#DejaVuSans-65"/>
      <use x="247.755859" xlink:href="#DejaVuSans-20"/>
      <use x="279.542969" xlink:href="#DejaVuSans-28"/>
      <use x="318.556641" xlink:href="#DejaVuSans-73"/>
      <use x="370.65625" xlink:href="#DejaVuSans-65"/>
      <use x="432.179688" xlink:href="#DejaVuSans-63"/>
      <use x="487.160156" xlink:href="#DejaVuSans-6f"/>
      <use x="548.341797" xlink:href="#DejaVuSans-6e"/>
      <use x="611.720703" xlink:href="#DejaVuSans-64"/>
      <use x="675.197266" xlink:href="#DejaVuSans-73"/>
      <use x="727.296875" xlink:href="#DejaVuSans-29"/>
     </g>
    </g>
   </g>
   <g id="matplotlib.axis_6">
    <g id="ytick_18">
     <g id="line2d_39">
      <g>
       <use style="stroke:#000000;stroke-width:0.8;" x="64.512" xlink:href="#m1ca1101d6d" y="677.844"/>
      </g>
     </g>
     <g id="text_47">
      <!-- 0 -->
      <g transform="translate(51.1495 681.643219)scale(0.1 -0.1)">
       <use xlink:href="#DejaVuSans-30"/>
      </g>
     </g>
    </g>
    <g id="ytick_19">
     <g id="line2d_40">
      <g>
       <use style="stroke:#000000;stroke-width:0.8;" x="64.512" xlink:href="#m1ca1101d6d" y="625.947276"/>
      </g>
     </g>
     <g id="text_48">
      <!-- 1000 -->
      <g transform="translate(32.062 629.746495)scale(0.1 -0.1)">
       <use xlink:href="#DejaVuSans-31"/>
       <use x="63.623047" xlink:href="#DejaVuSans-30"/>
       <use x="127.246094" xlink:href="#DejaVuSans-30"/>
       <use x="190.869141" xlink:href="#DejaVuSans-30"/>
      </g>
     </g>
    </g>
    <g id="ytick_20">
     <g id="line2d_41">
      <g>
       <use style="stroke:#000000;stroke-width:0.8;" x="64.512" xlink:href="#m1ca1101d6d" y="574.050553"/>
      </g>
     </g>
     <g id="text_49">
      <!-- 2000 -->
      <g transform="translate(32.062 577.849772)scale(0.1 -0.1)">
       <use xlink:href="#DejaVuSans-32"/>
       <use x="63.623047" xlink:href="#DejaVuSans-30"/>
       <use x="127.246094" xlink:href="#DejaVuSans-30"/>
       <use x="190.869141" xlink:href="#DejaVuSans-30"/>
      </g>
     </g>
    </g>
    <g id="ytick_21">
     <g id="line2d_42">
      <g>
       <use style="stroke:#000000;stroke-width:0.8;" x="64.512" xlink:href="#m1ca1101d6d" y="522.153829"/>
      </g>
     </g>
     <g id="text_50">
      <!-- 3000 -->
      <g transform="translate(32.062 525.953048)scale(0.1 -0.1)">
       <use xlink:href="#DejaVuSans-33"/>
       <use x="63.623047" xlink:href="#DejaVuSans-30"/>
       <use x="127.246094" xlink:href="#DejaVuSans-30"/>
       <use x="190.869141" xlink:href="#DejaVuSans-30"/>
      </g>
     </g>
    </g>
    <g id="ytick_22">
     <g id="line2d_43">
      <g>
       <use style="stroke:#000000;stroke-width:0.8;" x="64.512" xlink:href="#m1ca1101d6d" y="470.257106"/>
      </g>
     </g>
     <g id="text_51">
      <!-- 4000 -->
      <g transform="translate(32.062 474.056324)scale(0.1 -0.1)">
       <use xlink:href="#DejaVuSans-34"/>
       <use x="63.623047" xlink:href="#DejaVuSans-30"/>
       <use x="127.246094" xlink:href="#DejaVuSans-30"/>
       <use x="190.869141" xlink:href="#DejaVuSans-30"/>
      </g>
     </g>
    </g>
    <g id="ytick_23">
     <g id="line2d_44">
      <g>
       <use style="stroke:#000000;stroke-width:0.8;" x="64.512" xlink:href="#m1ca1101d6d" y="418.360382"/>
      </g>
     </g>
     <g id="text_52">
      <!-- 5000 -->
      <g transform="translate(32.062 422.159601)scale(0.1 -0.1)">
       <use xlink:href="#DejaVuSans-35"/>
       <use x="63.623047" xlink:href="#DejaVuSans-30"/>
       <use x="127.246094" xlink:href="#DejaVuSans-30"/>
       <use x="190.869141" xlink:href="#DejaVuSans-30"/>
      </g>
     </g>
    </g>
    <g id="text_53">
     <!-- Number of transactions -->
     <g transform="translate(25.982313 601.827683)rotate(-90)scale(0.1 -0.1)">
      <use xlink:href="#DejaVuSans-4e"/>
      <use x="74.804688" xlink:href="#DejaVuSans-75"/>
      <use x="138.183594" xlink:href="#DejaVuSans-6d"/>
      <use x="235.595703" xlink:href="#DejaVuSans-62"/>
      <use x="299.072266" xlink:href="#DejaVuSans-65"/>
      <use x="360.595703" xlink:href="#DejaVuSans-72"/>
      <use x="401.708984" xlink:href="#DejaVuSans-20"/>
      <use x="433.496094" xlink:href="#DejaVuSans-6f"/>
      <use x="494.677734" xlink:href="#DejaVuSans-66"/>
      <use x="529.882812" xlink:href="#DejaVuSans-20"/>
      <use x="561.669922" xlink:href="#DejaVuSans-74"/>
      <use x="600.878906" xlink:href="#DejaVuSans-72"/>
      <use x="641.992188" xlink:href="#DejaVuSans-61"/>
      <use x="703.271484" xlink:href="#DejaVuSans-6e"/>
      <use x="766.650391" xlink:href="#DejaVuSans-73"/>
      <use x="818.75" xlink:href="#DejaVuSans-61"/>
      <use x="880.029297" xlink:href="#DejaVuSans-63"/>
      <use x="935.009766" xlink:href="#DejaVuSans-74"/>
      <use x="974.21875" xlink:href="#DejaVuSans-69"/>
      <use x="1002.001953" xlink:href="#DejaVuSans-6f"/>
      <use x="1063.183594" xlink:href="#DejaVuSans-6e"/>
      <use x="1126.5625" xlink:href="#DejaVuSans-73"/>
     </g>
    </g>
   </g>
   <g id="patch_64">
    <path d="M 64.512 677.844 
L 64.512 407.947304 
" style="fill:none;stroke:#000000;stroke-linecap:square;stroke-linejoin:miter;stroke-width:0.8;"/>
   </g>
   <g id="patch_65">
    <path d="M 458.87107 677.844 
L 458.87107 407.947304 
" style="fill:none;stroke:#000000;stroke-linecap:square;stroke-linejoin:miter;stroke-width:0.8;"/>
   </g>
   <g id="patch_66">
    <path d="M 64.512 677.844 
L 458.87107 677.844 
" style="fill:none;stroke:#000000;stroke-linecap:square;stroke-linejoin:miter;stroke-width:0.8;"/>
   </g>
   <g id="patch_67">
    <path d="M 64.512 407.947304 
L 458.87107 407.947304 
" style="fill:none;stroke:#000000;stroke-linecap:square;stroke-linejoin:miter;stroke-width:0.8;"/>
   </g>
   <g id="text_54">
    <!-- Time to finalize transactions -->
    <defs>
     <path d="M 9.421875 75.984375 
L 18.40625 75.984375 
L 18.40625 0 
L 9.421875 0 
z
" id="DejaVuSans-6c"/>
     <path d="M 5.515625 54.6875 
L 48.1875 54.6875 
L 48.1875 46.484375 
L 14.40625 7.171875 
L 48.1875 7.171875 
L 48.1875 0 
L 4.296875 0 
L 4.296875 8.203125 
L 38.09375 47.515625 
L 5.515625 47.515625 
z
" id="DejaVuSans-7a"/>
    </defs>
    <g transform="translate(176.631222 401.947304)scale(0.12 -0.12)">
     <use xlink:href="#DejaVuSans-54"/>
     <use x="61.037109" xlink:href="#DejaVuSans-69"/>
     <use x="88.820312" xlink:href="#DejaVuSans-6d"/>
     <use x="186.232422" xlink:href="#DejaVuSans-65"/>
     <use x="247.755859" xlink:href="#DejaVuSans-20"/>
     <use x="279.542969" xlink:href="#DejaVuSans-74"/>
     <use x="318.751953" xlink:href="#DejaVuSans-6f"/>
     <use x="379.933594" xlink:href="#DejaVuSans-20"/>
     <use x="411.720703" xlink:href="#DejaVuSans-66"/>
     <use x="446.925781" xlink:href="#DejaVuSans-69"/>
     <use x="474.708984" xlink:href="#DejaVuSans-6e"/>
     <use x="538.087891" xlink:href="#DejaVuSans-61"/>
     <use x="599.367188" xlink:href="#DejaVuSans-6c"/>
     <use x="627.150391" xlink:href="#DejaVuSans-69"/>
     <use x="654.933594" xlink:href="#DejaVuSans-7a"/>
     <use x="707.423828" xlink:href="#DejaVuSans-65"/>
     <use x="768.947266" xlink:href="#DejaVuSans-20"/>
     <use x="800.734375" xlink:href="#DejaVuSans-74"/>
     <use x="839.943359" xlink:href="#DejaVuSans-72"/>
     <use x="881.056641" xlink:href="#DejaVuSans-61"/>
     <use x="942.335938" xlink:href="#DejaVuSans-6e"/>
     <use x="1005.714844" xlink:href="#DejaVuSans-73"/>
     <use x="1057.814453" xlink:href="#DejaVuSans-61"/>
     <use x="1119.09375" xlink:href="#DejaVuSans-63"/>
     <use x="1174.074219" xlink:href="#DejaVuSans-74"/>
     <use x="1213.283203" xlink:href="#DejaVuSans-69"/>
     <use x="1241.066406" xlink:href="#DejaVuSans-6f"/>
     <use x="1302.248047" xlink:href="#DejaVuSans-6e"/>
     <use x="1365.626953" xlink:href="#DejaVuSans-73"/>
    </g>
   </g>
  </g>
  <g id="axes_4">
   <g id="patch_68">
    <path d="M 518.02493 677.844 
L 912.384 677.844 
L 912.384 407.947304 
L 518.02493 407.947304 
z
" style="fill:#ffffff;"/>
   </g>
   <g id="PathCollection_2">
    <g clip-path="url(#p076de5f53c)">
     <use style="fill:#1f77b4;stroke:#1f77b4;" x="535.9971" xlink:href="#m582a6f80f5" y="665.453414"/>
     <use style="fill:#1f77b4;stroke:#1f77b4;" x="557.080319" xlink:href="#m582a6f80f5" y="665.575605"/>
     <use style="fill:#1f77b4;stroke:#1f77b4;" x="578.163539" xlink:href="#m582a6f80f5" y="508.926502"/>
     <use style="fill:#1f77b4;stroke:#1f77b4;" x="599.246758" xlink:href="#m582a6f80f5" y="595.437863"/>
     <use style="fill:#1f77b4;stroke:#1f77b4;" x="620.329978" xlink:href="#m582a6f80f5" y="531.409681"/>
     <use style="fill:#1f77b4;stroke:#1f77b4;" x="641.413197" xlink:href="#m582a6f80f5" y="530.432151"/>
     <use style="fill:#1f77b4;stroke:#1f77b4;" x="662.496416" xlink:href="#m582a6f80f5" y="498.784633"/>
     <use style="fill:#1f77b4;stroke:#1f77b4;" x="683.579636" xlink:href="#m582a6f80f5" y="504.64981"/>
     <use style="fill:#1f77b4;stroke:#1f77b4;" x="704.662855" xlink:href="#m582a6f80f5" y="665.575605"/>
     <use style="fill:#1f77b4;stroke:#1f77b4;" x="725.746075" xlink:href="#m582a6f80f5" y="500.250928"/>
     <use style="fill:#1f77b4;stroke:#1f77b4;" x="746.829294" xlink:href="#m582a6f80f5" y="529.821195"/>
     <use style="fill:#1f77b4;stroke:#1f77b4;" x="767.912514" xlink:href="#m582a6f80f5" y="540.57402"/>
     <use style="fill:#1f77b4;stroke:#1f77b4;" x="788.995733" xlink:href="#m582a6f80f5" y="433.534539"/>
     <use style="fill:#1f77b4;stroke:#1f77b4;" x="810.078953" xlink:href="#m582a6f80f5" y="665.575605"/>
     <use style="fill:#1f77b4;stroke:#1f77b4;" x="831.162172" xlink:href="#m582a6f80f5" y="665.575605"/>
     <use style="fill:#1f77b4;stroke:#1f77b4;" x="852.245392" xlink:href="#m582a6f80f5" y="463.593571"/>
     <use style="fill:#1f77b4;stroke:#1f77b4;" x="873.328611" xlink:href="#m582a6f80f5" y="639.915455"/>
     <use style="fill:#1f77b4;stroke:#1f77b4;" x="894.411831" xlink:href="#m582a6f80f5" y="420.2157"/>
    </g>
   </g>
   <g id="matplotlib.axis_7">
    <g id="xtick_22">
     <g id="line2d_45">
      <g>
       <use style="stroke:#000000;stroke-width:0.8;" x="535.9971" xlink:href="#m91b4fceedd" y="677.844"/>
      </g>
     </g>
     <g id="text_55">
      <!-- 0.0 -->
      <g transform="translate(528.045537 692.442437)scale(0.1 -0.1)">
       <use xlink:href="#DejaVuSans-30"/>
       <use x="63.623047" xlink:href="#DejaVuSans-2e"/>
       <use x="95.410156" xlink:href="#DejaVuSans-30"/>
      </g>
     </g>
    </g>
    <g id="xtick_23">
     <g id="line2d_46">
      <g>
       <use style="stroke:#000000;stroke-width:0.8;" x="588.705148" xlink:href="#m91b4fceedd" y="677.844"/>
      </g>
     </g>
     <g id="text_56">
      <!-- 2.5 -->
      <g transform="translate(580.753586 692.442437)scale(0.1 -0.1)">
       <use xlink:href="#DejaVuSans-32"/>
       <use x="63.623047" xlink:href="#DejaVuSans-2e"/>
       <use x="95.410156" xlink:href="#DejaVuSans-35"/>
      </g>
     </g>
    </g>
    <g id="xtick_24">
     <g id="line2d_47">
      <g>
       <use style="stroke:#000000;stroke-width:0.8;" x="641.413197" xlink:href="#m91b4fceedd" y="677.844"/>
      </g>
     </g>
     <g id="text_57">
      <!-- 5.0 -->
      <g transform="translate(633.461634 692.442437)scale(0.1 -0.1)">
       <use xlink:href="#DejaVuSans-35"/>
       <use x="63.623047" xlink:href="#DejaVuSans-2e"/>
       <use x="95.410156" xlink:href="#DejaVuSans-30"/>
      </g>
     </g>
    </g>
    <g id="xtick_25">
     <g id="line2d_48">
      <g>
       <use style="stroke:#000000;stroke-width:0.8;" x="694.121246" xlink:href="#m91b4fceedd" y="677.844"/>
      </g>
     </g>
     <g id="text_58">
      <!-- 7.5 -->
      <g transform="translate(686.169683 692.442437)scale(0.1 -0.1)">
       <use xlink:href="#DejaVuSans-37"/>
       <use x="63.623047" xlink:href="#DejaVuSans-2e"/>
       <use x="95.410156" xlink:href="#DejaVuSans-35"/>
      </g>
     </g>
    </g>
    <g id="xtick_26">
     <g id="line2d_49">
      <g>
       <use style="stroke:#000000;stroke-width:0.8;" x="746.829294" xlink:href="#m91b4fceedd" y="677.844"/>
      </g>
     </g>
     <g id="text_59">
      <!-- 10.0 -->
      <g transform="translate(735.696482 692.442437)scale(0.1 -0.1)">
       <use xlink:href="#DejaVuSans-31"/>
       <use x="63.623047" xlink:href="#DejaVuSans-30"/>
       <use x="127.246094" xlink:href="#DejaVuSans-2e"/>
       <use x="159.033203" xlink:href="#DejaVuSans-30"/>
      </g>
     </g>
    </g>
    <g id="xtick_27">
     <g id="line2d_50">
      <g>
       <use style="stroke:#000000;stroke-width:0.8;" x="799.537343" xlink:href="#m91b4fceedd" y="677.844"/>
      </g>
     </g>
     <g id="text_60">
      <!-- 12.5 -->
      <g transform="translate(788.40453 692.442437)scale(0.1 -0.1)">
       <use xlink:href="#DejaVuSans-31"/>
       <use x="63.623047" xlink:href="#DejaVuSans-32"/>
       <use x="127.246094" xlink:href="#DejaVuSans-2e"/>
       <use x="159.033203" xlink:href="#DejaVuSans-35"/>
      </g>
     </g>
    </g>
    <g id="xtick_28">
     <g id="line2d_51">
      <g>
       <use style="stroke:#000000;stroke-width:0.8;" x="852.245392" xlink:href="#m91b4fceedd" y="677.844"/>
      </g>
     </g>
     <g id="text_61">
      <!-- 15.0 -->
      <g transform="translate(841.112579 692.442437)scale(0.1 -0.1)">
       <use xlink:href="#DejaVuSans-31"/>
       <use x="63.623047" xlink:href="#DejaVuSans-35"/>
       <use x="127.246094" xlink:href="#DejaVuSans-2e"/>
       <use x="159.033203" xlink:href="#DejaVuSans-30"/>
      </g>
     </g>
    </g>
    <g id="xtick_29">
     <g id="line2d_52">
      <g>
       <use style="stroke:#000000;stroke-width:0.8;" x="904.95344" xlink:href="#m91b4fceedd" y="677.844"/>
      </g>
     </g>
     <g id="text_62">
      <!-- 17.5 -->
      <g transform="translate(893.820628 692.442437)scale(0.1 -0.1)">
       <use xlink:href="#DejaVuSans-31"/>
       <use x="63.623047" xlink:href="#DejaVuSans-37"/>
       <use x="127.246094" xlink:href="#DejaVuSans-2e"/>
       <use x="159.033203" xlink:href="#DejaVuSans-35"/>
      </g>
     </g>
    </g>
    <g id="text_63">
     <!-- Seconds -->
     <defs>
      <path d="M 53.515625 70.515625 
L 53.515625 60.890625 
Q 47.90625 63.578125 42.921875 64.890625 
Q 37.9375 66.21875 33.296875 66.21875 
Q 25.25 66.21875 20.875 63.09375 
Q 16.5 59.96875 16.5 54.203125 
Q 16.5 49.359375 19.40625 46.890625 
Q 22.3125 44.4375 30.421875 42.921875 
L 36.375 41.703125 
Q 47.40625 39.59375 52.65625 34.296875 
Q 57.90625 29 57.90625 20.125 
Q 57.90625 9.515625 50.796875 4.046875 
Q 43.703125 -1.421875 29.984375 -1.421875 
Q 24.8125 -1.421875 18.96875 -0.25 
Q 13.140625 0.921875 6.890625 3.21875 
L 6.890625 13.375 
Q 12.890625 10.015625 18.65625 8.296875 
Q 24.421875 6.59375 29.984375 6.59375 
Q 38.421875 6.59375 43.015625 9.90625 
Q 47.609375 13.234375 47.609375 19.390625 
Q 47.609375 24.75 44.3125 27.78125 
Q 41.015625 30.8125 33.5 32.328125 
L 27.484375 33.5 
Q 16.453125 35.6875 11.515625 40.375 
Q 6.59375 45.0625 6.59375 53.421875 
Q 6.59375 63.09375 13.40625 68.65625 
Q 20.21875 74.21875 32.171875 74.21875 
Q 37.3125 74.21875 42.625 73.28125 
Q 47.953125 72.359375 53.515625 70.515625 
z
" id="DejaVuSans-53"/>
     </defs>
     <g transform="translate(694.197434 706.120563)scale(0.1 -0.1)">
      <use xlink:href="#DejaVuSans-53"/>
      <use x="63.476562" xlink:href="#DejaVuSans-65"/>
      <use x="125" xlink:href="#DejaVuSans-63"/>
      <use x="179.980469" xlink:href="#DejaVuSans-6f"/>
      <use x="241.162109" xlink:href="#DejaVuSans-6e"/>
      <use x="304.541016" xlink:href="#DejaVuSans-64"/>
      <use x="368.017578" xlink:href="#DejaVuSans-73"/>
     </g>
    </g>
   </g>
   <g id="matplotlib.axis_8">
    <g id="ytick_24">
     <g id="line2d_53">
      <g>
       <use style="stroke:#000000;stroke-width:0.8;" x="518.02493" xlink:href="#m1ca1101d6d" y="665.575605"/>
      </g>
     </g>
     <g id="text_64">
      <!-- 0 -->
      <g transform="translate(504.66243 669.374823)scale(0.1 -0.1)">
       <use xlink:href="#DejaVuSans-30"/>
      </g>
     </g>
    </g>
    <g id="ytick_25">
     <g id="line2d_54">
      <g>
       <use style="stroke:#000000;stroke-width:0.8;" x="518.02493" xlink:href="#m1ca1101d6d" y="635.027808"/>
      </g>
     </g>
     <g id="text_65">
      <!-- 250 -->
      <g transform="translate(491.93743 638.827027)scale(0.1 -0.1)">
       <use xlink:href="#DejaVuSans-32"/>
       <use x="63.623047" xlink:href="#DejaVuSans-35"/>
       <use x="127.246094" xlink:href="#DejaVuSans-30"/>
      </g>
     </g>
    </g>
    <g id="ytick_26">
     <g id="line2d_55">
      <g>
       <use style="stroke:#000000;stroke-width:0.8;" x="518.02493" xlink:href="#m1ca1101d6d" y="604.480011"/>
      </g>
     </g>
     <g id="text_66">
      <!-- 500 -->
      <g transform="translate(491.93743 608.27923)scale(0.1 -0.1)">
       <use xlink:href="#DejaVuSans-35"/>
       <use x="63.623047" xlink:href="#DejaVuSans-30"/>
       <use x="127.246094" xlink:href="#DejaVuSans-30"/>
      </g>
     </g>
    </g>
    <g id="ytick_27">
     <g id="line2d_56">
      <g>
       <use style="stroke:#000000;stroke-width:0.8;" x="518.02493" xlink:href="#m1ca1101d6d" y="573.932214"/>
      </g>
     </g>
     <g id="text_67">
      <!-- 750 -->
      <g transform="translate(491.93743 577.731433)scale(0.1 -0.1)">
       <use xlink:href="#DejaVuSans-37"/>
       <use x="63.623047" xlink:href="#DejaVuSans-35"/>
       <use x="127.246094" xlink:href="#DejaVuSans-30"/>
      </g>
     </g>
    </g>
    <g id="ytick_28">
     <g id="line2d_57">
      <g>
       <use style="stroke:#000000;stroke-width:0.8;" x="518.02493" xlink:href="#m1ca1101d6d" y="543.384417"/>
      </g>
     </g>
     <g id="text_68">
      <!-- 1000 -->
      <g transform="translate(485.57493 547.183636)scale(0.1 -0.1)">
       <use xlink:href="#DejaVuSans-31"/>
       <use x="63.623047" xlink:href="#DejaVuSans-30"/>
       <use x="127.246094" xlink:href="#DejaVuSans-30"/>
       <use x="190.869141" xlink:href="#DejaVuSans-30"/>
      </g>
     </g>
    </g>
    <g id="ytick_29">
     <g id="line2d_58">
      <g>
       <use style="stroke:#000000;stroke-width:0.8;" x="518.02493" xlink:href="#m1ca1101d6d" y="512.83662"/>
      </g>
     </g>
     <g id="text_69">
      <!-- 1250 -->
      <g transform="translate(485.57493 516.635839)scale(0.1 -0.1)">
       <use xlink:href="#DejaVuSans-31"/>
       <use x="63.623047" xlink:href="#DejaVuSans-32"/>
       <use x="127.246094" xlink:href="#DejaVuSans-35"/>
       <use x="190.869141" xlink:href="#DejaVuSans-30"/>
      </g>
     </g>
    </g>
    <g id="ytick_30">
     <g id="line2d_59">
      <g>
       <use style="stroke:#000000;stroke-width:0.8;" x="518.02493" xlink:href="#m1ca1101d6d" y="482.288823"/>
      </g>
     </g>
     <g id="text_70">
      <!-- 1500 -->
      <g transform="translate(485.57493 486.088042)scale(0.1 -0.1)">
       <use xlink:href="#DejaVuSans-31"/>
       <use x="63.623047" xlink:href="#DejaVuSans-35"/>
       <use x="127.246094" xlink:href="#DejaVuSans-30"/>
       <use x="190.869141" xlink:href="#DejaVuSans-30"/>
      </g>
     </g>
    </g>
    <g id="ytick_31">
     <g id="line2d_60">
      <g>
       <use style="stroke:#000000;stroke-width:0.8;" x="518.02493" xlink:href="#m1ca1101d6d" y="451.741026"/>
      </g>
     </g>
     <g id="text_71">
      <!-- 1750 -->
      <g transform="translate(485.57493 455.540245)scale(0.1 -0.1)">
       <use xlink:href="#DejaVuSans-31"/>
       <use x="63.623047" xlink:href="#DejaVuSans-37"/>
       <use x="127.246094" xlink:href="#DejaVuSans-35"/>
       <use x="190.869141" xlink:href="#DejaVuSans-30"/>
      </g>
     </g>
    </g>
    <g id="ytick_32">
     <g id="line2d_61">
      <g>
       <use style="stroke:#000000;stroke-width:0.8;" x="518.02493" xlink:href="#m1ca1101d6d" y="421.193229"/>
      </g>
     </g>
     <g id="text_72">
      <!-- 2000 -->
      <g transform="translate(485.57493 424.992448)scale(0.1 -0.1)">
       <use xlink:href="#DejaVuSans-32"/>
       <use x="63.623047" xlink:href="#DejaVuSans-30"/>
       <use x="127.246094" xlink:href="#DejaVuSans-30"/>
       <use x="190.869141" xlink:href="#DejaVuSans-30"/>
      </g>
     </g>
    </g>
    <g id="text_73">
     <!-- Amount -->
     <g transform="translate(479.495243 562.543308)rotate(-90)scale(0.1 -0.1)">
      <use xlink:href="#DejaVuSans-41"/>
      <use x="68.408203" xlink:href="#DejaVuSans-6d"/>
      <use x="165.820312" xlink:href="#DejaVuSans-6f"/>
      <use x="227.001953" xlink:href="#DejaVuSans-75"/>
      <use x="290.380859" xlink:href="#DejaVuSans-6e"/>
      <use x="353.759766" xlink:href="#DejaVuSans-74"/>
     </g>
    </g>
   </g>
   <g id="patch_69">
    <path d="M 518.02493 677.844 
L 518.02493 407.947304 
" style="fill:none;stroke:#000000;stroke-linecap:square;stroke-linejoin:miter;stroke-width:0.8;"/>
   </g>
   <g id="patch_70">
    <path d="M 912.384 677.844 
L 912.384 407.947304 
" style="fill:none;stroke:#000000;stroke-linecap:square;stroke-linejoin:miter;stroke-width:0.8;"/>
   </g>
   <g id="patch_71">
    <path d="M 518.02493 677.844 
L 912.384 677.844 
" style="fill:none;stroke:#000000;stroke-linecap:square;stroke-linejoin:miter;stroke-width:0.8;"/>
   </g>
   <g id="patch_72">
    <path d="M 518.02493 407.947304 
L 912.384 407.947304 
" style="fill:none;stroke:#000000;stroke-linecap:square;stroke-linejoin:miter;stroke-width:0.8;"/>
   </g>
   <g id="text_74">
    <g id="patch_73">
     <path d="M 535.9971 656.956486 
L 656.7396 656.956486 
Q 660.3396 656.956486 660.3396 653.356486 
L 660.3396 628.305361 
Q 660.3396 624.705361 656.7396 624.705361 
L 535.9971 624.705361 
Q 532.3971 624.705361 532.3971 628.305361 
L 532.3971 653.356486 
Q 532.3971 656.956486 535.9971 656.956486 
z
" style="fill:#ffffff;opacity:0.9;stroke:#808080;stroke-linejoin:miter;"/>
    </g>
    <!-- median: 1102.0 tx/s -->
    <g transform="translate(535.9971 637.423486)scale(0.12 -0.12)">
     <use xlink:href="#DejaVuSans-6d"/>
     <use x="97.412109" xlink:href="#DejaVuSans-65"/>
     <use x="158.935547" xlink:href="#DejaVuSans-64"/>
     <use x="222.412109" xlink:href="#DejaVuSans-69"/>
     <use x="250.195312" xlink:href="#DejaVuSans-61"/>
     <use x="311.474609" xlink:href="#DejaVuSans-6e"/>
     <use x="374.853516" xlink:href="#DejaVuSans-3a"/>
     <use x="408.544922" xlink:href="#DejaVuSans-20"/>
     <use x="440.332031" xlink:href="#DejaVuSans-31"/>
     <use x="503.955078" xlink:href="#DejaVuSans-31"/>
     <use x="567.578125" xlink:href="#DejaVuSans-30"/>
     <use x="631.201172" xlink:href="#DejaVuSans-32"/>
     <use x="694.824219" xlink:href="#DejaVuSans-2e"/>
     <use x="726.611328" xlink:href="#DejaVuSans-30"/>
     <use x="790.234375" xlink:href="#DejaVuSans-20"/>
     <use x="822.021484" xlink:href="#DejaVuSans-74"/>
     <use x="861.230469" xlink:href="#DejaVuSans-78"/>
     <use x="920.410156" xlink:href="#DejaVuSans-2f"/>
     <use x="954.101562" xlink:href="#DejaVuSans-73"/>
    </g>
    <!-- mean: 889.0 tx/s -->
    <g transform="translate(535.9971 650.860861)scale(0.12 -0.12)">
     <use xlink:href="#DejaVuSans-6d"/>
     <use x="97.412109" xlink:href="#DejaVuSans-65"/>
     <use x="158.935547" xlink:href="#DejaVuSans-61"/>
     <use x="220.214844" xlink:href="#DejaVuSans-6e"/>
     <use x="283.59375" xlink:href="#DejaVuSans-3a"/>
     <use x="317.285156" xlink:href="#DejaVuSans-20"/>
     <use x="349.072266" xlink:href="#DejaVuSans-38"/>
     <use x="412.695312" xlink:href="#DejaVuSans-38"/>
     <use x="476.318359" xlink:href="#DejaVuSans-39"/>
     <use x="539.941406" xlink:href="#DejaVuSans-2e"/>
     <use x="571.728516" xlink:href="#DejaVuSans-30"/>
     <use x="635.351562" xlink:href="#DejaVuSans-20"/>
     <use x="667.138672" xlink:href="#DejaVuSans-74"/>
     <use x="706.347656" xlink:href="#DejaVuSans-78"/>
     <use x="765.527344" xlink:href="#DejaVuSans-2f"/>
     <use x="799.21875" xlink:href="#DejaVuSans-73"/>
    </g>
   </g>
   <g id="text_75">
    <!-- Finalized transactions per second -->
    <defs>
     <path d="M 9.8125 72.90625 
L 51.703125 72.90625 
L 51.703125 64.59375 
L 19.671875 64.59375 
L 19.671875 43.109375 
L 48.578125 43.109375 
L 48.578125 34.8125 
L 19.671875 34.8125 
L 19.671875 0 
L 9.8125 0 
z
" id="DejaVuSans-46"/>
    </defs>
    <g transform="translate(614.524465 401.947304)scale(0.12 -0.12)">
     <use xlink:href="#DejaVuSans-46"/>
     <use x="57.410156" xlink:href="#DejaVuSans-69"/>
     <use x="85.193359" xlink:href="#DejaVuSans-6e"/>
     <use x="148.572266" xlink:href="#DejaVuSans-61"/>
     <use x="209.851562" xlink:href="#DejaVuSans-6c"/>
     <use x="237.634766" xlink:href="#DejaVuSans-69"/>
     <use x="265.417969" xlink:href="#DejaVuSans-7a"/>
     <use x="317.908203" xlink:href="#DejaVuSans-65"/>
     <use x="379.431641" xlink:href="#DejaVuSans-64"/>
     <use x="442.908203" xlink:href="#DejaVuSans-20"/>
     <use x="474.695312" xlink:href="#DejaVuSans-74"/>
     <use x="513.904297" xlink:href="#DejaVuSans-72"/>
     <use x="555.017578" xlink:href="#DejaVuSans-61"/>
     <use x="616.296875" xlink:href="#DejaVuSans-6e"/>
     <use x="679.675781" xlink:href="#DejaVuSans-73"/>
     <use x="731.775391" xlink:href="#DejaVuSans-61"/>
     <use x="793.054688" xlink:href="#DejaVuSans-63"/>
     <use x="848.035156" xlink:href="#DejaVuSans-74"/>
     <use x="887.244141" xlink:href="#DejaVuSans-69"/>
     <use x="915.027344" xlink:href="#DejaVuSans-6f"/>
     <use x="976.208984" xlink:href="#DejaVuSans-6e"/>
     <use x="1039.587891" xlink:href="#DejaVuSans-73"/>
     <use x="1091.6875" xlink:href="#DejaVuSans-20"/>
     <use x="1123.474609" xlink:href="#DejaVuSans-70"/>
     <use x="1186.951172" xlink:href="#DejaVuSans-65"/>
     <use x="1248.474609" xlink:href="#DejaVuSans-72"/>
     <use x="1289.587891" xlink:href="#DejaVuSans-20"/>
     <use x="1321.375" xlink:href="#DejaVuSans-73"/>
     <use x="1373.474609" xlink:href="#DejaVuSans-65"/>
     <use x="1434.998047" xlink:href="#DejaVuSans-63"/>
     <use x="1489.978516" xlink:href="#DejaVuSans-6f"/>
     <use x="1551.160156" xlink:href="#DejaVuSans-6e"/>
     <use x="1614.539062" xlink:href="#DejaVuSans-64"/>
    </g>
   </g>
  </g>
  <g id="text_76">
   <!-- exp-32proc-16000sync.csv -->
   <defs>
    <path d="M 4.890625 31.390625 
L 31.203125 31.390625 
L 31.203125 23.390625 
L 4.890625 23.390625 
z
" id="DejaVuSans-2d"/>
    <path d="M 32.171875 -5.078125 
Q 28.375 -14.84375 24.75 -17.8125 
Q 21.140625 -20.796875 15.09375 -20.796875 
L 7.90625 -20.796875 
L 7.90625 -13.28125 
L 13.1875 -13.28125 
Q 16.890625 -13.28125 18.9375 -11.515625 
Q 21 -9.765625 23.484375 -3.21875 
L 25.09375 0.875 
L 2.984375 54.6875 
L 12.5 54.6875 
L 29.59375 11.921875 
L 46.6875 54.6875 
L 56.203125 54.6875 
z
" id="DejaVuSans-79"/>
    <path d="M 2.984375 54.6875 
L 12.5 54.6875 
L 29.59375 8.796875 
L 46.6875 54.6875 
L 56.203125 54.6875 
L 35.6875 0 
L 23.484375 0 
z
" id="DejaVuSans-76"/>
   </defs>
   <g transform="translate(379.791562 23.388525)scale(0.12 -0.12)">
    <use xlink:href="#DejaVuSans-65"/>
    <use x="61.507812" xlink:href="#DejaVuSans-78"/>
    <use x="120.6875" xlink:href="#DejaVuSans-70"/>
    <use x="184.164062" xlink:href="#DejaVuSans-2d"/>
    <use x="220.248047" xlink:href="#DejaVuSans-33"/>
    <use x="283.871094" xlink:href="#DejaVuSans-32"/>
    <use x="347.494141" xlink:href="#DejaVuSans-70"/>
    <use x="410.970703" xlink:href="#DejaVuSans-72"/>
    <use x="452.052734" xlink:href="#DejaVuSans-6f"/>
    <use x="513.234375" xlink:href="#DejaVuSans-63"/>
    <use x="568.214844" xlink:href="#DejaVuSans-2d"/>
    <use x="604.298828" xlink:href="#DejaVuSans-31"/>
    <use x="667.921875" xlink:href="#DejaVuSans-36"/>
    <use x="731.544922" xlink:href="#DejaVuSans-30"/>
    <use x="795.167969" xlink:href="#DejaVuSans-30"/>
    <use x="858.791016" xlink:href="#DejaVuSans-30"/>
    <use x="922.414062" xlink:href="#DejaVuSans-73"/>
    <use x="974.513672" xlink:href="#DejaVuSans-79"/>
    <use x="1033.693359" xlink:href="#DejaVuSans-6e"/>
    <use x="1097.072266" xlink:href="#DejaVuSans-63"/>
    <use x="1152.052734" xlink:href="#DejaVuSans-2e"/>
    <use x="1183.839844" xlink:href="#DejaVuSans-63"/>
    <use x="1238.820312" xlink:href="#DejaVuSans-73"/>
    <use x="1290.919922" xlink:href="#DejaVuSans-76"/>
   </g>
  </g>
 </g>
 <defs>
  <clipPath id="p93aba1b5e9">
   <rect height="269.896696" width="394.35907" x="64.512" y="57.0816"/>
  </clipPath>
  <clipPath id="pa0e18f2b58">
   <rect height="269.896696" width="394.35907" x="518.02493" y="57.0816"/>
  </clipPath>
  <clipPath id="p7aae9e5329">
   <rect height="269.896696" width="394.35907" x="64.512" y="407.947304"/>
  </clipPath>
  <clipPath id="p076de5f53c">
   <rect height="269.896696" width="394.35907" x="518.02493" y="407.947304"/>
  </clipPath>
 </defs>
</svg>
