<?xml version="1.0" encoding="utf-8" standalone="no"?>
<!DOCTYPE svg PUBLIC "-//W3C//DTD SVG 1.1//EN"
  "http://www.w3.org/Graphics/SVG/1.1/DTD/svg11.dtd">
<!-- Created with matplotlib (http://matplotlib.org/) -->
<svg height="713.52pt" version="1.1" viewBox="0 0 1843.2 713.52" width="1843.2pt" xmlns="http://www.w3.org/2000/svg" xmlns:xlink="http://www.w3.org/1999/xlink">
 <defs>
  <style type="text/css">
*{stroke-linecap:butt;stroke-linejoin:round;}
  </style>
 </defs>
 <g id="figure_1">
  <g id="patch_1">
   <path d="M 0 713.52 
L 1843.2 713.52 
L 1843.2 0 
L 0 0 
z
" style="fill:#ffffff;"/>
  </g>
  <g id="axes_1">
   <g id="patch_2">
    <path d="M 230.4 290.896615 
L 825.6 290.896615 
L 825.6 71.352 
L 230.4 71.352 
z
" style="fill:#ffffff;"/>
   </g>
   <g id="patch_3">
    <path clip-path="url(#p75aa743d6a)" d="M 257.454545 290.896615 
L 279.098182 290.896615 
L 279.098182 81.806505 
L 257.454545 81.806505 
z
" style="fill:#1f77b4;"/>
   </g>
   <g id="patch_4">
    <path clip-path="url(#p75aa743d6a)" d="M 279.098182 290.896615 
L 300.741818 290.896615 
L 300.741818 287.815734 
L 279.098182 287.815734 
z
" style="fill:#1f77b4;"/>
   </g>
   <g id="patch_5">
    <path clip-path="url(#p75aa743d6a)" d="M 300.741818 290.896615 
L 322.385455 290.896615 
L 322.385455 289.257247 
L 300.741818 289.257247 
z
" style="fill:#1f77b4;"/>
   </g>
   <g id="patch_6">
    <path clip-path="url(#p75aa743d6a)" d="M 322.385455 290.896615 
L 344.029091 290.896615 
L 344.029091 289.963871 
L 322.385455 289.963871 
z
" style="fill:#1f77b4;"/>
   </g>
   <g id="patch_7">
    <path clip-path="url(#p75aa743d6a)" d="M 344.029091 290.896615 
L 365.672727 290.896615 
L 365.672727 290.515038 
L 344.029091 290.515038 
z
" style="fill:#1f77b4;"/>
   </g>
   <g id="patch_8">
    <path clip-path="url(#p75aa743d6a)" d="M 365.672727 290.896615 
L 387.316364 290.896615 
L 387.316364 290.712893 
L 365.672727 290.712893 
z
" style="fill:#1f77b4;"/>
   </g>
   <g id="patch_9">
    <path clip-path="url(#p75aa743d6a)" d="M 387.316364 290.896615 
L 408.96 290.896615 
L 408.96 290.741158 
L 387.316364 290.741158 
z
" style="fill:#1f77b4;"/>
   </g>
   <g id="patch_10">
    <path clip-path="url(#p75aa743d6a)" d="M 408.96 290.896615 
L 430.603636 290.896615 
L 430.603636 290.840085 
L 408.96 290.840085 
z
" style="fill:#1f77b4;"/>
   </g>
   <g id="patch_11">
    <path clip-path="url(#p75aa743d6a)" d="M 430.603636 290.896615 
L 452.247273 290.896615 
L 452.247273 290.81182 
L 430.603636 290.81182 
z
" style="fill:#1f77b4;"/>
   </g>
   <g id="patch_12">
    <path clip-path="url(#p75aa743d6a)" d="M 452.247273 290.896615 
L 473.890909 290.896615 
L 473.890909 290.628098 
L 452.247273 290.628098 
z
" style="fill:#1f77b4;"/>
   </g>
   <g id="patch_13">
    <path clip-path="url(#p75aa743d6a)" d="M 473.890909 290.896615 
L 495.534545 290.896615 
L 495.534545 290.613966 
L 473.890909 290.613966 
z
" style="fill:#1f77b4;"/>
   </g>
   <g id="patch_14">
    <path clip-path="url(#p75aa743d6a)" d="M 495.534545 290.896615 
L 517.178182 290.896615 
L 517.178182 290.161726 
L 495.534545 290.161726 
z
" style="fill:#1f77b4;"/>
   </g>
   <g id="patch_15">
    <path clip-path="url(#p75aa743d6a)" d="M 517.178182 290.896615 
L 538.821818 290.896615 
L 538.821818 289.836679 
L 517.178182 289.836679 
z
" style="fill:#1f77b4;"/>
   </g>
   <g id="patch_16">
    <path clip-path="url(#p75aa743d6a)" d="M 538.821818 290.896615 
L 560.465455 290.896615 
L 560.465455 289.342042 
L 538.821818 289.342042 
z
" style="fill:#1f77b4;"/>
   </g>
   <g id="patch_17">
    <path clip-path="url(#p75aa743d6a)" d="M 560.465455 290.896615 
L 582.109091 290.896615 
L 582.109091 289.681222 
L 560.465455 289.681222 
z
" style="fill:#1f77b4;"/>
   </g>
   <g id="patch_18">
    <path clip-path="url(#p75aa743d6a)" d="M 582.109091 290.896615 
L 603.752727 290.896615 
L 603.752727 290.401978 
L 582.109091 290.401978 
z
" style="fill:#1f77b4;"/>
   </g>
   <g id="patch_19">
    <path clip-path="url(#p75aa743d6a)" d="M 603.752727 290.896615 
L 625.396364 290.896615 
L 625.396364 290.585701 
L 603.752727 290.585701 
z
" style="fill:#1f77b4;"/>
   </g>
   <g id="patch_20">
    <path clip-path="url(#p75aa743d6a)" d="M 625.396364 290.896615 
L 647.04 290.896615 
L 647.04 290.755291 
L 625.396364 290.755291 
z
" style="fill:#1f77b4;"/>
   </g>
   <g id="patch_21">
    <path clip-path="url(#p75aa743d6a)" d="M 647.04 290.896615 
L 668.683636 290.896615 
L 668.683636 290.599833 
L 647.04 290.599833 
z
" style="fill:#1f77b4;"/>
   </g>
   <g id="patch_22">
    <path clip-path="url(#p75aa743d6a)" d="M 668.683636 290.896615 
L 690.327273 290.896615 
L 690.327273 290.373713 
L 668.683636 290.373713 
z
" style="fill:#1f77b4;"/>
   </g>
   <g id="patch_23">
    <path clip-path="url(#p75aa743d6a)" d="M 690.327273 290.896615 
L 711.970909 290.896615 
L 711.970909 289.822547 
L 690.327273 289.822547 
z
" style="fill:#1f77b4;"/>
   </g>
   <g id="patch_24">
    <path clip-path="url(#p75aa743d6a)" d="M 711.970909 290.896615 
L 733.614545 290.896615 
L 733.614545 289.398572 
L 711.970909 289.398572 
z
" style="fill:#1f77b4;"/>
   </g>
   <g id="patch_25">
    <path clip-path="url(#p75aa743d6a)" d="M 733.614545 290.896615 
L 755.258182 290.896615 
L 755.258182 290.105196 
L 733.614545 290.105196 
z
" style="fill:#1f77b4;"/>
   </g>
   <g id="patch_26">
    <path clip-path="url(#p75aa743d6a)" d="M 755.258182 290.896615 
L 776.901818 290.896615 
L 776.901818 290.712893 
L 755.258182 290.712893 
z
" style="fill:#1f77b4;"/>
   </g>
   <g id="patch_27">
    <path clip-path="url(#p75aa743d6a)" d="M 776.901818 290.896615 
L 798.545455 290.896615 
L 798.545455 290.81182 
L 776.901818 290.81182 
z
" style="fill:#1f77b4;"/>
   </g>
   <g id="matplotlib.axis_1">
    <g id="xtick_1">
     <g id="line2d_1">
      <defs>
       <path d="M 0 0 
L 0 3.5 
" id="mdd6bc8a6b9" style="stroke:#000000;stroke-width:0.8;"/>
      </defs>
      <g>
       <use style="stroke:#000000;stroke-width:0.8;" x="248.171123" xlink:href="#mdd6bc8a6b9" y="290.896615"/>
      </g>
     </g>
     <g id="text_1">
      <!-- 0.00 -->
      <defs>
       <path d="M 31.78125 66.40625 
Q 24.171875 66.40625 20.328125 58.90625 
Q 16.5 51.421875 16.5 36.375 
Q 16.5 21.390625 20.328125 13.890625 
Q 24.171875 6.390625 31.78125 6.390625 
Q 39.453125 6.390625 43.28125 13.890625 
Q 47.125 21.390625 47.125 36.375 
Q 47.125 51.421875 43.28125 58.90625 
Q 39.453125 66.40625 31.78125 66.40625 
z
M 31.78125 74.21875 
Q 44.046875 74.21875 50.515625 64.515625 
Q 56.984375 54.828125 56.984375 36.375 
Q 56.984375 17.96875 50.515625 8.265625 
Q 44.046875 -1.421875 31.78125 -1.421875 
Q 19.53125 -1.421875 13.0625 8.265625 
Q 6.59375 17.96875 6.59375 36.375 
Q 6.59375 54.828125 13.0625 64.515625 
Q 19.53125 74.21875 31.78125 74.21875 
z
" id="DejaVuSans-30"/>
       <path d="M 10.6875 12.40625 
L 21 12.40625 
L 21 0 
L 10.6875 0 
z
" id="DejaVuSans-2e"/>
      </defs>
      <g transform="translate(237.03831 305.495053)scale(0.1 -0.1)">
       <use xlink:href="#DejaVuSans-30"/>
       <use x="63.623047" xlink:href="#DejaVuSans-2e"/>
       <use x="95.410156" xlink:href="#DejaVuSans-30"/>
       <use x="159.033203" xlink:href="#DejaVuSans-30"/>
      </g>
     </g>
    </g>
    <g id="xtick_2">
     <g id="line2d_2">
      <g>
       <use style="stroke:#000000;stroke-width:0.8;" x="314.481283" xlink:href="#mdd6bc8a6b9" y="290.896615"/>
      </g>
     </g>
     <g id="text_2">
      <!-- 0.05 -->
      <defs>
       <path d="M 10.796875 72.90625 
L 49.515625 72.90625 
L 49.515625 64.59375 
L 19.828125 64.59375 
L 19.828125 46.734375 
Q 21.96875 47.46875 24.109375 47.828125 
Q 26.265625 48.1875 28.421875 48.1875 
Q 40.625 48.1875 47.75 41.5 
Q 54.890625 34.8125 54.890625 23.390625 
Q 54.890625 11.625 47.5625 5.09375 
Q 40.234375 -1.421875 26.90625 -1.421875 
Q 22.3125 -1.421875 17.546875 -0.640625 
Q 12.796875 0.140625 7.71875 1.703125 
L 7.71875 11.625 
Q 12.109375 9.234375 16.796875 8.0625 
Q 21.484375 6.890625 26.703125 6.890625 
Q 35.15625 6.890625 40.078125 11.328125 
Q 45.015625 15.765625 45.015625 23.390625 
Q 45.015625 31 40.078125 35.4375 
Q 35.15625 39.890625 26.703125 39.890625 
Q 22.75 39.890625 18.8125 39.015625 
Q 14.890625 38.140625 10.796875 36.28125 
z
" id="DejaVuSans-35"/>
      </defs>
      <g transform="translate(303.348471 305.495053)scale(0.1 -0.1)">
       <use xlink:href="#DejaVuSans-30"/>
       <use x="63.623047" xlink:href="#DejaVuSans-2e"/>
       <use x="95.410156" xlink:href="#DejaVuSans-30"/>
       <use x="159.033203" xlink:href="#DejaVuSans-35"/>
      </g>
     </g>
    </g>
    <g id="xtick_3">
     <g id="line2d_3">
      <g>
       <use style="stroke:#000000;stroke-width:0.8;" x="380.791444" xlink:href="#mdd6bc8a6b9" y="290.896615"/>
      </g>
     </g>
     <g id="text_3">
      <!-- 0.10 -->
      <defs>
       <path d="M 12.40625 8.296875 
L 28.515625 8.296875 
L 28.515625 63.921875 
L 10.984375 60.40625 
L 10.984375 69.390625 
L 28.421875 72.90625 
L 38.28125 72.90625 
L 38.28125 8.296875 
L 54.390625 8.296875 
L 54.390625 0 
L 12.40625 0 
z
" id="DejaVuSans-31"/>
      </defs>
      <g transform="translate(369.658631 305.495053)scale(0.1 -0.1)">
       <use xlink:href="#DejaVuSans-30"/>
       <use x="63.623047" xlink:href="#DejaVuSans-2e"/>
       <use x="95.410156" xlink:href="#DejaVuSans-31"/>
       <use x="159.033203" xlink:href="#DejaVuSans-30"/>
      </g>
     </g>
    </g>
    <g id="xtick_4">
     <g id="line2d_4">
      <g>
       <use style="stroke:#000000;stroke-width:0.8;" x="447.101604" xlink:href="#mdd6bc8a6b9" y="290.896615"/>
      </g>
     </g>
     <g id="text_4">
      <!-- 0.15 -->
      <g transform="translate(435.968792 305.495053)scale(0.1 -0.1)">
       <use xlink:href="#DejaVuSans-30"/>
       <use x="63.623047" xlink:href="#DejaVuSans-2e"/>
       <use x="95.410156" xlink:href="#DejaVuSans-31"/>
       <use x="159.033203" xlink:href="#DejaVuSans-35"/>
      </g>
     </g>
    </g>
    <g id="xtick_5">
     <g id="line2d_5">
      <g>
       <use style="stroke:#000000;stroke-width:0.8;" x="513.411765" xlink:href="#mdd6bc8a6b9" y="290.896615"/>
      </g>
     </g>
     <g id="text_5">
      <!-- 0.20 -->
      <defs>
       <path d="M 19.1875 8.296875 
L 53.609375 8.296875 
L 53.609375 0 
L 7.328125 0 
L 7.328125 8.296875 
Q 12.9375 14.109375 22.625 23.890625 
Q 32.328125 33.6875 34.8125 36.53125 
Q 39.546875 41.84375 41.421875 45.53125 
Q 43.3125 49.21875 43.3125 52.78125 
Q 43.3125 58.59375 39.234375 62.25 
Q 35.15625 65.921875 28.609375 65.921875 
Q 23.96875 65.921875 18.8125 64.3125 
Q 13.671875 62.703125 7.8125 59.421875 
L 7.8125 69.390625 
Q 13.765625 71.78125 18.9375 73 
Q 24.125 74.21875 28.421875 74.21875 
Q 39.75 74.21875 46.484375 68.546875 
Q 53.21875 62.890625 53.21875 53.421875 
Q 53.21875 48.921875 51.53125 44.890625 
Q 49.859375 40.875 45.40625 35.40625 
Q 44.1875 33.984375 37.640625 27.21875 
Q 31.109375 20.453125 19.1875 8.296875 
z
" id="DejaVuSans-32"/>
      </defs>
      <g transform="translate(502.278952 305.495053)scale(0.1 -0.1)">
       <use xlink:href="#DejaVuSans-30"/>
       <use x="63.623047" xlink:href="#DejaVuSans-2e"/>
       <use x="95.410156" xlink:href="#DejaVuSans-32"/>
       <use x="159.033203" xlink:href="#DejaVuSans-30"/>
      </g>
     </g>
    </g>
    <g id="xtick_6">
     <g id="line2d_6">
      <g>
       <use style="stroke:#000000;stroke-width:0.8;" x="579.721925" xlink:href="#mdd6bc8a6b9" y="290.896615"/>
      </g>
     </g>
     <g id="text_6">
      <!-- 0.25 -->
      <g transform="translate(568.589113 305.495053)scale(0.1 -0.1)">
       <use xlink:href="#DejaVuSans-30"/>
       <use x="63.623047" xlink:href="#DejaVuSans-2e"/>
       <use x="95.410156" xlink:href="#DejaVuSans-32"/>
       <use x="159.033203" xlink:href="#DejaVuSans-35"/>
      </g>
     </g>
    </g>
    <g id="xtick_7">
     <g id="line2d_7">
      <g>
       <use style="stroke:#000000;stroke-width:0.8;" x="646.032086" xlink:href="#mdd6bc8a6b9" y="290.896615"/>
      </g>
     </g>
     <g id="text_7">
      <!-- 0.30 -->
      <defs>
       <path d="M 40.578125 39.3125 
Q 47.65625 37.796875 51.625 33 
Q 55.609375 28.21875 55.609375 21.1875 
Q 55.609375 10.40625 48.1875 4.484375 
Q 40.765625 -1.421875 27.09375 -1.421875 
Q 22.515625 -1.421875 17.65625 -0.515625 
Q 12.796875 0.390625 7.625 2.203125 
L 7.625 11.71875 
Q 11.71875 9.328125 16.59375 8.109375 
Q 21.484375 6.890625 26.8125 6.890625 
Q 36.078125 6.890625 40.9375 10.546875 
Q 45.796875 14.203125 45.796875 21.1875 
Q 45.796875 27.640625 41.28125 31.265625 
Q 36.765625 34.90625 28.71875 34.90625 
L 20.21875 34.90625 
L 20.21875 43.015625 
L 29.109375 43.015625 
Q 36.375 43.015625 40.234375 45.921875 
Q 44.09375 48.828125 44.09375 54.296875 
Q 44.09375 59.90625 40.109375 62.90625 
Q 36.140625 65.921875 28.71875 65.921875 
Q 24.65625 65.921875 20.015625 65.03125 
Q 15.375 64.15625 9.8125 62.3125 
L 9.8125 71.09375 
Q 15.4375 72.65625 20.34375 73.4375 
Q 25.25 74.21875 29.59375 74.21875 
Q 40.828125 74.21875 47.359375 69.109375 
Q 53.90625 64.015625 53.90625 55.328125 
Q 53.90625 49.265625 50.4375 45.09375 
Q 46.96875 40.921875 40.578125 39.3125 
z
" id="DejaVuSans-33"/>
      </defs>
      <g transform="translate(634.899273 305.495053)scale(0.1 -0.1)">
       <use xlink:href="#DejaVuSans-30"/>
       <use x="63.623047" xlink:href="#DejaVuSans-2e"/>
       <use x="95.410156" xlink:href="#DejaVuSans-33"/>
       <use x="159.033203" xlink:href="#DejaVuSans-30"/>
      </g>
     </g>
    </g>
    <g id="xtick_8">
     <g id="line2d_8">
      <g>
       <use style="stroke:#000000;stroke-width:0.8;" x="712.342246" xlink:href="#mdd6bc8a6b9" y="290.896615"/>
      </g>
     </g>
     <g id="text_8">
      <!-- 0.35 -->
      <g transform="translate(701.209433 305.495053)scale(0.1 -0.1)">
       <use xlink:href="#DejaVuSans-30"/>
       <use x="63.623047" xlink:href="#DejaVuSans-2e"/>
       <use x="95.410156" xlink:href="#DejaVuSans-33"/>
       <use x="159.033203" xlink:href="#DejaVuSans-35"/>
      </g>
     </g>
    </g>
    <g id="xtick_9">
     <g id="line2d_9">
      <g>
       <use style="stroke:#000000;stroke-width:0.8;" x="778.652406" xlink:href="#mdd6bc8a6b9" y="290.896615"/>
      </g>
     </g>
     <g id="text_9">
      <!-- 0.40 -->
      <defs>
       <path d="M 37.796875 64.3125 
L 12.890625 25.390625 
L 37.796875 25.390625 
z
M 35.203125 72.90625 
L 47.609375 72.90625 
L 47.609375 25.390625 
L 58.015625 25.390625 
L 58.015625 17.1875 
L 47.609375 17.1875 
L 47.609375 0 
L 37.796875 0 
L 37.796875 17.1875 
L 4.890625 17.1875 
L 4.890625 26.703125 
z
" id="DejaVuSans-34"/>
      </defs>
      <g transform="translate(767.519594 305.495053)scale(0.1 -0.1)">
       <use xlink:href="#DejaVuSans-30"/>
       <use x="63.623047" xlink:href="#DejaVuSans-2e"/>
       <use x="95.410156" xlink:href="#DejaVuSans-34"/>
       <use x="159.033203" xlink:href="#DejaVuSans-30"/>
      </g>
     </g>
    </g>
    <g id="text_10">
     <!-- Time (seconds) -->
     <defs>
      <path d="M -0.296875 72.90625 
L 61.375 72.90625 
L 61.375 64.59375 
L 35.5 64.59375 
L 35.5 0 
L 25.59375 0 
L 25.59375 64.59375 
L -0.296875 64.59375 
z
" id="DejaVuSans-54"/>
      <path d="M 9.421875 54.6875 
L 18.40625 54.6875 
L 18.40625 0 
L 9.421875 0 
z
M 9.421875 75.984375 
L 18.40625 75.984375 
L 18.40625 64.59375 
L 9.421875 64.59375 
z
" id="DejaVuSans-69"/>
      <path d="M 52 44.1875 
Q 55.375 50.25 60.0625 53.125 
Q 64.75 56 71.09375 56 
Q 79.640625 56 84.28125 50.015625 
Q 88.921875 44.046875 88.921875 33.015625 
L 88.921875 0 
L 79.890625 0 
L 79.890625 32.71875 
Q 79.890625 40.578125 77.09375 44.375 
Q 74.3125 48.1875 68.609375 48.1875 
Q 61.625 48.1875 57.5625 43.546875 
Q 53.515625 38.921875 53.515625 30.90625 
L 53.515625 0 
L 44.484375 0 
L 44.484375 32.71875 
Q 44.484375 40.625 41.703125 44.40625 
Q 38.921875 48.1875 33.109375 48.1875 
Q 26.21875 48.1875 22.15625 43.53125 
Q 18.109375 38.875 18.109375 30.90625 
L 18.109375 0 
L 9.078125 0 
L 9.078125 54.6875 
L 18.109375 54.6875 
L 18.109375 46.1875 
Q 21.1875 51.21875 25.484375 53.609375 
Q 29.78125 56 35.6875 56 
Q 41.65625 56 45.828125 52.96875 
Q 50 49.953125 52 44.1875 
z
" id="DejaVuSans-6d"/>
      <path d="M 56.203125 29.59375 
L 56.203125 25.203125 
L 14.890625 25.203125 
Q 15.484375 15.921875 20.484375 11.0625 
Q 25.484375 6.203125 34.421875 6.203125 
Q 39.59375 6.203125 44.453125 7.46875 
Q 49.3125 8.734375 54.109375 11.28125 
L 54.109375 2.78125 
Q 49.265625 0.734375 44.1875 -0.34375 
Q 39.109375 -1.421875 33.890625 -1.421875 
Q 20.796875 -1.421875 13.15625 6.1875 
Q 5.515625 13.8125 5.515625 26.8125 
Q 5.515625 40.234375 12.765625 48.109375 
Q 20.015625 56 32.328125 56 
Q 43.359375 56 49.78125 48.890625 
Q 56.203125 41.796875 56.203125 29.59375 
z
M 47.21875 32.234375 
Q 47.125 39.59375 43.09375 43.984375 
Q 39.0625 48.390625 32.421875 48.390625 
Q 24.90625 48.390625 20.390625 44.140625 
Q 15.875 39.890625 15.1875 32.171875 
z
" id="DejaVuSans-65"/>
      <path id="DejaVuSans-20"/>
      <path d="M 31 75.875 
Q 24.46875 64.65625 21.28125 53.65625 
Q 18.109375 42.671875 18.109375 31.390625 
Q 18.109375 20.125 21.3125 9.0625 
Q 24.515625 -2 31 -13.1875 
L 23.1875 -13.1875 
Q 15.875 -1.703125 12.234375 9.375 
Q 8.59375 20.453125 8.59375 31.390625 
Q 8.59375 42.28125 12.203125 53.3125 
Q 15.828125 64.359375 23.1875 75.875 
z
" id="DejaVuSans-28"/>
      <path d="M 44.28125 53.078125 
L 44.28125 44.578125 
Q 40.484375 46.53125 36.375 47.5 
Q 32.28125 48.484375 27.875 48.484375 
Q 21.1875 48.484375 17.84375 46.4375 
Q 14.5 44.390625 14.5 40.28125 
Q 14.5 37.15625 16.890625 35.375 
Q 19.28125 33.59375 26.515625 31.984375 
L 29.59375 31.296875 
Q 39.15625 29.25 43.1875 25.515625 
Q 47.21875 21.78125 47.21875 15.09375 
Q 47.21875 7.46875 41.1875 3.015625 
Q 35.15625 -1.421875 24.609375 -1.421875 
Q 20.21875 -1.421875 15.453125 -0.5625 
Q 10.6875 0.296875 5.421875 2 
L 5.421875 11.28125 
Q 10.40625 8.6875 15.234375 7.390625 
Q 20.0625 6.109375 24.8125 6.109375 
Q 31.15625 6.109375 34.5625 8.28125 
Q 37.984375 10.453125 37.984375 14.40625 
Q 37.984375 18.0625 35.515625 20.015625 
Q 33.0625 21.96875 24.703125 23.78125 
L 21.578125 24.515625 
Q 13.234375 26.265625 9.515625 29.90625 
Q 5.8125 33.546875 5.8125 39.890625 
Q 5.8125 47.609375 11.28125 51.796875 
Q 16.75 56 26.8125 56 
Q 31.78125 56 36.171875 55.265625 
Q 40.578125 54.546875 44.28125 53.078125 
z
" id="DejaVuSans-73"/>
      <path d="M 48.78125 52.59375 
L 48.78125 44.1875 
Q 44.96875 46.296875 41.140625 47.34375 
Q 37.3125 48.390625 33.40625 48.390625 
Q 24.65625 48.390625 19.8125 42.84375 
Q 14.984375 37.3125 14.984375 27.296875 
Q 14.984375 17.28125 19.8125 11.734375 
Q 24.65625 6.203125 33.40625 6.203125 
Q 37.3125 6.203125 41.140625 7.25 
Q 44.96875 8.296875 48.78125 10.40625 
L 48.78125 2.09375 
Q 45.015625 0.34375 40.984375 -0.53125 
Q 36.96875 -1.421875 32.421875 -1.421875 
Q 20.0625 -1.421875 12.78125 6.34375 
Q 5.515625 14.109375 5.515625 27.296875 
Q 5.515625 40.671875 12.859375 48.328125 
Q 20.21875 56 33.015625 56 
Q 37.15625 56 41.109375 55.140625 
Q 45.0625 54.296875 48.78125 52.59375 
z
" id="DejaVuSans-63"/>
      <path d="M 30.609375 48.390625 
Q 23.390625 48.390625 19.1875 42.75 
Q 14.984375 37.109375 14.984375 27.296875 
Q 14.984375 17.484375 19.15625 11.84375 
Q 23.34375 6.203125 30.609375 6.203125 
Q 37.796875 6.203125 41.984375 11.859375 
Q 46.1875 17.53125 46.1875 27.296875 
Q 46.1875 37.015625 41.984375 42.703125 
Q 37.796875 48.390625 30.609375 48.390625 
z
M 30.609375 56 
Q 42.328125 56 49.015625 48.375 
Q 55.71875 40.765625 55.71875 27.296875 
Q 55.71875 13.875 49.015625 6.21875 
Q 42.328125 -1.421875 30.609375 -1.421875 
Q 18.84375 -1.421875 12.171875 6.21875 
Q 5.515625 13.875 5.515625 27.296875 
Q 5.515625 40.765625 12.171875 48.375 
Q 18.84375 56 30.609375 56 
z
" id="DejaVuSans-6f"/>
      <path d="M 54.890625 33.015625 
L 54.890625 0 
L 45.90625 0 
L 45.90625 32.71875 
Q 45.90625 40.484375 42.875 44.328125 
Q 39.84375 48.1875 33.796875 48.1875 
Q 26.515625 48.1875 22.3125 43.546875 
Q 18.109375 38.921875 18.109375 30.90625 
L 18.109375 0 
L 9.078125 0 
L 9.078125 54.6875 
L 18.109375 54.6875 
L 18.109375 46.1875 
Q 21.34375 51.125 25.703125 53.5625 
Q 30.078125 56 35.796875 56 
Q 45.21875 56 50.046875 50.171875 
Q 54.890625 44.34375 54.890625 33.015625 
z
" id="DejaVuSans-6e"/>
      <path d="M 45.40625 46.390625 
L 45.40625 75.984375 
L 54.390625 75.984375 
L 54.390625 0 
L 45.40625 0 
L 45.40625 8.203125 
Q 42.578125 3.328125 38.25 0.953125 
Q 33.9375 -1.421875 27.875 -1.421875 
Q 17.96875 -1.421875 11.734375 6.484375 
Q 5.515625 14.40625 5.515625 27.296875 
Q 5.515625 40.1875 11.734375 48.09375 
Q 17.96875 56 27.875 56 
Q 33.9375 56 38.25 53.625 
Q 42.578125 51.265625 45.40625 46.390625 
z
M 14.796875 27.296875 
Q 14.796875 17.390625 18.875 11.75 
Q 22.953125 6.109375 30.078125 6.109375 
Q 37.203125 6.109375 41.296875 11.75 
Q 45.40625 17.390625 45.40625 27.296875 
Q 45.40625 37.203125 41.296875 42.84375 
Q 37.203125 48.484375 30.078125 48.484375 
Q 22.953125 48.484375 18.875 42.84375 
Q 14.796875 37.203125 14.796875 27.296875 
z
" id="DejaVuSans-64"/>
      <path d="M 8.015625 75.875 
L 15.828125 75.875 
Q 23.140625 64.359375 26.78125 53.3125 
Q 30.421875 42.28125 30.421875 31.390625 
Q 30.421875 20.453125 26.78125 9.375 
Q 23.140625 -1.703125 15.828125 -13.1875 
L 8.015625 -13.1875 
Q 14.5 -2 17.703125 9.0625 
Q 20.90625 20.125 20.90625 31.390625 
Q 20.90625 42.671875 17.703125 53.65625 
Q 14.5 64.65625 8.015625 75.875 
z
" id="DejaVuSans-29"/>
     </defs>
     <g transform="translate(489.684375 319.173178)scale(0.1 -0.1)">
      <use xlink:href="#DejaVuSans-54"/>
      <use x="61.037109" xlink:href="#DejaVuSans-69"/>
      <use x="88.820312" xlink:href="#DejaVuSans-6d"/>
      <use x="186.232422" xlink:href="#DejaVuSans-65"/>
      <use x="247.755859" xlink:href="#DejaVuSans-20"/>
      <use x="279.542969" xlink:href="#DejaVuSans-28"/>
      <use x="318.556641" xlink:href="#DejaVuSans-73"/>
      <use x="370.65625" xlink:href="#DejaVuSans-65"/>
      <use x="432.179688" xlink:href="#DejaVuSans-63"/>
      <use x="487.160156" xlink:href="#DejaVuSans-6f"/>
      <use x="548.341797" xlink:href="#DejaVuSans-6e"/>
      <use x="611.720703" xlink:href="#DejaVuSans-64"/>
      <use x="675.197266" xlink:href="#DejaVuSans-73"/>
      <use x="727.296875" xlink:href="#DejaVuSans-29"/>
     </g>
    </g>
   </g>
   <g id="matplotlib.axis_2">
    <g id="ytick_1">
     <g id="line2d_10">
      <defs>
       <path d="M 0 0 
L -3.5 0 
" id="m16eb1c137a" style="stroke:#000000;stroke-width:0.8;"/>
      </defs>
      <g>
       <use style="stroke:#000000;stroke-width:0.8;" x="230.4" xlink:href="#m16eb1c137a" y="290.896615"/>
      </g>
     </g>
     <g id="text_11">
      <!-- 0 -->
      <g transform="translate(217.0375 294.695834)scale(0.1 -0.1)">
       <use xlink:href="#DejaVuSans-30"/>
      </g>
     </g>
    </g>
    <g id="ytick_2">
     <g id="line2d_11">
      <g>
       <use style="stroke:#000000;stroke-width:0.8;" x="230.4" xlink:href="#m16eb1c137a" y="262.631646"/>
      </g>
     </g>
     <g id="text_12">
      <!-- 2000 -->
      <g transform="translate(197.95 266.430865)scale(0.1 -0.1)">
       <use xlink:href="#DejaVuSans-32"/>
       <use x="63.623047" xlink:href="#DejaVuSans-30"/>
       <use x="127.246094" xlink:href="#DejaVuSans-30"/>
       <use x="190.869141" xlink:href="#DejaVuSans-30"/>
      </g>
     </g>
    </g>
    <g id="ytick_3">
     <g id="line2d_12">
      <g>
       <use style="stroke:#000000;stroke-width:0.8;" x="230.4" xlink:href="#m16eb1c137a" y="234.366677"/>
      </g>
     </g>
     <g id="text_13">
      <!-- 4000 -->
      <g transform="translate(197.95 238.165896)scale(0.1 -0.1)">
       <use xlink:href="#DejaVuSans-34"/>
       <use x="63.623047" xlink:href="#DejaVuSans-30"/>
       <use x="127.246094" xlink:href="#DejaVuSans-30"/>
       <use x="190.869141" xlink:href="#DejaVuSans-30"/>
      </g>
     </g>
    </g>
    <g id="ytick_4">
     <g id="line2d_13">
      <g>
       <use style="stroke:#000000;stroke-width:0.8;" x="230.4" xlink:href="#m16eb1c137a" y="206.101708"/>
      </g>
     </g>
     <g id="text_14">
      <!-- 6000 -->
      <defs>
       <path d="M 33.015625 40.375 
Q 26.375 40.375 22.484375 35.828125 
Q 18.609375 31.296875 18.609375 23.390625 
Q 18.609375 15.53125 22.484375 10.953125 
Q 26.375 6.390625 33.015625 6.390625 
Q 39.65625 6.390625 43.53125 10.953125 
Q 47.40625 15.53125 47.40625 23.390625 
Q 47.40625 31.296875 43.53125 35.828125 
Q 39.65625 40.375 33.015625 40.375 
z
M 52.59375 71.296875 
L 52.59375 62.3125 
Q 48.875 64.0625 45.09375 64.984375 
Q 41.3125 65.921875 37.59375 65.921875 
Q 27.828125 65.921875 22.671875 59.328125 
Q 17.53125 52.734375 16.796875 39.40625 
Q 19.671875 43.65625 24.015625 45.921875 
Q 28.375 48.1875 33.59375 48.1875 
Q 44.578125 48.1875 50.953125 41.515625 
Q 57.328125 34.859375 57.328125 23.390625 
Q 57.328125 12.15625 50.6875 5.359375 
Q 44.046875 -1.421875 33.015625 -1.421875 
Q 20.359375 -1.421875 13.671875 8.265625 
Q 6.984375 17.96875 6.984375 36.375 
Q 6.984375 53.65625 15.1875 63.9375 
Q 23.390625 74.21875 37.203125 74.21875 
Q 40.921875 74.21875 44.703125 73.484375 
Q 48.484375 72.75 52.59375 71.296875 
z
" id="DejaVuSans-36"/>
      </defs>
      <g transform="translate(197.95 209.900926)scale(0.1 -0.1)">
       <use xlink:href="#DejaVuSans-36"/>
       <use x="63.623047" xlink:href="#DejaVuSans-30"/>
       <use x="127.246094" xlink:href="#DejaVuSans-30"/>
       <use x="190.869141" xlink:href="#DejaVuSans-30"/>
      </g>
     </g>
    </g>
    <g id="ytick_5">
     <g id="line2d_14">
      <g>
       <use style="stroke:#000000;stroke-width:0.8;" x="230.4" xlink:href="#m16eb1c137a" y="177.836738"/>
      </g>
     </g>
     <g id="text_15">
      <!-- 8000 -->
      <defs>
       <path d="M 31.78125 34.625 
Q 24.75 34.625 20.71875 30.859375 
Q 16.703125 27.09375 16.703125 20.515625 
Q 16.703125 13.921875 20.71875 10.15625 
Q 24.75 6.390625 31.78125 6.390625 
Q 38.8125 6.390625 42.859375 10.171875 
Q 46.921875 13.96875 46.921875 20.515625 
Q 46.921875 27.09375 42.890625 30.859375 
Q 38.875 34.625 31.78125 34.625 
z
M 21.921875 38.8125 
Q 15.578125 40.375 12.03125 44.71875 
Q 8.5 49.078125 8.5 55.328125 
Q 8.5 64.0625 14.71875 69.140625 
Q 20.953125 74.21875 31.78125 74.21875 
Q 42.671875 74.21875 48.875 69.140625 
Q 55.078125 64.0625 55.078125 55.328125 
Q 55.078125 49.078125 51.53125 44.71875 
Q 48 40.375 41.703125 38.8125 
Q 48.828125 37.15625 52.796875 32.3125 
Q 56.78125 27.484375 56.78125 20.515625 
Q 56.78125 9.90625 50.3125 4.234375 
Q 43.84375 -1.421875 31.78125 -1.421875 
Q 19.734375 -1.421875 13.25 4.234375 
Q 6.78125 9.90625 6.78125 20.515625 
Q 6.78125 27.484375 10.78125 32.3125 
Q 14.796875 37.15625 21.921875 38.8125 
z
M 18.3125 54.390625 
Q 18.3125 48.734375 21.84375 45.5625 
Q 25.390625 42.390625 31.78125 42.390625 
Q 38.140625 42.390625 41.71875 45.5625 
Q 45.3125 48.734375 45.3125 54.390625 
Q 45.3125 60.0625 41.71875 63.234375 
Q 38.140625 66.40625 31.78125 66.40625 
Q 25.390625 66.40625 21.84375 63.234375 
Q 18.3125 60.0625 18.3125 54.390625 
z
" id="DejaVuSans-38"/>
      </defs>
      <g transform="translate(197.95 181.635957)scale(0.1 -0.1)">
       <use xlink:href="#DejaVuSans-38"/>
       <use x="63.623047" xlink:href="#DejaVuSans-30"/>
       <use x="127.246094" xlink:href="#DejaVuSans-30"/>
       <use x="190.869141" xlink:href="#DejaVuSans-30"/>
      </g>
     </g>
    </g>
    <g id="ytick_6">
     <g id="line2d_15">
      <g>
       <use style="stroke:#000000;stroke-width:0.8;" x="230.4" xlink:href="#m16eb1c137a" y="149.571769"/>
      </g>
     </g>
     <g id="text_16">
      <!-- 10000 -->
      <g transform="translate(191.5875 153.370988)scale(0.1 -0.1)">
       <use xlink:href="#DejaVuSans-31"/>
       <use x="63.623047" xlink:href="#DejaVuSans-30"/>
       <use x="127.246094" xlink:href="#DejaVuSans-30"/>
       <use x="190.869141" xlink:href="#DejaVuSans-30"/>
       <use x="254.492188" xlink:href="#DejaVuSans-30"/>
      </g>
     </g>
    </g>
    <g id="ytick_7">
     <g id="line2d_16">
      <g>
       <use style="stroke:#000000;stroke-width:0.8;" x="230.4" xlink:href="#m16eb1c137a" y="121.3068"/>
      </g>
     </g>
     <g id="text_17">
      <!-- 12000 -->
      <g transform="translate(191.5875 125.106019)scale(0.1 -0.1)">
       <use xlink:href="#DejaVuSans-31"/>
       <use x="63.623047" xlink:href="#DejaVuSans-32"/>
       <use x="127.246094" xlink:href="#DejaVuSans-30"/>
       <use x="190.869141" xlink:href="#DejaVuSans-30"/>
       <use x="254.492188" xlink:href="#DejaVuSans-30"/>
      </g>
     </g>
    </g>
    <g id="ytick_8">
     <g id="line2d_17">
      <g>
       <use style="stroke:#000000;stroke-width:0.8;" x="230.4" xlink:href="#m16eb1c137a" y="93.041831"/>
      </g>
     </g>
     <g id="text_18">
      <!-- 14000 -->
      <g transform="translate(191.5875 96.84105)scale(0.1 -0.1)">
       <use xlink:href="#DejaVuSans-31"/>
       <use x="63.623047" xlink:href="#DejaVuSans-34"/>
       <use x="127.246094" xlink:href="#DejaVuSans-30"/>
       <use x="190.869141" xlink:href="#DejaVuSans-30"/>
       <use x="254.492188" xlink:href="#DejaVuSans-30"/>
      </g>
     </g>
    </g>
    <g id="text_19">
     <!-- Number of transactions -->
     <defs>
      <path d="M 9.8125 72.90625 
L 23.09375 72.90625 
L 55.421875 11.921875 
L 55.421875 72.90625 
L 64.984375 72.90625 
L 64.984375 0 
L 51.703125 0 
L 19.390625 60.984375 
L 19.390625 0 
L 9.8125 0 
z
" id="DejaVuSans-4e"/>
      <path d="M 8.5 21.578125 
L 8.5 54.6875 
L 17.484375 54.6875 
L 17.484375 21.921875 
Q 17.484375 14.15625 20.5 10.265625 
Q 23.53125 6.390625 29.59375 6.390625 
Q 36.859375 6.390625 41.078125 11.03125 
Q 45.3125 15.671875 45.3125 23.6875 
L 45.3125 54.6875 
L 54.296875 54.6875 
L 54.296875 0 
L 45.3125 0 
L 45.3125 8.40625 
Q 42.046875 3.421875 37.71875 1 
Q 33.40625 -1.421875 27.6875 -1.421875 
Q 18.265625 -1.421875 13.375 4.4375 
Q 8.5 10.296875 8.5 21.578125 
z
M 31.109375 56 
z
" id="DejaVuSans-75"/>
      <path d="M 48.6875 27.296875 
Q 48.6875 37.203125 44.609375 42.84375 
Q 40.53125 48.484375 33.40625 48.484375 
Q 26.265625 48.484375 22.1875 42.84375 
Q 18.109375 37.203125 18.109375 27.296875 
Q 18.109375 17.390625 22.1875 11.75 
Q 26.265625 6.109375 33.40625 6.109375 
Q 40.53125 6.109375 44.609375 11.75 
Q 48.6875 17.390625 48.6875 27.296875 
z
M 18.109375 46.390625 
Q 20.953125 51.265625 25.265625 53.625 
Q 29.59375 56 35.59375 56 
Q 45.5625 56 51.78125 48.09375 
Q 58.015625 40.1875 58.015625 27.296875 
Q 58.015625 14.40625 51.78125 6.484375 
Q 45.5625 -1.421875 35.59375 -1.421875 
Q 29.59375 -1.421875 25.265625 0.953125 
Q 20.953125 3.328125 18.109375 8.203125 
L 18.109375 0 
L 9.078125 0 
L 9.078125 75.984375 
L 18.109375 75.984375 
z
" id="DejaVuSans-62"/>
      <path d="M 41.109375 46.296875 
Q 39.59375 47.171875 37.8125 47.578125 
Q 36.03125 48 33.890625 48 
Q 26.265625 48 22.1875 43.046875 
Q 18.109375 38.09375 18.109375 28.8125 
L 18.109375 0 
L 9.078125 0 
L 9.078125 54.6875 
L 18.109375 54.6875 
L 18.109375 46.1875 
Q 20.953125 51.171875 25.484375 53.578125 
Q 30.03125 56 36.53125 56 
Q 37.453125 56 38.578125 55.875 
Q 39.703125 55.765625 41.0625 55.515625 
z
" id="DejaVuSans-72"/>
      <path d="M 37.109375 75.984375 
L 37.109375 68.5 
L 28.515625 68.5 
Q 23.6875 68.5 21.796875 66.546875 
Q 19.921875 64.59375 19.921875 59.515625 
L 19.921875 54.6875 
L 34.71875 54.6875 
L 34.71875 47.703125 
L 19.921875 47.703125 
L 19.921875 0 
L 10.890625 0 
L 10.890625 47.703125 
L 2.296875 47.703125 
L 2.296875 54.6875 
L 10.890625 54.6875 
L 10.890625 58.5 
Q 10.890625 67.625 15.140625 71.796875 
Q 19.390625 75.984375 28.609375 75.984375 
z
" id="DejaVuSans-66"/>
      <path d="M 18.3125 70.21875 
L 18.3125 54.6875 
L 36.8125 54.6875 
L 36.8125 47.703125 
L 18.3125 47.703125 
L 18.3125 18.015625 
Q 18.3125 11.328125 20.140625 9.421875 
Q 21.96875 7.515625 27.59375 7.515625 
L 36.8125 7.515625 
L 36.8125 0 
L 27.59375 0 
Q 17.1875 0 13.234375 3.875 
Q 9.28125 7.765625 9.28125 18.015625 
L 9.28125 47.703125 
L 2.6875 47.703125 
L 2.6875 54.6875 
L 9.28125 54.6875 
L 9.28125 70.21875 
z
" id="DejaVuSans-74"/>
      <path d="M 34.28125 27.484375 
Q 23.390625 27.484375 19.1875 25 
Q 14.984375 22.515625 14.984375 16.5 
Q 14.984375 11.71875 18.140625 8.90625 
Q 21.296875 6.109375 26.703125 6.109375 
Q 34.1875 6.109375 38.703125 11.40625 
Q 43.21875 16.703125 43.21875 25.484375 
L 43.21875 27.484375 
z
M 52.203125 31.203125 
L 52.203125 0 
L 43.21875 0 
L 43.21875 8.296875 
Q 40.140625 3.328125 35.546875 0.953125 
Q 30.953125 -1.421875 24.3125 -1.421875 
Q 15.921875 -1.421875 10.953125 3.296875 
Q 6 8.015625 6 15.921875 
Q 6 25.140625 12.171875 29.828125 
Q 18.359375 34.515625 30.609375 34.515625 
L 43.21875 34.515625 
L 43.21875 35.40625 
Q 43.21875 41.609375 39.140625 45 
Q 35.0625 48.390625 27.6875 48.390625 
Q 23 48.390625 18.546875 47.265625 
Q 14.109375 46.140625 10.015625 43.890625 
L 10.015625 52.203125 
Q 14.9375 54.109375 19.578125 55.046875 
Q 24.21875 56 28.609375 56 
Q 40.484375 56 46.34375 49.84375 
Q 52.203125 43.703125 52.203125 31.203125 
z
" id="DejaVuSans-61"/>
     </defs>
     <g transform="translate(185.507812 240.056339)rotate(-90)scale(0.1 -0.1)">
      <use xlink:href="#DejaVuSans-4e"/>
      <use x="74.804688" xlink:href="#DejaVuSans-75"/>
      <use x="138.183594" xlink:href="#DejaVuSans-6d"/>
      <use x="235.595703" xlink:href="#DejaVuSans-62"/>
      <use x="299.072266" xlink:href="#DejaVuSans-65"/>
      <use x="360.595703" xlink:href="#DejaVuSans-72"/>
      <use x="401.708984" xlink:href="#DejaVuSans-20"/>
      <use x="433.496094" xlink:href="#DejaVuSans-6f"/>
      <use x="494.677734" xlink:href="#DejaVuSans-66"/>
      <use x="529.882812" xlink:href="#DejaVuSans-20"/>
      <use x="561.669922" xlink:href="#DejaVuSans-74"/>
      <use x="600.878906" xlink:href="#DejaVuSans-72"/>
      <use x="641.992188" xlink:href="#DejaVuSans-61"/>
      <use x="703.271484" xlink:href="#DejaVuSans-6e"/>
      <use x="766.650391" xlink:href="#DejaVuSans-73"/>
      <use x="818.75" xlink:href="#DejaVuSans-61"/>
      <use x="880.029297" xlink:href="#DejaVuSans-63"/>
      <use x="935.009766" xlink:href="#DejaVuSans-74"/>
      <use x="974.21875" xlink:href="#DejaVuSans-69"/>
      <use x="1002.001953" xlink:href="#DejaVuSans-6f"/>
      <use x="1063.183594" xlink:href="#DejaVuSans-6e"/>
      <use x="1126.5625" xlink:href="#DejaVuSans-73"/>
     </g>
    </g>
   </g>
   <g id="patch_28">
    <path d="M 230.4 290.896615 
L 230.4 71.352 
" style="fill:none;stroke:#000000;stroke-linecap:square;stroke-linejoin:miter;stroke-width:0.8;"/>
   </g>
   <g id="patch_29">
    <path d="M 825.6 290.896615 
L 825.6 71.352 
" style="fill:none;stroke:#000000;stroke-linecap:square;stroke-linejoin:miter;stroke-width:0.8;"/>
   </g>
   <g id="patch_30">
    <path d="M 230.4 290.896615 
L 825.6 290.896615 
" style="fill:none;stroke:#000000;stroke-linecap:square;stroke-linejoin:miter;stroke-width:0.8;"/>
   </g>
   <g id="patch_31">
    <path d="M 230.4 71.352 
L 825.6 71.352 
" style="fill:none;stroke:#000000;stroke-linecap:square;stroke-linejoin:miter;stroke-width:0.8;"/>
   </g>
   <g id="text_20">
    <!-- Time to accept transactions -->
    <defs>
     <path d="M 18.109375 8.203125 
L 18.109375 -20.796875 
L 9.078125 -20.796875 
L 9.078125 54.6875 
L 18.109375 54.6875 
L 18.109375 46.390625 
Q 20.953125 51.265625 25.265625 53.625 
Q 29.59375 56 35.59375 56 
Q 45.5625 56 51.78125 48.09375 
Q 58.015625 40.1875 58.015625 27.296875 
Q 58.015625 14.40625 51.78125 6.484375 
Q 45.5625 -1.421875 35.59375 -1.421875 
Q 29.59375 -1.421875 25.265625 0.953125 
Q 20.953125 3.328125 18.109375 8.203125 
z
M 48.6875 27.296875 
Q 48.6875 37.203125 44.609375 42.84375 
Q 40.53125 48.484375 33.40625 48.484375 
Q 26.265625 48.484375 22.1875 42.84375 
Q 18.109375 37.203125 18.109375 27.296875 
Q 18.109375 17.390625 22.1875 11.75 
Q 26.265625 6.109375 33.40625 6.109375 
Q 40.53125 6.109375 44.609375 11.75 
Q 48.6875 17.390625 48.6875 27.296875 
z
" id="DejaVuSans-70"/>
    </defs>
    <g transform="translate(444.244687 65.352)scale(0.12 -0.12)">
     <use xlink:href="#DejaVuSans-54"/>
     <use x="61.037109" xlink:href="#DejaVuSans-69"/>
     <use x="88.820312" xlink:href="#DejaVuSans-6d"/>
     <use x="186.232422" xlink:href="#DejaVuSans-65"/>
     <use x="247.755859" xlink:href="#DejaVuSans-20"/>
     <use x="279.542969" xlink:href="#DejaVuSans-74"/>
     <use x="318.751953" xlink:href="#DejaVuSans-6f"/>
     <use x="379.933594" xlink:href="#DejaVuSans-20"/>
     <use x="411.720703" xlink:href="#DejaVuSans-61"/>
     <use x="473" xlink:href="#DejaVuSans-63"/>
     <use x="527.980469" xlink:href="#DejaVuSans-63"/>
     <use x="582.960938" xlink:href="#DejaVuSans-65"/>
     <use x="644.484375" xlink:href="#DejaVuSans-70"/>
     <use x="707.960938" xlink:href="#DejaVuSans-74"/>
     <use x="747.169922" xlink:href="#DejaVuSans-20"/>
     <use x="778.957031" xlink:href="#DejaVuSans-74"/>
     <use x="818.166016" xlink:href="#DejaVuSans-72"/>
     <use x="859.279297" xlink:href="#DejaVuSans-61"/>
     <use x="920.558594" xlink:href="#DejaVuSans-6e"/>
     <use x="983.9375" xlink:href="#DejaVuSans-73"/>
     <use x="1036.037109" xlink:href="#DejaVuSans-61"/>
     <use x="1097.316406" xlink:href="#DejaVuSans-63"/>
     <use x="1152.296875" xlink:href="#DejaVuSans-74"/>
     <use x="1191.505859" xlink:href="#DejaVuSans-69"/>
     <use x="1219.289062" xlink:href="#DejaVuSans-6f"/>
     <use x="1280.470703" xlink:href="#DejaVuSans-6e"/>
     <use x="1343.849609" xlink:href="#DejaVuSans-73"/>
    </g>
   </g>
  </g>
  <g id="axes_2">
   <g id="patch_32">
    <path d="M 1063.68 290.896615 
L 1658.88 290.896615 
L 1658.88 71.352 
L 1063.68 71.352 
z
" style="fill:#ffffff;"/>
   </g>
   <g id="PathCollection_1">
    <defs>
     <path d="M 0 0.5 
C 0.132602 0.5 0.25979 0.447317 0.353553 0.353553 
C 0.447317 0.25979 0.5 0.132602 0.5 0 
C 0.5 -0.132602 0.447317 -0.25979 0.353553 -0.353553 
C 0.25979 -0.447317 0.132602 -0.5 0 -0.5 
C -0.132602 -0.5 -0.25979 -0.447317 -0.353553 -0.353553 
C -0.447317 -0.25979 -0.5 -0.132602 -0.5 0 
C -0.5 0.132602 -0.447317 0.25979 -0.353553 0.353553 
C -0.25979 0.447317 -0.132602 0.5 0 0.5 
z
" id="m0d2755b78a" style="stroke:#1f77b4;"/>
    </defs>
    <g clip-path="url(#pdd28d1986a)">
     <use style="fill:#1f77b4;stroke:#1f77b4;" x="1090.805115" xlink:href="#m0d2755b78a" y="155.066272"/>
     <use style="fill:#1f77b4;stroke:#1f77b4;" x="1122.62569" xlink:href="#m0d2755b78a" y="81.331684"/>
     <use style="fill:#1f77b4;stroke:#1f77b4;" x="1154.446265" xlink:href="#m0d2755b78a" y="83.647953"/>
     <use style="fill:#1f77b4;stroke:#1f77b4;" x="1186.266839" xlink:href="#m0d2755b78a" y="157.639906"/>
     <use style="fill:#1f77b4;stroke:#1f77b4;" x="1218.087414" xlink:href="#m0d2755b78a" y="166.51894"/>
     <use style="fill:#1f77b4;stroke:#1f77b4;" x="1249.907989" xlink:href="#m0d2755b78a" y="161.629037"/>
     <use style="fill:#1f77b4;stroke:#1f77b4;" x="1281.728563" xlink:href="#m0d2755b78a" y="130.745439"/>
     <use style="fill:#1f77b4;stroke:#1f77b4;" x="1313.549138" xlink:href="#m0d2755b78a" y="192.641316"/>
     <use style="fill:#1f77b4;stroke:#1f77b4;" x="1345.369713" xlink:href="#m0d2755b78a" y="220.95128"/>
     <use style="fill:#1f77b4;stroke:#1f77b4;" x="1377.190287" xlink:href="#m0d2755b78a" y="82.747182"/>
     <use style="fill:#1f77b4;stroke:#1f77b4;" x="1409.010862" xlink:href="#m0d2755b78a" y="102.692839"/>
     <use style="fill:#1f77b4;stroke:#1f77b4;" x="1440.831437" xlink:href="#m0d2755b78a" y="126.1129"/>
     <use style="fill:#1f77b4;stroke:#1f77b4;" x="1472.652011" xlink:href="#m0d2755b78a" y="214.131152"/>
     <use style="fill:#1f77b4;stroke:#1f77b4;" x="1504.472586" xlink:href="#m0d2755b78a" y="89.56731"/>
     <use style="fill:#1f77b4;stroke:#1f77b4;" x="1536.293161" xlink:href="#m0d2755b78a" y="280.916932"/>
     <use style="fill:#1f77b4;stroke:#1f77b4;" x="1568.113735" xlink:href="#m0d2755b78a" y="280.916932"/>
     <use style="fill:#1f77b4;stroke:#1f77b4;" x="1599.93431" xlink:href="#m0d2755b78a" y="280.916932"/>
     <use style="fill:#1f77b4;stroke:#1f77b4;" x="1631.754885" xlink:href="#m0d2755b78a" y="280.916932"/>
    </g>
   </g>
   <g id="matplotlib.axis_3">
    <g id="xtick_10">
     <g id="line2d_18">
      <g>
       <use style="stroke:#000000;stroke-width:0.8;" x="1090.805115" xlink:href="#mdd6bc8a6b9" y="290.896615"/>
      </g>
     </g>
     <g id="text_21">
      <!-- 0.0 -->
      <g transform="translate(1082.853553 305.495053)scale(0.1 -0.1)">
       <use xlink:href="#DejaVuSans-30"/>
       <use x="63.623047" xlink:href="#DejaVuSans-2e"/>
       <use x="95.410156" xlink:href="#DejaVuSans-30"/>
      </g>
     </g>
    </g>
    <g id="xtick_11">
     <g id="line2d_19">
      <g>
       <use style="stroke:#000000;stroke-width:0.8;" x="1170.356552" xlink:href="#mdd6bc8a6b9" y="290.896615"/>
      </g>
     </g>
     <g id="text_22">
      <!-- 2.5 -->
      <g transform="translate(1162.404989 305.495053)scale(0.1 -0.1)">
       <use xlink:href="#DejaVuSans-32"/>
       <use x="63.623047" xlink:href="#DejaVuSans-2e"/>
       <use x="95.410156" xlink:href="#DejaVuSans-35"/>
      </g>
     </g>
    </g>
    <g id="xtick_12">
     <g id="line2d_20">
      <g>
       <use style="stroke:#000000;stroke-width:0.8;" x="1249.907989" xlink:href="#mdd6bc8a6b9" y="290.896615"/>
      </g>
     </g>
     <g id="text_23">
      <!-- 5.0 -->
      <g transform="translate(1241.956426 305.495053)scale(0.1 -0.1)">
       <use xlink:href="#DejaVuSans-35"/>
       <use x="63.623047" xlink:href="#DejaVuSans-2e"/>
       <use x="95.410156" xlink:href="#DejaVuSans-30"/>
      </g>
     </g>
    </g>
    <g id="xtick_13">
     <g id="line2d_21">
      <g>
       <use style="stroke:#000000;stroke-width:0.8;" x="1329.459425" xlink:href="#mdd6bc8a6b9" y="290.896615"/>
      </g>
     </g>
     <g id="text_24">
      <!-- 7.5 -->
      <defs>
       <path d="M 8.203125 72.90625 
L 55.078125 72.90625 
L 55.078125 68.703125 
L 28.609375 0 
L 18.3125 0 
L 43.21875 64.59375 
L 8.203125 64.59375 
z
" id="DejaVuSans-37"/>
      </defs>
      <g transform="translate(1321.507863 305.495053)scale(0.1 -0.1)">
       <use xlink:href="#DejaVuSans-37"/>
       <use x="63.623047" xlink:href="#DejaVuSans-2e"/>
       <use x="95.410156" xlink:href="#DejaVuSans-35"/>
      </g>
     </g>
    </g>
    <g id="xtick_14">
     <g id="line2d_22">
      <g>
       <use style="stroke:#000000;stroke-width:0.8;" x="1409.010862" xlink:href="#mdd6bc8a6b9" y="290.896615"/>
      </g>
     </g>
     <g id="text_25">
      <!-- 10.0 -->
      <g transform="translate(1397.87805 305.495053)scale(0.1 -0.1)">
       <use xlink:href="#DejaVuSans-31"/>
       <use x="63.623047" xlink:href="#DejaVuSans-30"/>
       <use x="127.246094" xlink:href="#DejaVuSans-2e"/>
       <use x="159.033203" xlink:href="#DejaVuSans-30"/>
      </g>
     </g>
    </g>
    <g id="xtick_15">
     <g id="line2d_23">
      <g>
       <use style="stroke:#000000;stroke-width:0.8;" x="1488.562299" xlink:href="#mdd6bc8a6b9" y="290.896615"/>
      </g>
     </g>
     <g id="text_26">
      <!-- 12.5 -->
      <g transform="translate(1477.429486 305.495053)scale(0.1 -0.1)">
       <use xlink:href="#DejaVuSans-31"/>
       <use x="63.623047" xlink:href="#DejaVuSans-32"/>
       <use x="127.246094" xlink:href="#DejaVuSans-2e"/>
       <use x="159.033203" xlink:href="#DejaVuSans-35"/>
      </g>
     </g>
    </g>
    <g id="xtick_16">
     <g id="line2d_24">
      <g>
       <use style="stroke:#000000;stroke-width:0.8;" x="1568.113735" xlink:href="#mdd6bc8a6b9" y="290.896615"/>
      </g>
     </g>
     <g id="text_27">
      <!-- 15.0 -->
      <g transform="translate(1556.980923 305.495053)scale(0.1 -0.1)">
       <use xlink:href="#DejaVuSans-31"/>
       <use x="63.623047" xlink:href="#DejaVuSans-35"/>
       <use x="127.246094" xlink:href="#DejaVuSans-2e"/>
       <use x="159.033203" xlink:href="#DejaVuSans-30"/>
      </g>
     </g>
    </g>
    <g id="xtick_17">
     <g id="line2d_25">
      <g>
       <use style="stroke:#000000;stroke-width:0.8;" x="1647.665172" xlink:href="#mdd6bc8a6b9" y="290.896615"/>
      </g>
     </g>
     <g id="text_28">
      <!-- 17.5 -->
      <g transform="translate(1636.53236 305.495053)scale(0.1 -0.1)">
       <use xlink:href="#DejaVuSans-31"/>
       <use x="63.623047" xlink:href="#DejaVuSans-37"/>
       <use x="127.246094" xlink:href="#DejaVuSans-2e"/>
       <use x="159.033203" xlink:href="#DejaVuSans-35"/>
      </g>
     </g>
    </g>
    <g id="text_29">
     <!-- Time (seconds) -->
     <g transform="translate(1322.964375 319.173178)scale(0.1 -0.1)">
      <use xlink:href="#DejaVuSans-54"/>
      <use x="61.037109" xlink:href="#DejaVuSans-69"/>
      <use x="88.820312" xlink:href="#DejaVuSans-6d"/>
      <use x="186.232422" xlink:href="#DejaVuSans-65"/>
      <use x="247.755859" xlink:href="#DejaVuSans-20"/>
      <use x="279.542969" xlink:href="#DejaVuSans-28"/>
      <use x="318.556641" xlink:href="#DejaVuSans-73"/>
      <use x="370.65625" xlink:href="#DejaVuSans-65"/>
      <use x="432.179688" xlink:href="#DejaVuSans-63"/>
      <use x="487.160156" xlink:href="#DejaVuSans-6f"/>
      <use x="548.341797" xlink:href="#DejaVuSans-6e"/>
      <use x="611.720703" xlink:href="#DejaVuSans-64"/>
      <use x="675.197266" xlink:href="#DejaVuSans-73"/>
      <use x="727.296875" xlink:href="#DejaVuSans-29"/>
     </g>
    </g>
   </g>
   <g id="matplotlib.axis_4">
    <g id="ytick_9">
     <g id="line2d_26">
      <g>
       <use style="stroke:#000000;stroke-width:0.8;" x="1063.68" xlink:href="#m16eb1c137a" y="280.916932"/>
      </g>
     </g>
     <g id="text_30">
      <!-- 0 -->
      <g transform="translate(1050.3175 284.71615)scale(0.1 -0.1)">
       <use xlink:href="#DejaVuSans-30"/>
      </g>
     </g>
    </g>
    <g id="ytick_10">
     <g id="line2d_27">
      <g>
       <use style="stroke:#000000;stroke-width:0.8;" x="1063.68" xlink:href="#m16eb1c137a" y="255.180601"/>
      </g>
     </g>
     <g id="text_31">
      <!-- 200 -->
      <g transform="translate(1037.5925 258.979819)scale(0.1 -0.1)">
       <use xlink:href="#DejaVuSans-32"/>
       <use x="63.623047" xlink:href="#DejaVuSans-30"/>
       <use x="127.246094" xlink:href="#DejaVuSans-30"/>
      </g>
     </g>
    </g>
    <g id="ytick_11">
     <g id="line2d_28">
      <g>
       <use style="stroke:#000000;stroke-width:0.8;" x="1063.68" xlink:href="#m16eb1c137a" y="229.444269"/>
      </g>
     </g>
     <g id="text_32">
      <!-- 400 -->
      <g transform="translate(1037.5925 233.243488)scale(0.1 -0.1)">
       <use xlink:href="#DejaVuSans-34"/>
       <use x="63.623047" xlink:href="#DejaVuSans-30"/>
       <use x="127.246094" xlink:href="#DejaVuSans-30"/>
      </g>
     </g>
    </g>
    <g id="ytick_12">
     <g id="line2d_29">
      <g>
       <use style="stroke:#000000;stroke-width:0.8;" x="1063.68" xlink:href="#m16eb1c137a" y="203.707938"/>
      </g>
     </g>
     <g id="text_33">
      <!-- 600 -->
      <g transform="translate(1037.5925 207.507157)scale(0.1 -0.1)">
       <use xlink:href="#DejaVuSans-36"/>
       <use x="63.623047" xlink:href="#DejaVuSans-30"/>
       <use x="127.246094" xlink:href="#DejaVuSans-30"/>
      </g>
     </g>
    </g>
    <g id="ytick_13">
     <g id="line2d_30">
      <g>
       <use style="stroke:#000000;stroke-width:0.8;" x="1063.68" xlink:href="#m16eb1c137a" y="177.971607"/>
      </g>
     </g>
     <g id="text_34">
      <!-- 800 -->
      <g transform="translate(1037.5925 181.770826)scale(0.1 -0.1)">
       <use xlink:href="#DejaVuSans-38"/>
       <use x="63.623047" xlink:href="#DejaVuSans-30"/>
       <use x="127.246094" xlink:href="#DejaVuSans-30"/>
      </g>
     </g>
    </g>
    <g id="ytick_14">
     <g id="line2d_31">
      <g>
       <use style="stroke:#000000;stroke-width:0.8;" x="1063.68" xlink:href="#m16eb1c137a" y="152.235276"/>
      </g>
     </g>
     <g id="text_35">
      <!-- 1000 -->
      <g transform="translate(1031.23 156.034495)scale(0.1 -0.1)">
       <use xlink:href="#DejaVuSans-31"/>
       <use x="63.623047" xlink:href="#DejaVuSans-30"/>
       <use x="127.246094" xlink:href="#DejaVuSans-30"/>
       <use x="190.869141" xlink:href="#DejaVuSans-30"/>
      </g>
     </g>
    </g>
    <g id="ytick_15">
     <g id="line2d_32">
      <g>
       <use style="stroke:#000000;stroke-width:0.8;" x="1063.68" xlink:href="#m16eb1c137a" y="126.498945"/>
      </g>
     </g>
     <g id="text_36">
      <!-- 1200 -->
      <g transform="translate(1031.23 130.298164)scale(0.1 -0.1)">
       <use xlink:href="#DejaVuSans-31"/>
       <use x="63.623047" xlink:href="#DejaVuSans-32"/>
       <use x="127.246094" xlink:href="#DejaVuSans-30"/>
       <use x="190.869141" xlink:href="#DejaVuSans-30"/>
      </g>
     </g>
    </g>
    <g id="ytick_16">
     <g id="line2d_33">
      <g>
       <use style="stroke:#000000;stroke-width:0.8;" x="1063.68" xlink:href="#m16eb1c137a" y="100.762614"/>
      </g>
     </g>
     <g id="text_37">
      <!-- 1400 -->
      <g transform="translate(1031.23 104.561832)scale(0.1 -0.1)">
       <use xlink:href="#DejaVuSans-31"/>
       <use x="63.623047" xlink:href="#DejaVuSans-34"/>
       <use x="127.246094" xlink:href="#DejaVuSans-30"/>
       <use x="190.869141" xlink:href="#DejaVuSans-30"/>
      </g>
     </g>
    </g>
    <g id="ytick_17">
     <g id="line2d_34">
      <g>
       <use style="stroke:#000000;stroke-width:0.8;" x="1063.68" xlink:href="#m16eb1c137a" y="75.026283"/>
      </g>
     </g>
     <g id="text_38">
      <!-- 1600 -->
      <g transform="translate(1031.23 78.825501)scale(0.1 -0.1)">
       <use xlink:href="#DejaVuSans-31"/>
       <use x="63.623047" xlink:href="#DejaVuSans-36"/>
       <use x="127.246094" xlink:href="#DejaVuSans-30"/>
       <use x="190.869141" xlink:href="#DejaVuSans-30"/>
      </g>
     </g>
    </g>
    <g id="text_39">
     <!-- Amount -->
     <defs>
      <path d="M 34.1875 63.1875 
L 20.796875 26.90625 
L 47.609375 26.90625 
z
M 28.609375 72.90625 
L 39.796875 72.90625 
L 67.578125 0 
L 57.328125 0 
L 50.6875 18.703125 
L 17.828125 18.703125 
L 11.1875 0 
L 0.78125 0 
z
" id="DejaVuSans-41"/>
     </defs>
     <g transform="translate(1025.150312 200.771964)rotate(-90)scale(0.1 -0.1)">
      <use xlink:href="#DejaVuSans-41"/>
      <use x="68.408203" xlink:href="#DejaVuSans-6d"/>
      <use x="165.820312" xlink:href="#DejaVuSans-6f"/>
      <use x="227.001953" xlink:href="#DejaVuSans-75"/>
      <use x="290.380859" xlink:href="#DejaVuSans-6e"/>
      <use x="353.759766" xlink:href="#DejaVuSans-74"/>
     </g>
    </g>
   </g>
   <g id="patch_33">
    <path d="M 1063.68 290.896615 
L 1063.68 71.352 
" style="fill:none;stroke:#000000;stroke-linecap:square;stroke-linejoin:miter;stroke-width:0.8;"/>
   </g>
   <g id="patch_34">
    <path d="M 1658.88 290.896615 
L 1658.88 71.352 
" style="fill:none;stroke:#000000;stroke-linecap:square;stroke-linejoin:miter;stroke-width:0.8;"/>
   </g>
   <g id="patch_35">
    <path d="M 1063.68 290.896615 
L 1658.88 290.896615 
" style="fill:none;stroke:#000000;stroke-linecap:square;stroke-linejoin:miter;stroke-width:0.8;"/>
   </g>
   <g id="patch_36">
    <path d="M 1063.68 71.352 
L 1658.88 71.352 
" style="fill:none;stroke:#000000;stroke-linecap:square;stroke-linejoin:miter;stroke-width:0.8;"/>
   </g>
   <g id="text_40">
    <g id="patch_37">
     <path d="M 1090.805115 270.448766 
L 1171.300115 270.448766 
Q 1173.700115 270.448766 1173.700115 268.048766 
L 1173.700115 251.348016 
Q 1173.700115 248.948016 1171.300115 248.948016 
L 1090.805115 248.948016 
Q 1088.405115 248.948016 1088.405115 251.348016 
L 1088.405115 268.048766 
Q 1088.405115 270.448766 1090.805115 270.448766 
z
" style="fill:#ffffff;opacity:0.9;stroke:#808080;stroke-linejoin:miter;"/>
    </g>
    <!-- median: 1072.0 tx/s -->
    <defs>
     <path d="M 11.71875 12.40625 
L 22.015625 12.40625 
L 22.015625 0 
L 11.71875 0 
z
M 11.71875 51.703125 
L 22.015625 51.703125 
L 22.015625 39.3125 
L 11.71875 39.3125 
z
" id="DejaVuSans-3a"/>
     <path d="M 54.890625 54.6875 
L 35.109375 28.078125 
L 55.90625 0 
L 45.3125 0 
L 29.390625 21.484375 
L 13.484375 0 
L 2.875 0 
L 24.125 28.609375 
L 4.6875 54.6875 
L 15.28125 54.6875 
L 29.78125 35.203125 
L 44.28125 54.6875 
z
" id="DejaVuSans-78"/>
     <path d="M 25.390625 72.90625 
L 33.6875 72.90625 
L 8.296875 -9.28125 
L 0 -9.28125 
z
" id="DejaVuSans-2f"/>
    </defs>
    <g transform="translate(1090.805115 257.426766)scale(0.08 -0.08)">
     <use xlink:href="#DejaVuSans-6d"/>
     <use x="97.412109" xlink:href="#DejaVuSans-65"/>
     <use x="158.935547" xlink:href="#DejaVuSans-64"/>
     <use x="222.412109" xlink:href="#DejaVuSans-69"/>
     <use x="250.195312" xlink:href="#DejaVuSans-61"/>
     <use x="311.474609" xlink:href="#DejaVuSans-6e"/>
     <use x="374.853516" xlink:href="#DejaVuSans-3a"/>
     <use x="408.544922" xlink:href="#DejaVuSans-20"/>
     <use x="440.332031" xlink:href="#DejaVuSans-31"/>
     <use x="503.955078" xlink:href="#DejaVuSans-30"/>
     <use x="567.578125" xlink:href="#DejaVuSans-37"/>
     <use x="631.201172" xlink:href="#DejaVuSans-32"/>
     <use x="694.824219" xlink:href="#DejaVuSans-2e"/>
     <use x="726.611328" xlink:href="#DejaVuSans-30"/>
     <use x="790.234375" xlink:href="#DejaVuSans-20"/>
     <use x="822.021484" xlink:href="#DejaVuSans-74"/>
     <use x="861.230469" xlink:href="#DejaVuSans-78"/>
     <use x="920.410156" xlink:href="#DejaVuSans-2f"/>
     <use x="954.101562" xlink:href="#DejaVuSans-73"/>
    </g>
    <!-- mean: 1092.0 tx/s -->
    <defs>
     <path d="M 10.984375 1.515625 
L 10.984375 10.5 
Q 14.703125 8.734375 18.5 7.8125 
Q 22.3125 6.890625 25.984375 6.890625 
Q 35.75 6.890625 40.890625 13.453125 
Q 46.046875 20.015625 46.78125 33.40625 
Q 43.953125 29.203125 39.59375 26.953125 
Q 35.25 24.703125 29.984375 24.703125 
Q 19.046875 24.703125 12.671875 31.3125 
Q 6.296875 37.9375 6.296875 49.421875 
Q 6.296875 60.640625 12.9375 67.421875 
Q 19.578125 74.21875 30.609375 74.21875 
Q 43.265625 74.21875 49.921875 64.515625 
Q 56.59375 54.828125 56.59375 36.375 
Q 56.59375 19.140625 48.40625 8.859375 
Q 40.234375 -1.421875 26.421875 -1.421875 
Q 22.703125 -1.421875 18.890625 -0.6875 
Q 15.09375 0.046875 10.984375 1.515625 
z
M 30.609375 32.421875 
Q 37.25 32.421875 41.125 36.953125 
Q 45.015625 41.5 45.015625 49.421875 
Q 45.015625 57.28125 41.125 61.84375 
Q 37.25 66.40625 30.609375 66.40625 
Q 23.96875 66.40625 20.09375 61.84375 
Q 16.21875 57.28125 16.21875 49.421875 
Q 16.21875 41.5 20.09375 36.953125 
Q 23.96875 32.421875 30.609375 32.421875 
z
" id="DejaVuSans-39"/>
    </defs>
    <g transform="translate(1090.805115 266.385016)scale(0.08 -0.08)">
     <use xlink:href="#DejaVuSans-6d"/>
     <use x="97.412109" xlink:href="#DejaVuSans-65"/>
     <use x="158.935547" xlink:href="#DejaVuSans-61"/>
     <use x="220.214844" xlink:href="#DejaVuSans-6e"/>
     <use x="283.59375" xlink:href="#DejaVuSans-3a"/>
     <use x="317.285156" xlink:href="#DejaVuSans-20"/>
     <use x="349.072266" xlink:href="#DejaVuSans-31"/>
     <use x="412.695312" xlink:href="#DejaVuSans-30"/>
     <use x="476.318359" xlink:href="#DejaVuSans-39"/>
     <use x="539.941406" xlink:href="#DejaVuSans-32"/>
     <use x="603.564453" xlink:href="#DejaVuSans-2e"/>
     <use x="635.351562" xlink:href="#DejaVuSans-30"/>
     <use x="698.974609" xlink:href="#DejaVuSans-20"/>
     <use x="730.761719" xlink:href="#DejaVuSans-74"/>
     <use x="769.970703" xlink:href="#DejaVuSans-78"/>
     <use x="829.150391" xlink:href="#DejaVuSans-2f"/>
     <use x="862.841797" xlink:href="#DejaVuSans-73"/>
    </g>
   </g>
   <g id="text_41">
    <!-- Accepted transactions per second -->
    <g transform="translate(1259.11875 65.352)scale(0.12 -0.12)">
     <use xlink:href="#DejaVuSans-41"/>
     <use x="68.392578" xlink:href="#DejaVuSans-63"/>
     <use x="123.373047" xlink:href="#DejaVuSans-63"/>
     <use x="178.353516" xlink:href="#DejaVuSans-65"/>
     <use x="239.876953" xlink:href="#DejaVuSans-70"/>
     <use x="303.353516" xlink:href="#DejaVuSans-74"/>
     <use x="342.5625" xlink:href="#DejaVuSans-65"/>
     <use x="404.085938" xlink:href="#DejaVuSans-64"/>
     <use x="467.5625" xlink:href="#DejaVuSans-20"/>
     <use x="499.349609" xlink:href="#DejaVuSans-74"/>
     <use x="538.558594" xlink:href="#DejaVuSans-72"/>
     <use x="579.671875" xlink:href="#DejaVuSans-61"/>
     <use x="640.951172" xlink:href="#DejaVuSans-6e"/>
     <use x="704.330078" xlink:href="#DejaVuSans-73"/>
     <use x="756.429688" xlink:href="#DejaVuSans-61"/>
     <use x="817.708984" xlink:href="#DejaVuSans-63"/>
     <use x="872.689453" xlink:href="#DejaVuSans-74"/>
     <use x="911.898438" xlink:href="#DejaVuSans-69"/>
     <use x="939.681641" xlink:href="#DejaVuSans-6f"/>
     <use x="1000.863281" xlink:href="#DejaVuSans-6e"/>
     <use x="1064.242188" xlink:href="#DejaVuSans-73"/>
     <use x="1116.341797" xlink:href="#DejaVuSans-20"/>
     <use x="1148.128906" xlink:href="#DejaVuSans-70"/>
     <use x="1211.605469" xlink:href="#DejaVuSans-65"/>
     <use x="1273.128906" xlink:href="#DejaVuSans-72"/>
     <use x="1314.242188" xlink:href="#DejaVuSans-20"/>
     <use x="1346.029297" xlink:href="#DejaVuSans-73"/>
     <use x="1398.128906" xlink:href="#DejaVuSans-65"/>
     <use x="1459.652344" xlink:href="#DejaVuSans-63"/>
     <use x="1514.632812" xlink:href="#DejaVuSans-6f"/>
     <use x="1575.814453" xlink:href="#DejaVuSans-6e"/>
     <use x="1639.193359" xlink:href="#DejaVuSans-64"/>
    </g>
   </g>
  </g>
  <g id="axes_3">
   <g id="patch_38">
    <path d="M 230.4 642.168 
L 825.6 642.168 
L 825.6 422.623385 
L 230.4 422.623385 
z
" style="fill:#ffffff;"/>
   </g>
   <g id="patch_39">
    <path clip-path="url(#p56108003a8)" d="M 257.454545 642.168 
L 279.098182 642.168 
L 279.098182 642.125785 
L 257.454545 642.125785 
z
" style="fill:#1f77b4;"/>
   </g>
   <g id="patch_40">
    <path clip-path="url(#p56108003a8)" d="M 279.098182 642.168 
L 300.741818 642.168 
L 300.741818 642.168 
L 279.098182 642.168 
z
" style="fill:#1f77b4;"/>
   </g>
   <g id="patch_41">
    <path clip-path="url(#p56108003a8)" d="M 300.741818 642.168 
L 322.385455 642.168 
L 322.385455 642.168 
L 300.741818 642.168 
z
" style="fill:#1f77b4;"/>
   </g>
   <g id="patch_42">
    <path clip-path="url(#p56108003a8)" d="M 322.385455 642.168 
L 344.029091 642.168 
L 344.029091 642.168 
L 322.385455 642.168 
z
" style="fill:#1f77b4;"/>
   </g>
   <g id="patch_43">
    <path clip-path="url(#p56108003a8)" d="M 344.029091 642.168 
L 365.672727 642.168 
L 365.672727 642.168 
L 344.029091 642.168 
z
" style="fill:#1f77b4;"/>
   </g>
   <g id="patch_44">
    <path clip-path="url(#p56108003a8)" d="M 365.672727 642.168 
L 387.316364 642.168 
L 387.316364 642.08357 
L 365.672727 642.08357 
z
" style="fill:#1f77b4;"/>
   </g>
   <g id="patch_45">
    <path clip-path="url(#p56108003a8)" d="M 387.316364 642.168 
L 408.96 642.168 
L 408.96 638.453094 
L 387.316364 638.453094 
z
" style="fill:#1f77b4;"/>
   </g>
   <g id="patch_46">
    <path clip-path="url(#p56108003a8)" d="M 408.96 642.168 
L 430.603636 642.168 
L 430.603636 592.607776 
L 408.96 592.607776 
z
" style="fill:#1f77b4;"/>
   </g>
   <g id="patch_47">
    <path clip-path="url(#p56108003a8)" d="M 430.603636 642.168 
L 452.247273 642.168 
L 452.247273 630.516704 
L 430.603636 630.516704 
z
" style="fill:#1f77b4;"/>
   </g>
   <g id="patch_48">
    <path clip-path="url(#p56108003a8)" d="M 452.247273 642.168 
L 473.890909 642.168 
L 473.890909 614.306205 
L 452.247273 614.306205 
z
" style="fill:#1f77b4;"/>
   </g>
   <g id="patch_49">
    <path clip-path="url(#p56108003a8)" d="M 473.890909 642.168 
L 495.534545 642.168 
L 495.534545 591.256901 
L 473.890909 591.256901 
z
" style="fill:#1f77b4;"/>
   </g>
   <g id="patch_50">
    <path clip-path="url(#p56108003a8)" d="M 495.534545 642.168 
L 517.178182 642.168 
L 517.178182 561.326579 
L 495.534545 561.326579 
z
" style="fill:#1f77b4;"/>
   </g>
   <g id="patch_51">
    <path clip-path="url(#p56108003a8)" d="M 517.178182 642.168 
L 538.821818 642.168 
L 538.821818 433.07789 
L 517.178182 433.07789 
z
" style="fill:#1f77b4;"/>
   </g>
   <g id="patch_52">
    <path clip-path="url(#p56108003a8)" d="M 538.821818 642.168 
L 560.465455 642.168 
L 560.465455 632.711876 
L 538.821818 632.711876 
z
" style="fill:#1f77b4;"/>
   </g>
   <g id="patch_53">
    <path clip-path="url(#p56108003a8)" d="M 560.465455 642.168 
L 582.109091 642.168 
L 582.109091 631.318786 
L 560.465455 631.318786 
z
" style="fill:#1f77b4;"/>
   </g>
   <g id="patch_54">
    <path clip-path="url(#p56108003a8)" d="M 582.109091 642.168 
L 603.752727 642.168 
L 603.752727 629.039184 
L 582.109091 629.039184 
z
" style="fill:#1f77b4;"/>
   </g>
   <g id="patch_55">
    <path clip-path="url(#p56108003a8)" d="M 603.752727 642.168 
L 625.396364 642.168 
L 625.396364 598.560069 
L 603.752727 598.560069 
z
" style="fill:#1f77b4;"/>
   </g>
   <g id="patch_56">
    <path clip-path="url(#p56108003a8)" d="M 625.396364 642.168 
L 647.04 642.168 
L 647.04 614.939427 
L 625.396364 614.939427 
z
" style="fill:#1f77b4;"/>
   </g>
   <g id="patch_57">
    <path clip-path="url(#p56108003a8)" d="M 647.04 642.168 
L 668.683636 642.168 
L 668.683636 616.88131 
L 647.04 616.88131 
z
" style="fill:#1f77b4;"/>
   </g>
   <g id="patch_58">
    <path clip-path="url(#p56108003a8)" d="M 668.683636 642.168 
L 690.327273 642.168 
L 690.327273 622.28481 
L 668.683636 622.28481 
z
" style="fill:#1f77b4;"/>
   </g>
   <g id="patch_59">
    <path clip-path="url(#p56108003a8)" d="M 690.327273 642.168 
L 711.970909 642.168 
L 711.970909 618.907622 
L 690.327273 618.907622 
z
" style="fill:#1f77b4;"/>
   </g>
   <g id="patch_60">
    <path clip-path="url(#p56108003a8)" d="M 711.970909 642.168 
L 733.614545 642.168 
L 733.614545 603.077057 
L 711.970909 603.077057 
z
" style="fill:#1f77b4;"/>
   </g>
   <g id="patch_61">
    <path clip-path="url(#p56108003a8)" d="M 733.614545 642.168 
L 755.258182 642.168 
L 755.258182 621.440513 
L 733.614545 621.440513 
z
" style="fill:#1f77b4;"/>
   </g>
   <g id="patch_62">
    <path clip-path="url(#p56108003a8)" d="M 755.258182 642.168 
L 776.901818 642.168 
L 776.901818 633.725032 
L 755.258182 633.725032 
z
" style="fill:#1f77b4;"/>
   </g>
   <g id="patch_63">
    <path clip-path="url(#p56108003a8)" d="M 776.901818 642.168 
L 798.545455 642.168 
L 798.545455 641.450348 
L 776.901818 641.450348 
z
" style="fill:#1f77b4;"/>
   </g>
   <g id="matplotlib.axis_5">
    <g id="xtick_18">
     <g id="line2d_35">
      <g>
       <use style="stroke:#000000;stroke-width:0.8;" x="327.482669" xlink:href="#mdd6bc8a6b9" y="642.168"/>
      </g>
     </g>
     <g id="text_42">
      <!-- 1 -->
      <g transform="translate(324.301419 656.766438)scale(0.1 -0.1)">
       <use xlink:href="#DejaVuSans-31"/>
      </g>
     </g>
    </g>
    <g id="xtick_19">
     <g id="line2d_36">
      <g>
       <use style="stroke:#000000;stroke-width:0.8;" x="457.646467" xlink:href="#mdd6bc8a6b9" y="642.168"/>
      </g>
     </g>
     <g id="text_43">
      <!-- 2 -->
      <g transform="translate(454.465217 656.766438)scale(0.1 -0.1)">
       <use xlink:href="#DejaVuSans-32"/>
      </g>
     </g>
    </g>
    <g id="xtick_20">
     <g id="line2d_37">
      <g>
       <use style="stroke:#000000;stroke-width:0.8;" x="587.810265" xlink:href="#mdd6bc8a6b9" y="642.168"/>
      </g>
     </g>
     <g id="text_44">
      <!-- 3 -->
      <g transform="translate(584.629015 656.766438)scale(0.1 -0.1)">
       <use xlink:href="#DejaVuSans-33"/>
      </g>
     </g>
    </g>
    <g id="xtick_21">
     <g id="line2d_38">
      <g>
       <use style="stroke:#000000;stroke-width:0.8;" x="717.974063" xlink:href="#mdd6bc8a6b9" y="642.168"/>
      </g>
     </g>
     <g id="text_45">
      <!-- 4 -->
      <g transform="translate(714.792813 656.766438)scale(0.1 -0.1)">
       <use xlink:href="#DejaVuSans-34"/>
      </g>
     </g>
    </g>
    <g id="text_46">
     <!-- Time (seconds) -->
     <g transform="translate(489.684375 670.444562)scale(0.1 -0.1)">
      <use xlink:href="#DejaVuSans-54"/>
      <use x="61.037109" xlink:href="#DejaVuSans-69"/>
      <use x="88.820312" xlink:href="#DejaVuSans-6d"/>
      <use x="186.232422" xlink:href="#DejaVuSans-65"/>
      <use x="247.755859" xlink:href="#DejaVuSans-20"/>
      <use x="279.542969" xlink:href="#DejaVuSans-28"/>
      <use x="318.556641" xlink:href="#DejaVuSans-73"/>
      <use x="370.65625" xlink:href="#DejaVuSans-65"/>
      <use x="432.179688" xlink:href="#DejaVuSans-63"/>
      <use x="487.160156" xlink:href="#DejaVuSans-6f"/>
      <use x="548.341797" xlink:href="#DejaVuSans-6e"/>
      <use x="611.720703" xlink:href="#DejaVuSans-64"/>
      <use x="675.197266" xlink:href="#DejaVuSans-73"/>
      <use x="727.296875" xlink:href="#DejaVuSans-29"/>
     </g>
    </g>
   </g>
   <g id="matplotlib.axis_6">
    <g id="ytick_18">
     <g id="line2d_39">
      <g>
       <use style="stroke:#000000;stroke-width:0.8;" x="230.4" xlink:href="#m16eb1c137a" y="642.168"/>
      </g>
     </g>
     <g id="text_47">
      <!-- 0 -->
      <g transform="translate(217.0375 645.967219)scale(0.1 -0.1)">
       <use xlink:href="#DejaVuSans-30"/>
      </g>
     </g>
    </g>
    <g id="ytick_19">
     <g id="line2d_40">
      <g>
       <use style="stroke:#000000;stroke-width:0.8;" x="230.4" xlink:href="#m16eb1c137a" y="599.953159"/>
      </g>
     </g>
     <g id="text_48">
      <!-- 1000 -->
      <g transform="translate(197.95 603.752377)scale(0.1 -0.1)">
       <use xlink:href="#DejaVuSans-31"/>
       <use x="63.623047" xlink:href="#DejaVuSans-30"/>
       <use x="127.246094" xlink:href="#DejaVuSans-30"/>
       <use x="190.869141" xlink:href="#DejaVuSans-30"/>
      </g>
     </g>
    </g>
    <g id="ytick_20">
     <g id="line2d_41">
      <g>
       <use style="stroke:#000000;stroke-width:0.8;" x="230.4" xlink:href="#m16eb1c137a" y="557.738317"/>
      </g>
     </g>
     <g id="text_49">
      <!-- 2000 -->
      <g transform="translate(197.95 561.537536)scale(0.1 -0.1)">
       <use xlink:href="#DejaVuSans-32"/>
       <use x="63.623047" xlink:href="#DejaVuSans-30"/>
       <use x="127.246094" xlink:href="#DejaVuSans-30"/>
       <use x="190.869141" xlink:href="#DejaVuSans-30"/>
      </g>
     </g>
    </g>
    <g id="ytick_21">
     <g id="line2d_42">
      <g>
       <use style="stroke:#000000;stroke-width:0.8;" x="230.4" xlink:href="#m16eb1c137a" y="515.523476"/>
      </g>
     </g>
     <g id="text_50">
      <!-- 3000 -->
      <g transform="translate(197.95 519.322694)scale(0.1 -0.1)">
       <use xlink:href="#DejaVuSans-33"/>
       <use x="63.623047" xlink:href="#DejaVuSans-30"/>
       <use x="127.246094" xlink:href="#DejaVuSans-30"/>
       <use x="190.869141" xlink:href="#DejaVuSans-30"/>
      </g>
     </g>
    </g>
    <g id="ytick_22">
     <g id="line2d_43">
      <g>
       <use style="stroke:#000000;stroke-width:0.8;" x="230.4" xlink:href="#m16eb1c137a" y="473.308634"/>
      </g>
     </g>
     <g id="text_51">
      <!-- 4000 -->
      <g transform="translate(197.95 477.107853)scale(0.1 -0.1)">
       <use xlink:href="#DejaVuSans-34"/>
       <use x="63.623047" xlink:href="#DejaVuSans-30"/>
       <use x="127.246094" xlink:href="#DejaVuSans-30"/>
       <use x="190.869141" xlink:href="#DejaVuSans-30"/>
      </g>
     </g>
    </g>
    <g id="ytick_23">
     <g id="line2d_44">
      <g>
       <use style="stroke:#000000;stroke-width:0.8;" x="230.4" xlink:href="#m16eb1c137a" y="431.093793"/>
      </g>
     </g>
     <g id="text_52">
      <!-- 5000 -->
      <g transform="translate(197.95 434.893011)scale(0.1 -0.1)">
       <use xlink:href="#DejaVuSans-35"/>
       <use x="63.623047" xlink:href="#DejaVuSans-30"/>
       <use x="127.246094" xlink:href="#DejaVuSans-30"/>
       <use x="190.869141" xlink:href="#DejaVuSans-30"/>
      </g>
     </g>
    </g>
    <g id="text_53">
     <!-- Number of transactions -->
     <g transform="translate(191.870312 591.327724)rotate(-90)scale(0.1 -0.1)">
      <use xlink:href="#DejaVuSans-4e"/>
      <use x="74.804688" xlink:href="#DejaVuSans-75"/>
      <use x="138.183594" xlink:href="#DejaVuSans-6d"/>
      <use x="235.595703" xlink:href="#DejaVuSans-62"/>
      <use x="299.072266" xlink:href="#DejaVuSans-65"/>
      <use x="360.595703" xlink:href="#DejaVuSans-72"/>
      <use x="401.708984" xlink:href="#DejaVuSans-20"/>
      <use x="433.496094" xlink:href="#DejaVuSans-6f"/>
      <use x="494.677734" xlink:href="#DejaVuSans-66"/>
      <use x="529.882812" xlink:href="#DejaVuSans-20"/>
      <use x="561.669922" xlink:href="#DejaVuSans-74"/>
      <use x="600.878906" xlink:href="#DejaVuSans-72"/>
      <use x="641.992188" xlink:href="#DejaVuSans-61"/>
      <use x="703.271484" xlink:href="#DejaVuSans-6e"/>
      <use x="766.650391" xlink:href="#DejaVuSans-73"/>
      <use x="818.75" xlink:href="#DejaVuSans-61"/>
      <use x="880.029297" xlink:href="#DejaVuSans-63"/>
      <use x="935.009766" xlink:href="#DejaVuSans-74"/>
      <use x="974.21875" xlink:href="#DejaVuSans-69"/>
      <use x="1002.001953" xlink:href="#DejaVuSans-6f"/>
      <use x="1063.183594" xlink:href="#DejaVuSans-6e"/>
      <use x="1126.5625" xlink:href="#DejaVuSans-73"/>
     </g>
    </g>
   </g>
   <g id="patch_64">
    <path d="M 230.4 642.168 
L 230.4 422.623385 
" style="fill:none;stroke:#000000;stroke-linecap:square;stroke-linejoin:miter;stroke-width:0.8;"/>
   </g>
   <g id="patch_65">
    <path d="M 825.6 642.168 
L 825.6 422.623385 
" style="fill:none;stroke:#000000;stroke-linecap:square;stroke-linejoin:miter;stroke-width:0.8;"/>
   </g>
   <g id="patch_66">
    <path d="M 230.4 642.168 
L 825.6 642.168 
" style="fill:none;stroke:#000000;stroke-linecap:square;stroke-linejoin:miter;stroke-width:0.8;"/>
   </g>
   <g id="patch_67">
    <path d="M 230.4 422.623385 
L 825.6 422.623385 
" style="fill:none;stroke:#000000;stroke-linecap:square;stroke-linejoin:miter;stroke-width:0.8;"/>
   </g>
   <g id="text_54">
    <!-- Time to finalize transactions -->
    <defs>
     <path d="M 9.421875 75.984375 
L 18.40625 75.984375 
L 18.40625 0 
L 9.421875 0 
z
" id="DejaVuSans-6c"/>
     <path d="M 5.515625 54.6875 
L 48.1875 54.6875 
L 48.1875 46.484375 
L 14.40625 7.171875 
L 48.1875 7.171875 
L 48.1875 0 
L 4.296875 0 
L 4.296875 8.203125 
L 38.09375 47.515625 
L 5.515625 47.515625 
z
" id="DejaVuSans-7a"/>
    </defs>
    <g transform="translate(442.939687 416.623385)scale(0.12 -0.12)">
     <use xlink:href="#DejaVuSans-54"/>
     <use x="61.037109" xlink:href="#DejaVuSans-69"/>
     <use x="88.820312" xlink:href="#DejaVuSans-6d"/>
     <use x="186.232422" xlink:href="#DejaVuSans-65"/>
     <use x="247.755859" xlink:href="#DejaVuSans-20"/>
     <use x="279.542969" xlink:href="#DejaVuSans-74"/>
     <use x="318.751953" xlink:href="#DejaVuSans-6f"/>
     <use x="379.933594" xlink:href="#DejaVuSans-20"/>
     <use x="411.720703" xlink:href="#DejaVuSans-66"/>
     <use x="446.925781" xlink:href="#DejaVuSans-69"/>
     <use x="474.708984" xlink:href="#DejaVuSans-6e"/>
     <use x="538.087891" xlink:href="#DejaVuSans-61"/>
     <use x="599.367188" xlink:href="#DejaVuSans-6c"/>
     <use x="627.150391" xlink:href="#DejaVuSans-69"/>
     <use x="654.933594" xlink:href="#DejaVuSans-7a"/>
     <use x="707.423828" xlink:href="#DejaVuSans-65"/>
     <use x="768.947266" xlink:href="#DejaVuSans-20"/>
     <use x="800.734375" xlink:href="#DejaVuSans-74"/>
     <use x="839.943359" xlink:href="#DejaVuSans-72"/>
     <use x="881.056641" xlink:href="#DejaVuSans-61"/>
     <use x="942.335938" xlink:href="#DejaVuSans-6e"/>
     <use x="1005.714844" xlink:href="#DejaVuSans-73"/>
     <use x="1057.814453" xlink:href="#DejaVuSans-61"/>
     <use x="1119.09375" xlink:href="#DejaVuSans-63"/>
     <use x="1174.074219" xlink:href="#DejaVuSans-74"/>
     <use x="1213.283203" xlink:href="#DejaVuSans-69"/>
     <use x="1241.066406" xlink:href="#DejaVuSans-6f"/>
     <use x="1302.248047" xlink:href="#DejaVuSans-6e"/>
     <use x="1365.626953" xlink:href="#DejaVuSans-73"/>
    </g>
   </g>
  </g>
  <g id="axes_4">
   <g id="patch_68">
    <path d="M 1063.68 642.168 
L 1658.88 642.168 
L 1658.88 422.623385 
L 1063.68 422.623385 
z
" style="fill:#ffffff;"/>
   </g>
   <g id="PathCollection_2">
    <g clip-path="url(#p784b2fa5ef)">
     <use style="fill:#1f77b4;stroke:#1f77b4;" x="1090.805115" xlink:href="#m0d2755b78a" y="632.089008"/>
     <use style="fill:#1f77b4;stroke:#1f77b4;" x="1122.62569" xlink:href="#m0d2755b78a" y="632.188403"/>
     <use style="fill:#1f77b4;stroke:#1f77b4;" x="1154.446265" xlink:href="#m0d2755b78a" y="504.763846"/>
     <use style="fill:#1f77b4;stroke:#1f77b4;" x="1186.266839" xlink:href="#m0d2755b78a" y="575.135598"/>
     <use style="fill:#1f77b4;stroke:#1f77b4;" x="1218.087414" xlink:href="#m0d2755b78a" y="523.05255"/>
     <use style="fill:#1f77b4;stroke:#1f77b4;" x="1249.907989" xlink:href="#m0d2755b78a" y="522.257389"/>
     <use style="fill:#1f77b4;stroke:#1f77b4;" x="1281.728563" xlink:href="#m0d2755b78a" y="496.51405"/>
     <use style="fill:#1f77b4;stroke:#1f77b4;" x="1313.549138" xlink:href="#m0d2755b78a" y="501.285016"/>
     <use style="fill:#1f77b4;stroke:#1f77b4;" x="1345.369713" xlink:href="#m0d2755b78a" y="632.188403"/>
     <use style="fill:#1f77b4;stroke:#1f77b4;" x="1377.190287" xlink:href="#m0d2755b78a" y="497.706792"/>
     <use style="fill:#1f77b4;stroke:#1f77b4;" x="1409.010862" xlink:href="#m0d2755b78a" y="521.760413"/>
     <use style="fill:#1f77b4;stroke:#1f77b4;" x="1440.831437" xlink:href="#m0d2755b78a" y="530.507185"/>
     <use style="fill:#1f77b4;stroke:#1f77b4;" x="1472.652011" xlink:href="#m0d2755b78a" y="443.43705"/>
     <use style="fill:#1f77b4;stroke:#1f77b4;" x="1504.472586" xlink:href="#m0d2755b78a" y="632.188403"/>
     <use style="fill:#1f77b4;stroke:#1f77b4;" x="1536.293161" xlink:href="#m0d2755b78a" y="632.188403"/>
     <use style="fill:#1f77b4;stroke:#1f77b4;" x="1568.113735" xlink:href="#m0d2755b78a" y="467.888253"/>
     <use style="fill:#1f77b4;stroke:#1f77b4;" x="1599.93431" xlink:href="#m0d2755b78a" y="611.315426"/>
     <use style="fill:#1f77b4;stroke:#1f77b4;" x="1631.754885" xlink:href="#m0d2755b78a" y="432.602981"/>
    </g>
   </g>
   <g id="matplotlib.axis_7">
    <g id="xtick_22">
     <g id="line2d_45">
      <g>
       <use style="stroke:#000000;stroke-width:0.8;" x="1090.805115" xlink:href="#mdd6bc8a6b9" y="642.168"/>
      </g>
     </g>
     <g id="text_55">
      <!-- 0.0 -->
      <g transform="translate(1082.853553 656.766438)scale(0.1 -0.1)">
       <use xlink:href="#DejaVuSans-30"/>
       <use x="63.623047" xlink:href="#DejaVuSans-2e"/>
       <use x="95.410156" xlink:href="#DejaVuSans-30"/>
      </g>
     </g>
    </g>
    <g id="xtick_23">
     <g id="line2d_46">
      <g>
       <use style="stroke:#000000;stroke-width:0.8;" x="1170.356552" xlink:href="#mdd6bc8a6b9" y="642.168"/>
      </g>
     </g>
     <g id="text_56">
      <!-- 2.5 -->
      <g transform="translate(1162.404989 656.766438)scale(0.1 -0.1)">
       <use xlink:href="#DejaVuSans-32"/>
       <use x="63.623047" xlink:href="#DejaVuSans-2e"/>
       <use x="95.410156" xlink:href="#DejaVuSans-35"/>
      </g>
     </g>
    </g>
    <g id="xtick_24">
     <g id="line2d_47">
      <g>
       <use style="stroke:#000000;stroke-width:0.8;" x="1249.907989" xlink:href="#mdd6bc8a6b9" y="642.168"/>
      </g>
     </g>
     <g id="text_57">
      <!-- 5.0 -->
      <g transform="translate(1241.956426 656.766438)scale(0.1 -0.1)">
       <use xlink:href="#DejaVuSans-35"/>
       <use x="63.623047" xlink:href="#DejaVuSans-2e"/>
       <use x="95.410156" xlink:href="#DejaVuSans-30"/>
      </g>
     </g>
    </g>
    <g id="xtick_25">
     <g id="line2d_48">
      <g>
       <use style="stroke:#000000;stroke-width:0.8;" x="1329.459425" xlink:href="#mdd6bc8a6b9" y="642.168"/>
      </g>
     </g>
     <g id="text_58">
      <!-- 7.5 -->
      <g transform="translate(1321.507863 656.766438)scale(0.1 -0.1)">
       <use xlink:href="#DejaVuSans-37"/>
       <use x="63.623047" xlink:href="#DejaVuSans-2e"/>
       <use x="95.410156" xlink:href="#DejaVuSans-35"/>
      </g>
     </g>
    </g>
    <g id="xtick_26">
     <g id="line2d_49">
      <g>
       <use style="stroke:#000000;stroke-width:0.8;" x="1409.010862" xlink:href="#mdd6bc8a6b9" y="642.168"/>
      </g>
     </g>
     <g id="text_59">
      <!-- 10.0 -->
      <g transform="translate(1397.87805 656.766438)scale(0.1 -0.1)">
       <use xlink:href="#DejaVuSans-31"/>
       <use x="63.623047" xlink:href="#DejaVuSans-30"/>
       <use x="127.246094" xlink:href="#DejaVuSans-2e"/>
       <use x="159.033203" xlink:href="#DejaVuSans-30"/>
      </g>
     </g>
    </g>
    <g id="xtick_27">
     <g id="line2d_50">
      <g>
       <use style="stroke:#000000;stroke-width:0.8;" x="1488.562299" xlink:href="#mdd6bc8a6b9" y="642.168"/>
      </g>
     </g>
     <g id="text_60">
      <!-- 12.5 -->
      <g transform="translate(1477.429486 656.766438)scale(0.1 -0.1)">
       <use xlink:href="#DejaVuSans-31"/>
       <use x="63.623047" xlink:href="#DejaVuSans-32"/>
       <use x="127.246094" xlink:href="#DejaVuSans-2e"/>
       <use x="159.033203" xlink:href="#DejaVuSans-35"/>
      </g>
     </g>
    </g>
    <g id="xtick_28">
     <g id="line2d_51">
      <g>
       <use style="stroke:#000000;stroke-width:0.8;" x="1568.113735" xlink:href="#mdd6bc8a6b9" y="642.168"/>
      </g>
     </g>
     <g id="text_61">
      <!-- 15.0 -->
      <g transform="translate(1556.980923 656.766438)scale(0.1 -0.1)">
       <use xlink:href="#DejaVuSans-31"/>
       <use x="63.623047" xlink:href="#DejaVuSans-35"/>
       <use x="127.246094" xlink:href="#DejaVuSans-2e"/>
       <use x="159.033203" xlink:href="#DejaVuSans-30"/>
      </g>
     </g>
    </g>
    <g id="xtick_29">
     <g id="line2d_52">
      <g>
       <use style="stroke:#000000;stroke-width:0.8;" x="1647.665172" xlink:href="#mdd6bc8a6b9" y="642.168"/>
      </g>
     </g>
     <g id="text_62">
      <!-- 17.5 -->
      <g transform="translate(1636.53236 656.766438)scale(0.1 -0.1)">
       <use xlink:href="#DejaVuSans-31"/>
       <use x="63.623047" xlink:href="#DejaVuSans-37"/>
       <use x="127.246094" xlink:href="#DejaVuSans-2e"/>
       <use x="159.033203" xlink:href="#DejaVuSans-35"/>
      </g>
     </g>
    </g>
    <g id="text_63">
     <!-- Seconds -->
     <defs>
      <path d="M 53.515625 70.515625 
L 53.515625 60.890625 
Q 47.90625 63.578125 42.921875 64.890625 
Q 37.9375 66.21875 33.296875 66.21875 
Q 25.25 66.21875 20.875 63.09375 
Q 16.5 59.96875 16.5 54.203125 
Q 16.5 49.359375 19.40625 46.890625 
Q 22.3125 44.4375 30.421875 42.921875 
L 36.375 41.703125 
Q 47.40625 39.59375 52.65625 34.296875 
Q 57.90625 29 57.90625 20.125 
Q 57.90625 9.515625 50.796875 4.046875 
Q 43.703125 -1.421875 29.984375 -1.421875 
Q 24.8125 -1.421875 18.96875 -0.25 
Q 13.140625 0.921875 6.890625 3.21875 
L 6.890625 13.375 
Q 12.890625 10.015625 18.65625 8.296875 
Q 24.421875 6.59375 29.984375 6.59375 
Q 38.421875 6.59375 43.015625 9.90625 
Q 47.609375 13.234375 47.609375 19.390625 
Q 47.609375 24.75 44.3125 27.78125 
Q 41.015625 30.8125 33.5 32.328125 
L 27.484375 33.5 
Q 16.453125 35.6875 11.515625 40.375 
Q 6.59375 45.0625 6.59375 53.421875 
Q 6.59375 63.09375 13.40625 68.65625 
Q 20.21875 74.21875 32.171875 74.21875 
Q 37.3125 74.21875 42.625 73.28125 
Q 47.953125 72.359375 53.515625 70.515625 
z
" id="DejaVuSans-53"/>
     </defs>
     <g transform="translate(1340.272969 670.444562)scale(0.1 -0.1)">
      <use xlink:href="#DejaVuSans-53"/>
      <use x="63.476562" xlink:href="#DejaVuSans-65"/>
      <use x="125" xlink:href="#DejaVuSans-63"/>
      <use x="179.980469" xlink:href="#DejaVuSans-6f"/>
      <use x="241.162109" xlink:href="#DejaVuSans-6e"/>
      <use x="304.541016" xlink:href="#DejaVuSans-64"/>
      <use x="368.017578" xlink:href="#DejaVuSans-73"/>
     </g>
    </g>
   </g>
   <g id="matplotlib.axis_8">
    <g id="ytick_24">
     <g id="line2d_53">
      <g>
       <use style="stroke:#000000;stroke-width:0.8;" x="1063.68" xlink:href="#m16eb1c137a" y="632.188403"/>
      </g>
     </g>
     <g id="text_64">
      <!-- 0 -->
      <g transform="translate(1050.3175 635.987622)scale(0.1 -0.1)">
       <use xlink:href="#DejaVuSans-30"/>
      </g>
     </g>
    </g>
    <g id="ytick_25">
     <g id="line2d_54">
      <g>
       <use style="stroke:#000000;stroke-width:0.8;" x="1063.68" xlink:href="#m16eb1c137a" y="607.339621"/>
      </g>
     </g>
     <g id="text_65">
      <!-- 250 -->
      <g transform="translate(1037.5925 611.13884)scale(0.1 -0.1)">
       <use xlink:href="#DejaVuSans-32"/>
       <use x="63.623047" xlink:href="#DejaVuSans-35"/>
       <use x="127.246094" xlink:href="#DejaVuSans-30"/>
      </g>
     </g>
    </g>
    <g id="ytick_26">
     <g id="line2d_55">
      <g>
       <use style="stroke:#000000;stroke-width:0.8;" x="1063.68" xlink:href="#m16eb1c137a" y="582.490838"/>
      </g>
     </g>
     <g id="text_66">
      <!-- 500 -->
      <g transform="translate(1037.5925 586.290057)scale(0.1 -0.1)">
       <use xlink:href="#DejaVuSans-35"/>
       <use x="63.623047" xlink:href="#DejaVuSans-30"/>
       <use x="127.246094" xlink:href="#DejaVuSans-30"/>
      </g>
     </g>
    </g>
    <g id="ytick_27">
     <g id="line2d_56">
      <g>
       <use style="stroke:#000000;stroke-width:0.8;" x="1063.68" xlink:href="#m16eb1c137a" y="557.642055"/>
      </g>
     </g>
     <g id="text_67">
      <!-- 750 -->
      <g transform="translate(1037.5925 561.441274)scale(0.1 -0.1)">
       <use xlink:href="#DejaVuSans-37"/>
       <use x="63.623047" xlink:href="#DejaVuSans-35"/>
       <use x="127.246094" xlink:href="#DejaVuSans-30"/>
      </g>
     </g>
    </g>
    <g id="ytick_28">
     <g id="line2d_57">
      <g>
       <use style="stroke:#000000;stroke-width:0.8;" x="1063.68" xlink:href="#m16eb1c137a" y="532.793273"/>
      </g>
     </g>
     <g id="text_68">
      <!-- 1000 -->
      <g transform="translate(1031.23 536.592492)scale(0.1 -0.1)">
       <use xlink:href="#DejaVuSans-31"/>
       <use x="63.623047" xlink:href="#DejaVuSans-30"/>
       <use x="127.246094" xlink:href="#DejaVuSans-30"/>
       <use x="190.869141" xlink:href="#DejaVuSans-30"/>
      </g>
     </g>
    </g>
    <g id="ytick_29">
     <g id="line2d_58">
      <g>
       <use style="stroke:#000000;stroke-width:0.8;" x="1063.68" xlink:href="#m16eb1c137a" y="507.94449"/>
      </g>
     </g>
     <g id="text_69">
      <!-- 1250 -->
      <g transform="translate(1031.23 511.743709)scale(0.1 -0.1)">
       <use xlink:href="#DejaVuSans-31"/>
       <use x="63.623047" xlink:href="#DejaVuSans-32"/>
       <use x="127.246094" xlink:href="#DejaVuSans-35"/>
       <use x="190.869141" xlink:href="#DejaVuSans-30"/>
      </g>
     </g>
    </g>
    <g id="ytick_30">
     <g id="line2d_59">
      <g>
       <use style="stroke:#000000;stroke-width:0.8;" x="1063.68" xlink:href="#m16eb1c137a" y="483.095708"/>
      </g>
     </g>
     <g id="text_70">
      <!-- 1500 -->
      <g transform="translate(1031.23 486.894926)scale(0.1 -0.1)">
       <use xlink:href="#DejaVuSans-31"/>
       <use x="63.623047" xlink:href="#DejaVuSans-35"/>
       <use x="127.246094" xlink:href="#DejaVuSans-30"/>
       <use x="190.869141" xlink:href="#DejaVuSans-30"/>
      </g>
     </g>
    </g>
    <g id="ytick_31">
     <g id="line2d_60">
      <g>
       <use style="stroke:#000000;stroke-width:0.8;" x="1063.68" xlink:href="#m16eb1c137a" y="458.246925"/>
      </g>
     </g>
     <g id="text_71">
      <!-- 1750 -->
      <g transform="translate(1031.23 462.046144)scale(0.1 -0.1)">
       <use xlink:href="#DejaVuSans-31"/>
       <use x="63.623047" xlink:href="#DejaVuSans-37"/>
       <use x="127.246094" xlink:href="#DejaVuSans-35"/>
       <use x="190.869141" xlink:href="#DejaVuSans-30"/>
      </g>
     </g>
    </g>
    <g id="ytick_32">
     <g id="line2d_61">
      <g>
       <use style="stroke:#000000;stroke-width:0.8;" x="1063.68" xlink:href="#m16eb1c137a" y="433.398142"/>
      </g>
     </g>
     <g id="text_72">
      <!-- 2000 -->
      <g transform="translate(1031.23 437.197361)scale(0.1 -0.1)">
       <use xlink:href="#DejaVuSans-32"/>
       <use x="63.623047" xlink:href="#DejaVuSans-30"/>
       <use x="127.246094" xlink:href="#DejaVuSans-30"/>
       <use x="190.869141" xlink:href="#DejaVuSans-30"/>
      </g>
     </g>
    </g>
    <g id="text_73">
     <!-- Amount -->
     <g transform="translate(1025.150312 552.043349)rotate(-90)scale(0.1 -0.1)">
      <use xlink:href="#DejaVuSans-41"/>
      <use x="68.408203" xlink:href="#DejaVuSans-6d"/>
      <use x="165.820312" xlink:href="#DejaVuSans-6f"/>
      <use x="227.001953" xlink:href="#DejaVuSans-75"/>
      <use x="290.380859" xlink:href="#DejaVuSans-6e"/>
      <use x="353.759766" xlink:href="#DejaVuSans-74"/>
     </g>
    </g>
   </g>
   <g id="patch_69">
    <path d="M 1063.68 642.168 
L 1063.68 422.623385 
" style="fill:none;stroke:#000000;stroke-linecap:square;stroke-linejoin:miter;stroke-width:0.8;"/>
   </g>
   <g id="patch_70">
    <path d="M 1658.88 642.168 
L 1658.88 422.623385 
" style="fill:none;stroke:#000000;stroke-linecap:square;stroke-linejoin:miter;stroke-width:0.8;"/>
   </g>
   <g id="patch_71">
    <path d="M 1063.68 642.168 
L 1658.88 642.168 
" style="fill:none;stroke:#000000;stroke-linecap:square;stroke-linejoin:miter;stroke-width:0.8;"/>
   </g>
   <g id="patch_72">
    <path d="M 1063.68 422.623385 
L 1658.88 422.623385 
" style="fill:none;stroke:#000000;stroke-linecap:square;stroke-linejoin:miter;stroke-width:0.8;"/>
   </g>
   <g id="text_74">
    <g id="patch_73">
     <path d="M 1090.805115 624.64889 
L 1171.300115 624.64889 
Q 1173.700115 624.64889 1173.700115 622.24889 
L 1173.700115 605.54814 
Q 1173.700115 603.14814 1171.300115 603.14814 
L 1090.805115 603.14814 
Q 1088.405115 603.14814 1088.405115 605.54814 
L 1088.405115 622.24889 
Q 1088.405115 624.64889 1090.805115 624.64889 
z
" style="fill:#ffffff;opacity:0.9;stroke:#808080;stroke-linejoin:miter;"/>
    </g>
    <!-- median: 1102.0 tx/s -->
    <g transform="translate(1090.805115 611.62689)scale(0.08 -0.08)">
     <use xlink:href="#DejaVuSans-6d"/>
     <use x="97.412109" xlink:href="#DejaVuSans-65"/>
     <use x="158.935547" xlink:href="#DejaVuSans-64"/>
     <use x="222.412109" xlink:href="#DejaVuSans-69"/>
     <use x="250.195312" xlink:href="#DejaVuSans-61"/>
     <use x="311.474609" xlink:href="#DejaVuSans-6e"/>
     <use x="374.853516" xlink:href="#DejaVuSans-3a"/>
     <use x="408.544922" xlink:href="#DejaVuSans-20"/>
     <use x="440.332031" xlink:href="#DejaVuSans-31"/>
     <use x="503.955078" xlink:href="#DejaVuSans-31"/>
     <use x="567.578125" xlink:href="#DejaVuSans-30"/>
     <use x="631.201172" xlink:href="#DejaVuSans-32"/>
     <use x="694.824219" xlink:href="#DejaVuSans-2e"/>
     <use x="726.611328" xlink:href="#DejaVuSans-30"/>
     <use x="790.234375" xlink:href="#DejaVuSans-20"/>
     <use x="822.021484" xlink:href="#DejaVuSans-74"/>
     <use x="861.230469" xlink:href="#DejaVuSans-78"/>
     <use x="920.410156" xlink:href="#DejaVuSans-2f"/>
     <use x="954.101562" xlink:href="#DejaVuSans-73"/>
    </g>
    <!-- mean: 889.0 tx/s -->
    <g transform="translate(1090.805115 620.58514)scale(0.08 -0.08)">
     <use xlink:href="#DejaVuSans-6d"/>
     <use x="97.412109" xlink:href="#DejaVuSans-65"/>
     <use x="158.935547" xlink:href="#DejaVuSans-61"/>
     <use x="220.214844" xlink:href="#DejaVuSans-6e"/>
     <use x="283.59375" xlink:href="#DejaVuSans-3a"/>
     <use x="317.285156" xlink:href="#DejaVuSans-20"/>
     <use x="349.072266" xlink:href="#DejaVuSans-38"/>
     <use x="412.695312" xlink:href="#DejaVuSans-38"/>
     <use x="476.318359" xlink:href="#DejaVuSans-39"/>
     <use x="539.941406" xlink:href="#DejaVuSans-2e"/>
     <use x="571.728516" xlink:href="#DejaVuSans-30"/>
     <use x="635.351562" xlink:href="#DejaVuSans-20"/>
     <use x="667.138672" xlink:href="#DejaVuSans-74"/>
     <use x="706.347656" xlink:href="#DejaVuSans-78"/>
     <use x="765.527344" xlink:href="#DejaVuSans-2f"/>
     <use x="799.21875" xlink:href="#DejaVuSans-73"/>
    </g>
   </g>
   <g id="text_75">
    <!-- Finalized transactions per second -->
    <defs>
     <path d="M 9.8125 72.90625 
L 51.703125 72.90625 
L 51.703125 64.59375 
L 19.671875 64.59375 
L 19.671875 43.109375 
L 48.578125 43.109375 
L 48.578125 34.8125 
L 19.671875 34.8125 
L 19.671875 0 
L 9.8125 0 
z
" id="DejaVuSans-46"/>
    </defs>
    <g transform="translate(1260.6 416.623385)scale(0.12 -0.12)">
     <use xlink:href="#DejaVuSans-46"/>
     <use x="57.410156" xlink:href="#DejaVuSans-69"/>
     <use x="85.193359" xlink:href="#DejaVuSans-6e"/>
     <use x="148.572266" xlink:href="#DejaVuSans-61"/>
     <use x="209.851562" xlink:href="#DejaVuSans-6c"/>
     <use x="237.634766" xlink:href="#DejaVuSans-69"/>
     <use x="265.417969" xlink:href="#DejaVuSans-7a"/>
     <use x="317.908203" xlink:href="#DejaVuSans-65"/>
     <use x="379.431641" xlink:href="#DejaVuSans-64"/>
     <use x="442.908203" xlink:href="#DejaVuSans-20"/>
     <use x="474.695312" xlink:href="#DejaVuSans-74"/>
     <use x="513.904297" xlink:href="#DejaVuSans-72"/>
     <use x="555.017578" xlink:href="#DejaVuSans-61"/>
     <use x="616.296875" xlink:href="#DejaVuSans-6e"/>
     <use x="679.675781" xlink:href="#DejaVuSans-73"/>
     <use x="731.775391" xlink:href="#DejaVuSans-61"/>
     <use x="793.054688" xlink:href="#DejaVuSans-63"/>
     <use x="848.035156" xlink:href="#DejaVuSans-74"/>
     <use x="887.244141" xlink:href="#DejaVuSans-69"/>
     <use x="915.027344" xlink:href="#DejaVuSans-6f"/>
     <use x="976.208984" xlink:href="#DejaVuSans-6e"/>
     <use x="1039.587891" xlink:href="#DejaVuSans-73"/>
     <use x="1091.6875" xlink:href="#DejaVuSans-20"/>
     <use x="1123.474609" xlink:href="#DejaVuSans-70"/>
     <use x="1186.951172" xlink:href="#DejaVuSans-65"/>
     <use x="1248.474609" xlink:href="#DejaVuSans-72"/>
     <use x="1289.587891" xlink:href="#DejaVuSans-20"/>
     <use x="1321.375" xlink:href="#DejaVuSans-73"/>
     <use x="1373.474609" xlink:href="#DejaVuSans-65"/>
     <use x="1434.998047" xlink:href="#DejaVuSans-63"/>
     <use x="1489.978516" xlink:href="#DejaVuSans-6f"/>
     <use x="1551.160156" xlink:href="#DejaVuSans-6e"/>
     <use x="1614.539062" xlink:href="#DejaVuSans-64"/>
    </g>
   </g>
  </g>
  <g id="text_76">
   <!-- exp-32proc-16000sync.csv -->
   <defs>
    <path d="M 4.890625 31.390625 
L 31.203125 31.390625 
L 31.203125 23.390625 
L 4.890625 23.390625 
z
" id="DejaVuSans-2d"/>
    <path d="M 32.171875 -5.078125 
Q 28.375 -14.84375 24.75 -17.8125 
Q 21.140625 -20.796875 15.09375 -20.796875 
L 7.90625 -20.796875 
L 7.90625 -13.28125 
L 13.1875 -13.28125 
Q 16.890625 -13.28125 18.9375 -11.515625 
Q 21 -9.765625 23.484375 -3.21875 
L 25.09375 0.875 
L 2.984375 54.6875 
L 12.5 54.6875 
L 29.59375 11.921875 
L 46.6875 54.6875 
L 56.203125 54.6875 
z
" id="DejaVuSans-79"/>
    <path d="M 2.984375 54.6875 
L 12.5 54.6875 
L 29.59375 8.796875 
L 46.6875 54.6875 
L 56.203125 54.6875 
L 35.6875 0 
L 23.484375 0 
z
" id="DejaVuSans-76"/>
   </defs>
   <g transform="translate(840.591563 23.388525)scale(0.12 -0.12)">
    <use xlink:href="#DejaVuSans-65"/>
    <use x="61.507812" xlink:href="#DejaVuSans-78"/>
    <use x="120.6875" xlink:href="#DejaVuSans-70"/>
    <use x="184.164062" xlink:href="#DejaVuSans-2d"/>
    <use x="220.248047" xlink:href="#DejaVuSans-33"/>
    <use x="283.871094" xlink:href="#DejaVuSans-32"/>
    <use x="347.494141" xlink:href="#DejaVuSans-70"/>
    <use x="410.970703" xlink:href="#DejaVuSans-72"/>
    <use x="452.052734" xlink:href="#DejaVuSans-6f"/>
    <use x="513.234375" xlink:href="#DejaVuSans-63"/>
    <use x="568.214844" xlink:href="#DejaVuSans-2d"/>
    <use x="604.298828" xlink:href="#DejaVuSans-31"/>
    <use x="667.921875" xlink:href="#DejaVuSans-36"/>
    <use x="731.544922" xlink:href="#DejaVuSans-30"/>
    <use x="795.167969" xlink:href="#DejaVuSans-30"/>
    <use x="858.791016" xlink:href="#DejaVuSans-30"/>
    <use x="922.414062" xlink:href="#DejaVuSans-73"/>
    <use x="974.513672" xlink:href="#DejaVuSans-79"/>
    <use x="1033.693359" xlink:href="#DejaVuSans-6e"/>
    <use x="1097.072266" xlink:href="#DejaVuSans-63"/>
    <use x="1152.052734" xlink:href="#DejaVuSans-2e"/>
    <use x="1183.839844" xlink:href="#DejaVuSans-63"/>
    <use x="1238.820312" xlink:href="#DejaVuSans-73"/>
    <use x="1290.919922" xlink:href="#DejaVuSans-76"/>
   </g>
  </g>
 </g>
 <defs>
  <clipPath id="p75aa743d6a">
   <rect height="219.544615" width="595.2" x="230.4" y="71.352"/>
  </clipPath>
  <clipPath id="pdd28d1986a">
   <rect height="219.544615" width="595.2" x="1063.68" y="71.352"/>
  </clipPath>
  <clipPath id="p56108003a8">
   <rect height="219.544615" width="595.2" x="230.4" y="422.623385"/>
  </clipPath>
  <clipPath id="p784b2fa5ef">
   <rect height="219.544615" width="595.2" x="1063.68" y="422.623385"/>
  </clipPath>
 </defs>
</svg>
